<svg xmlns="http://www.w3.org/2000/svg" viewBox="0 0 748.06 801.92"><defs><style>.cls-1{fill:#666;}.cls-2{fill:orange;}</style></defs><title>Asset 7</title><g id="Layer_2" data-name="Layer 2"><g id="Layer_9" data-name="Layer 9"><path class="cls-1" d="M374,801.79l374.06,0-76.06-26v-11H616.71s3.14-25.61-5.66-25.61c0,0,3.77-26.31-4.4-25.06,0,0-.11-2.34-.32-6.46a6.49,6.49,0,0,0,6.14-6.48,6.41,6.41,0,0,0-6.37-6.39h-.5c-.13-3-.28-5-.44-8h.94a6,6,0,1,0,0-12h-1.83c-3.85-52-12.37-122-25.35,0h-2.53a6,6,0,1,0,0,12h1.23c-.22,3-.44,5-.67,8h-.56a6.42,6.42,0,0,0-6.37,6.41c0,3.3,1.93,5.95,5.15,6.26C575,709.68,574,712,574,714.19v9.48l-25.18-.76a93.68,93.68,0,0,0-.34-12h2.39a4.5,4.5,0,1,0,0-9h-3.2c-.15-2-.31-3-.47-5h3.68c2.5,0,4.54-2.5,4.54-5s-2-5-4.54-5h-4.62c-4.47-40-13.13-92-22.66,0h-6.09c-2.5,0-4.54,2.5-4.54,5s2,5,4.54,5h5.2c-.15,2-.3,3-.45,5h-4.74a4.5,4.5,0,1,0,0,9h4c-.32,4-.63,7.88-1,12,0,0-12.49-13.21-16.89,19.5,0,0-3.62-27.56-10.62-50.57V676.57c0-5.9-4-10.84-10-11.34V652.48s15.1-2.61,14.12-15l.25-6.36s5.93-3.75.87-3.75c0,0-2.72-8.81-4.19,0,0,0-5.36-.16.19,3.26,0,0,.83,16.81-10.43,17.13,0,0-7.12,1.67-7.17-.82,7.08-15.5-15.33-13.38-7.18.33,0,0-18.6-4.08-11.75,23.66l1.11-.28a11.41,11.41,0,0,0-1.83,5.92v4.86c-2,3.81-3.36,8.21-5.18,13.3l-4.34.94s1.61-18.24-3.42-15.09c0,0,1.28-11-4.38-10.06,0,0,5.67-12,0-54.09,0,0,9.44-4.56,6.93-18.56h-11s1.26-24-23.58-24.36c0,0,1.89-25.7-12.26-26.64A11.53,11.53,0,0,0,396,536.58v-77s9.58-6,2.35-20.44c0,0,7.31-1.73.23-13.52,0,0,5.54-3.07-.59-3.77,0,0-1.59-177.34-6.78-179.69,0,0,11.35-10.85,2.39-12.26l2.22-7.23s10.38-6.13,1-6.13c0,0,3.72-3.62,3.09-7.55,0,0,20.14-21.85,5.14-21.7V163.88H392.21l-.16-14.72s7.23-12-.79-11.84c0,0,2.11-7.81-5.12-8.44,0,0,.85-15.79-12.15-16.57v0s.16,0,0,0,0,0,0,0v0c-13,.78-11.46,16.63-11.46,16.63-7.23.63-4.47,8.49-4.47,8.49-8-.16-.77,11.74-.77,11.74l-.14,14.72H343v23.38c-15-.16,5.82,21.7,5.82,21.7-.63,3.93,3.54,7.55,3.54,7.55-9.43,0,1.06,6.13,1.06,6.13l2.26,7.23c-9,1.41,2.39,12.26,2.39,12.26-5.19,2.36-6.82,179.69-6.82,179.69-6.13.71-.7,3.77-.7,3.77-7.07,11.79-.22,13.52-.22,13.52-7.23,14.46,1.67,20.44,1.67,20.44v77A10.28,10.28,0,0,0,348.91,547c-14.15.94-11.68,26.56-11.68,26.56-24.84.31-23.47,24.36-23.47,24.36h-11c-2.52,14,6.92,18.56,6.92,18.56-5.66,42.13,0,54,0,54-5.66-.94-4.4,10.1-4.4,10.1-5-3.14-3.46,15.11-3.46,15.11l-5-.93A103.24,103.24,0,0,0,291,681.43v-4.86c0-2.16-.08-4.2-1.14-5.92l1.53.28c6.85-27.74-11.61-23.66-11.61-23.66,8.16-13.71-14.19-15.83-7.11-.33-.05,2.49-7.14.82-7.14.82-11.26-.33-10.42-17.13-10.42-17.13,5.55-3.43.18-3.26.18-3.26-1.47-8.81-4.23,0-4.23,0-5.06,0,.79,3.75.79,3.75l-.26,6.36c-1,12.4,13.43,15,13.43,15v12.75c-6,.5-10,5.44-10,11.34v15.25c-7,23-9.93,50.7-9.93,50.7-4.4-32.7-16.27-19.63-16.27-19.63-.32-4.14-.56-8-.88-12h4a4.5,4.5,0,1,0,0-9h-4.74c-.15-2-.3-3-.45-5h5.2c2.5,0,4.54-2.5,4.54-5s-2-5-4.54-5h-6.09c-9.53-92-18.2-40-22.66,0H198.5c-2.5,0-4.54,2.5-4.54,5s2,5,4.54,5h3.68c-.17,2-.32,3-.47,5h-3.2a4.5,4.5,0,1,0,0,9h2.39c-.62,7-1,12-1,12l-25.87.76v-9.48c0-2.22-.3-4.38-.49-6.52a6.46,6.46,0,0,0,5.8-6.38,6.39,6.39,0,0,0-6.32-6.41h-.56c-.22-3-.45-5-.67-8H173a6,6,0,1,0,0-12h-2.53c-13-122-21.49-52-25.35,0h-1.83a6,6,0,1,0,0,12h.94c-.16,3-.3,5-.44,8h-.5a6.39,6.39,0,0,0-.22,12.78c-.22,4.12-.32,6.56-.32,6.56-8.18-1.26-4.4,25-4.4,25-8.8,0-5.66,25.64-5.66,25.64H76v11L0,801.91H373.88l.25,0H374Zm92.43-136.34a11.18,11.18,0,0,0-3.54,1.36C462.82,659.71,463,643.93,466.43,665.44ZM286.48,666.8a11.18,11.18,0,0,0-3.54-1.36C286.39,643.93,286.55,659.71,286.48,666.8Z"/><path class="cls-2" d="M370,111.88v-5s-12.33-1-4.67-8.67c0,0-10.33-4.33-7.33-7,0,0-10-8.67,1.67-8.67,0,0-2.32-4.33,2.34-4.33l1.66-4.33s-7.33,2.67,3.67-12.67c0,0-3.08-1.21-2.21-2.08,0,0-10.75-.5-7.5-4.75,0,0-5.87.38-4.25-3.25,0,0-5.87.88-3.75-4.62,0,0-2.8.25-.46-4.75,0,0-8.54.88-6.29-5.87,0,0-8.37.25-7.87-8.5,0,0-10.87-4.37-9.25-8.75,0,0-6.87-1.87-6-7.5,0,0-3.28-5.61-.08-9.43s-.55,0-.55,0l31.25,24.05s2.38,2.13,5.75,9.25l1.25-.75-.12-4.62s-9-2.37-.25-4.5l4.88-.25s10.5,2.25,0,5.13l-.37,4.38S358.74,42.75,370,43l.63-3.5s-5.5-6.87-1-9c0,0,3.88-7.75,9-.37l.63,2.5s6.88-17.25,17.25-21l13.38-5.88s0,5.63-2,7.13c0,0,2.5,2-8.5,10.75,0,0,.88,4.75-6.5,7.25,0,0-2.37,8.25-7.25,10.38,0,0-1.87,6.13-.62,9.75,0,0-.5,8,10.25,9.63,0,0,5.5-4.25,5.63-1.37l-.25,8.88s-3.5.13-5.25-4.25c0,0-10.12,1.5-12.75-4.75,0,0-4.62-.37,2.13,7.38,0,0-1,8,11.13,15.88,0,0,8.38,11.5-5.12,14.25,0,0,4.75,7.38-.12,10.75,0,0-4.12-.75-2.62-8.13,0,0-4.75-9.5-4.87,3.13l-3,4.13-.25,5.38Z"/></g></g></svg>