<svg id="svg" version="1.1" width="400" height="368.9922480620155" viewBox="0 0 400 368.9922480620155" xmlns="http://www.w3.org/2000/svg" xmlns:xlink="http://www.w3.org/1999/xlink" ><g id="svgg"><path id="path0" d="" stroke="none" fill="#000000" fill-rule="evenodd"></path><path id="path1" d="" stroke="none" fill="#555500" fill-rule="evenodd"></path><path id="path2" d="" stroke="none" fill="#ff0000" fill-rule="evenodd"></path><path id="path3" d="" stroke="none" fill="#ff5500" fill-rule="evenodd"></path><path id="path4" d="M298.893 0.923 C 298.893 1.652,298.706 1.845,298.001 1.845 C 296.097 1.845,295.941 2.096,295.941 5.166 C 295.941 7.379,295.814 8.088,295.387 8.252 C 295.083 8.368,294.834 8.851,294.834 9.324 C 294.834 10.306,294.050 12.170,293.635 12.174 C 293.482 12.176,293.358 12.433,293.358 12.746 C 293.358 13.059,293.026 13.671,292.620 14.107 C 292.214 14.543,291.882 15.117,291.882 15.383 C 291.882 15.649,291.716 15.867,291.513 15.867 C 291.310 15.867,291.144 16.199,291.144 16.605 C 291.144 17.011,290.978 17.343,290.775 17.343 C 290.572 17.343,290.406 17.924,290.406 18.635 C 290.406 19.345,290.240 19.926,290.037 19.926 C 289.305 19.926,289.638 21.833,290.406 22.033 C 291.160 22.230,291.443 22.878,290.775 22.878 C 290.572 22.878,290.406 23.210,290.406 23.616 C 290.406 24.022,290.240 24.354,290.037 24.354 C 289.817 24.354,289.691 25.547,289.724 27.307 C 289.773 29.908,289.686 30.341,288.986 30.948 C 288.124 31.695,287.747 37.638,288.561 37.638 C 288.764 37.638,288.930 38.386,288.930 39.299 C 288.930 40.212,288.764 40.959,288.561 40.959 C 288.358 40.959,288.192 41.790,288.192 42.804 C 288.192 43.819,288.358 44.649,288.561 44.649 C 288.774 44.649,288.930 45.818,288.930 47.417 C 288.930 49.016,288.774 50.185,288.561 50.185 C 288.358 50.185,288.192 50.683,288.192 51.292 C 288.192 52.030,288.007 52.399,287.638 52.399 C 287.272 52.399,287.085 52.765,287.085 53.484 C 287.085 54.081,286.919 54.672,286.716 54.797 C 286.513 54.922,286.347 55.836,286.347 56.827 C 286.347 57.817,286.181 58.731,285.978 58.856 C 285.775 58.982,285.609 59.646,285.609 60.332 C 285.609 61.018,285.443 61.683,285.240 61.808 C 285.037 61.934,284.871 62.432,284.871 62.915 C 284.871 63.399,284.705 63.897,284.502 64.022 C 284.299 64.148,284.133 64.536,284.133 64.885 C 284.133 65.234,283.801 65.759,283.395 66.052 C 282.989 66.344,282.657 66.879,282.657 67.240 C 282.657 67.601,282.491 67.897,282.288 67.897 C 282.085 67.897,281.919 68.395,281.919 69.004 C 281.919 69.613,281.753 70.111,281.550 70.111 C 281.347 70.111,281.181 70.433,281.181 70.827 C 281.181 71.221,281.015 71.646,280.812 71.771 C 280.609 71.897,280.443 72.322,280.443 72.716 C 280.443 73.109,280.194 73.432,279.889 73.432 C 279.585 73.432,279.334 73.556,279.333 73.708 C 279.329 74.040,277.543 74.908,276.864 74.908 C 276.600 74.908,276.384 75.074,276.384 75.277 C 276.384 75.480,275.470 75.646,274.354 75.646 C 273.238 75.646,272.325 75.480,272.325 75.277 C 272.325 75.074,271.993 74.908,271.587 74.908 C 271.181 74.908,270.849 74.742,270.849 74.539 C 270.849 74.336,270.517 74.170,270.111 74.170 C 269.705 74.170,269.373 74.023,269.373 73.843 C 269.373 73.663,268.792 73.240,268.081 72.903 C 267.371 72.566,266.790 72.172,266.790 72.028 C 266.790 71.885,266.292 71.546,265.683 71.277 C 265.008 70.978,264.576 70.511,264.576 70.080 C 264.576 69.691,264.410 69.373,264.207 69.373 C 264.004 69.373,263.838 69.041,263.838 68.635 C 263.838 68.229,263.672 67.897,263.469 67.897 C 263.266 67.897,263.100 67.632,263.100 67.309 C 263.100 66.985,262.768 66.634,262.362 66.528 C 261.956 66.421,261.624 66.188,261.624 66.009 C 261.624 65.829,261.292 65.683,260.886 65.683 C 260.480 65.683,260.148 65.517,260.148 65.314 C 260.148 65.111,259.234 64.945,258.118 64.945 C 256.560 64.945,256.089 64.816,256.089 64.391 C 256.089 64.042,255.737 63.838,255.137 63.838 C 254.509 63.838,253.703 63.335,252.768 62.362 C 251.988 61.550,251.240 60.886,251.107 60.886 C 250.974 60.886,250.226 60.221,249.446 59.410 C 248.667 58.598,247.780 57.934,247.477 57.934 C 247.173 57.934,246.870 57.802,246.802 57.642 C 246.496 56.916,243.930 55.351,243.046 55.351 C 242.507 55.351,242.066 55.185,242.066 54.982 C 242.066 54.779,241.568 54.613,240.959 54.613 C 240.351 54.613,239.852 54.446,239.852 54.244 C 239.852 54.041,239.601 53.875,239.294 53.875 C 237.982 53.875,232.103 49.011,232.103 47.926 C 232.103 47.748,231.808 47.601,231.447 47.601 C 231.086 47.601,230.551 47.269,230.258 46.863 C 229.966 46.458,229.431 46.125,229.070 46.125 C 228.709 46.125,228.413 45.959,228.413 45.756 C 228.413 45.554,228.164 45.387,227.860 45.387 C 227.555 45.387,227.306 45.221,227.306 45.018 C 227.306 44.815,226.974 44.649,226.568 44.649 C 226.162 44.649,225.830 44.483,225.830 44.280 C 225.830 44.077,225.498 43.911,225.092 43.911 C 224.551 43.911,224.354 43.665,224.354 42.989 C 224.354 42.390,224.561 42.066,224.944 42.066 C 226.181 42.066,230.627 36.169,230.627 34.528 C 230.627 34.006,230.793 33.579,230.996 33.579 C 231.199 33.579,231.365 33.257,231.365 32.863 C 231.365 32.469,231.531 32.044,231.734 31.919 C 232.364 31.530,232.141 30.079,231.365 29.520 C 229.589 28.240,231.540 26.812,233.649 27.847 C 234.760 28.393,236.900 26.982,236.900 25.705 C 236.900 25.368,237.066 25.092,237.269 25.092 C 237.472 25.092,237.638 24.544,237.638 23.874 C 237.638 22.603,238.360 20.672,238.838 20.667 C 238.990 20.666,239.114 20.482,239.114 20.259 C 239.114 20.036,239.613 19.388,240.221 18.819 C 240.830 18.250,241.328 17.520,241.328 17.195 C 241.328 16.871,241.494 16.605,241.697 16.605 C 242.245 16.605,242.144 15.523,241.539 14.918 C 241.249 14.628,240.751 14.391,240.432 14.391 C 240.113 14.391,239.852 14.225,239.852 14.022 C 239.852 13.819,239.591 13.653,239.273 13.653 C 238.309 13.653,237.638 12.675,237.638 11.269 C 237.638 10.407,237.437 9.863,237.065 9.720 C 236.470 9.492,233.948 10.652,233.948 11.154 C 233.948 11.311,233.699 11.439,233.395 11.439 C 233.090 11.439,232.841 11.605,232.841 11.808 C 232.841 12.011,232.177 12.177,231.365 12.177 C 230.037 12.177,229.889 12.085,229.889 11.255 C 229.889 10.162,227.470 9.845,227.071 10.886 C 226.927 11.261,226.338 11.439,225.237 11.439 C 224.346 11.439,223.616 11.605,223.616 11.808 C 223.616 12.011,223.284 12.177,222.878 12.177 C 222.472 12.177,222.140 12.343,222.140 12.546 C 222.140 13.114,219.203 12.983,218.608 12.388 C 218.318 12.098,218.081 11.517,218.081 11.096 C 218.081 10.126,214.889 9.937,214.525 10.886 C 214.250 11.602,212.955 11.602,212.680 10.886 C 212.563 10.581,212.234 10.332,211.948 10.332 C 211.271 10.332,209.943 9.578,209.186 8.764 C 208.514 8.042,203.690 7.799,203.690 8.487 C 203.690 8.690,203.441 8.856,203.137 8.856 C 202.832 8.856,202.583 8.690,202.583 8.487 C 202.583 8.284,202.328 8.118,202.017 8.118 C 201.370 8.118,198.893 5.767,198.893 5.152 C 198.893 4.554,197.928 3.690,197.259 3.690 C 196.940 3.690,196.679 3.856,196.679 4.059 C 196.679 4.262,196.195 4.428,195.603 4.428 C 195.011 4.428,194.443 4.636,194.340 4.889 C 194.234 5.152,194.142 5.057,194.125 4.668 C 194.091 3.876,192.048 1.845,191.284 1.845 C 190.999 1.845,190.413 1.637,189.984 1.384 C 189.359 1.015,189.169 1.015,189.035 1.384 C 188.933 1.667,188.174 1.845,187.071 1.845 C 184.244 1.845,183.395 2.397,183.395 4.234 C 183.395 6.268,185.243 7.380,188.622 7.380 C 191.079 7.380,191.882 7.873,191.882 9.383 C 191.882 9.905,192.048 10.332,192.251 10.332 C 192.454 10.332,192.620 10.747,192.620 11.255 C 192.620 11.931,192.423 12.177,191.882 12.177 C 191.476 12.177,191.144 12.343,191.144 12.546 C 191.144 12.749,190.646 12.915,190.037 12.915 C 189.428 12.915,188.930 13.081,188.930 13.284 C 188.930 13.487,188.017 13.653,186.900 13.653 C 185.784 13.653,184.871 13.819,184.871 14.022 C 184.871 14.225,184.041 14.391,183.026 14.391 C 181.774 14.391,181.181 14.239,181.181 13.920 C 181.181 12.343,177.729 11.560,176.753 12.915 C 176.460 13.321,175.925 13.653,175.564 13.653 C 175.154 13.653,174.908 13.930,174.908 14.391 C 174.908 14.928,174.662 15.129,174.007 15.129 C 173.512 15.129,173.004 15.295,172.878 15.498 C 172.753 15.701,172.079 15.867,171.380 15.867 C 170.370 15.867,170.111 16.013,170.111 16.583 C 170.111 16.977,169.945 17.402,169.742 17.528 C 169.539 17.653,169.373 18.041,169.373 18.391 C 169.373 18.740,169.041 19.265,168.635 19.557 C 168.229 19.850,167.897 20.385,167.897 20.746 C 167.897 21.107,167.636 21.402,167.317 21.402 C 166.205 21.402,165.683 22.397,165.683 24.512 C 165.683 25.643,165.849 26.568,166.052 26.568 C 166.255 26.568,166.421 26.817,166.421 27.122 C 166.421 27.491,166.052 27.675,165.314 27.675 C 164.705 27.675,164.207 27.841,164.207 28.044 C 164.207 28.247,163.792 28.413,163.284 28.413 C 162.617 28.413,162.362 28.612,162.362 29.130 C 162.362 29.523,162.196 29.948,161.993 30.074 C 161.790 30.199,161.624 30.873,161.624 31.572 C 161.624 32.270,161.458 32.841,161.255 32.841 C 161.052 32.841,160.886 33.020,160.886 33.239 C 160.886 33.458,160.221 34.275,159.410 35.055 C 158.436 35.991,157.934 36.797,157.934 37.425 C 157.934 37.948,157.768 38.376,157.565 38.376 C 157.362 38.376,157.196 38.803,157.196 39.325 C 157.196 40.313,157.944 41.328,158.672 41.328 C 159.346 41.328,160.148 42.316,160.148 43.147 C 160.148 43.567,160.314 43.911,160.517 43.911 C 160.720 43.911,160.886 44.077,160.886 44.280 C 160.886 44.489,159.840 44.649,158.487 44.649 C 157.134 44.649,156.089 44.489,156.089 44.280 C 156.089 44.077,155.424 43.911,154.613 43.911 C 153.801 43.911,153.137 43.745,153.137 43.542 C 153.137 43.329,151.968 43.173,150.369 43.173 C 148.770 43.173,147.601 43.018,147.601 42.804 C 147.601 42.601,147.350 42.435,147.043 42.435 C 146.485 42.435,144.999 41.719,144.649 41.282 C 144.548 41.155,144.135 40.615,143.732 40.083 C 143.328 39.550,142.789 39.114,142.532 39.114 C 142.276 39.114,142.066 38.878,142.066 38.590 C 142.066 37.692,138.776 34.686,137.794 34.686 C 137.302 34.686,136.900 34.520,136.900 34.317 C 136.900 34.114,136.319 33.948,135.609 33.948 C 134.649 33.948,134.317 33.790,134.317 33.333 C 134.317 32.995,134.206 32.830,134.070 32.966 C 133.934 33.102,133.426 32.953,132.942 32.636 C 131.688 31.814,130.105 32.070,129.956 33.118 C 129.891 33.575,129.683 33.948,129.495 33.948 C 129.306 33.948,129.151 34.280,129.151 34.686 C 129.151 35.301,128.905 35.424,127.675 35.424 C 126.863 35.424,126.199 35.590,126.199 35.793 C 126.199 36.427,125.280 36.197,124.723 35.424 C 124.174 34.662,122.878 34.403,122.878 35.055 C 122.878 35.258,122.617 35.424,122.298 35.424 C 120.766 35.424,120.093 37.801,121.365 38.719 C 121.890 39.097,121.962 39.336,121.653 39.667 C 121.207 40.144,119.926 39.976,119.926 39.440 C 119.926 39.261,119.691 39.114,119.403 39.114 C 119.116 39.114,118.811 38.907,118.726 38.653 C 118.410 37.712,116.605 39.122,116.605 40.310 C 116.605 41.445,115.881 42.435,115.052 42.435 C 114.778 42.435,114.315 42.768,114.022 43.173 C 113.730 43.579,113.195 43.911,112.834 43.911 C 112.302 43.911,112.177 44.226,112.177 45.572 C 112.177 47.190,112.076 47.334,108.303 51.098 L 104.428 54.964 104.428 57.187 C 104.428 58.423,104.592 59.410,104.797 59.410 C 105.000 59.410,105.166 59.908,105.166 60.517 C 105.166 61.125,105.000 61.624,104.797 61.624 C 104.594 61.624,104.428 61.956,104.428 62.362 C 104.428 63.126,103.538 63.380,103.137 62.731 C 103.011 62.528,102.503 62.362,102.008 62.362 C 101.512 62.362,101.107 62.196,101.107 61.993 C 101.107 61.782,100.000 61.624,98.524 61.624 L 95.941 61.624 95.941 63.653 C 95.941 65.211,95.812 65.683,95.387 65.683 C 94.988 65.683,94.834 66.093,94.834 67.159 C 94.834 67.970,95.008 68.635,95.220 68.635 C 95.872 68.635,97.632 70.593,97.130 70.760 C 96.882 70.843,96.679 71.478,96.679 72.171 C 96.679 73.046,96.509 73.432,96.125 73.432 C 95.821 73.432,95.572 73.109,95.572 72.716 C 95.572 72.322,95.406 71.897,95.203 71.771 C 95.000 71.646,94.834 71.221,94.834 70.827 C 94.834 70.433,94.668 70.111,94.465 70.111 C 94.262 70.111,94.096 69.815,94.096 69.454 C 94.096 69.093,93.764 68.558,93.358 68.266 C 92.844 67.895,92.620 67.310,92.620 66.339 C 92.620 64.986,92.581 64.945,91.302 64.945 C 89.993 64.945,88.930 65.608,88.930 66.425 C 88.930 66.659,88.349 67.416,87.638 68.105 C 86.928 68.795,86.347 69.462,86.347 69.587 C 86.347 69.712,85.849 70.280,85.240 70.849 C 84.631 71.417,84.133 72.029,84.133 72.207 C 84.133 72.385,83.801 72.770,83.395 73.063 C 82.989 73.355,82.657 73.890,82.657 74.251 C 82.657 74.612,82.491 74.908,82.288 74.908 C 81.800 74.908,81.800 81.433,82.288 81.734 C 82.491 81.860,82.657 82.769,82.657 83.755 C 82.657 84.841,82.839 85.623,83.118 85.739 C 83.578 85.930,83.477 86.036,80.627 88.370 C 80.018 88.868,79.147 89.591,78.690 89.976 C 78.217 90.376,77.860 91.095,77.860 91.648 C 77.860 92.183,77.694 92.620,77.491 92.620 C 77.288 92.620,77.122 93.118,77.122 93.727 C 77.122 94.336,76.956 94.834,76.753 94.834 C 76.550 94.834,76.384 95.249,76.384 95.756 C 76.384 96.264,76.218 96.679,76.015 96.679 C 75.812 96.679,75.646 97.011,75.646 97.417 C 75.646 97.823,75.480 98.155,75.277 98.155 C 75.074 98.155,74.908 98.412,74.908 98.725 C 74.908 99.039,74.534 99.682,74.077 100.155 C 73.621 100.628,72.980 101.326,72.654 101.706 C 71.687 102.835,70.509 103.690,69.922 103.690 C 69.620 103.690,69.371 103.815,69.370 103.967 C 69.366 104.298,67.579 105.166,66.901 105.166 C 66.637 105.166,66.421 105.332,66.421 105.535 C 66.421 105.738,66.089 105.904,65.683 105.904 C 65.277 105.904,64.945 106.070,64.945 106.273 C 64.945 106.476,64.363 106.642,63.653 106.642 C 62.943 106.642,62.362 106.808,62.362 107.011 C 62.362 107.214,61.863 107.380,61.255 107.380 C 60.646 107.380,60.148 107.546,60.148 107.749 C 60.148 107.952,59.815 108.118,59.410 108.118 C 59.004 108.118,58.672 108.284,58.672 108.487 C 58.672 108.690,58.090 108.856,57.380 108.856 C 56.670 108.856,56.089 108.690,56.089 108.487 C 56.089 108.284,55.424 108.118,54.613 108.118 C 53.801 108.118,53.137 108.284,53.137 108.487 C 53.137 108.690,52.913 108.856,52.640 108.856 C 52.042 108.856,50.923 110.028,50.923 110.655 C 50.923 111.204,49.259 112.915,48.725 112.915 C 48.513 112.915,48.339 113.081,48.339 113.284 C 48.339 113.487,47.509 113.653,46.494 113.653 C 45.480 113.653,44.649 113.819,44.649 114.022 C 44.649 114.225,44.317 114.391,43.911 114.391 C 43.506 114.391,43.173 114.557,43.173 114.760 C 43.173 114.963,42.932 115.129,42.636 115.129 C 42.341 115.129,41.148 116.058,39.986 117.193 L 37.872 119.256 34.711 119.222 C 32.964 119.203,31.495 119.023,31.427 118.819 C 31.118 117.892,28.413 118.413,28.413 119.399 C 28.413 120.467,27.650 121.402,26.779 121.402 C 26.460 121.402,26.199 121.568,26.199 121.771 C 26.199 121.974,25.950 122.140,25.646 122.140 C 25.341 122.140,25.092 122.306,25.092 122.509 C 25.092 122.712,24.838 122.878,24.526 122.878 C 24.003 122.878,21.402 125.179,21.402 125.641 C 21.402 125.754,20.530 126.759,19.465 127.874 C 18.399 128.989,17.113 130.366,16.605 130.933 C 16.098 131.500,15.060 132.252,14.299 132.604 C 13.538 132.957,12.915 133.403,12.915 133.597 C 12.915 133.790,12.583 133.948,12.177 133.948 C 11.771 133.948,11.439 134.114,11.439 134.317 C 11.439 134.520,11.190 134.686,10.886 134.686 C 10.581 134.686,10.332 134.852,10.332 135.055 C 10.332 135.258,10.085 135.424,9.783 135.424 C 9.119 135.424,7.380 138.074,7.380 139.085 C 7.380 139.483,7.214 139.911,7.011 140.037 C 6.808 140.162,6.642 141.085,6.642 142.088 C 6.642 143.091,6.476 143.911,6.273 143.911 C 6.052 143.911,5.904 142.432,5.904 140.210 C 5.904 136.729,5.124 134.629,4.512 136.465 C 4.432 136.704,4.090 136.901,3.752 136.901 C 3.413 136.902,2.804 137.400,2.399 138.007 C 1.993 138.615,1.536 139.113,1.384 139.113 C 1.232 139.114,1.107 139.516,1.107 140.006 C 1.107 140.497,0.919 140.961,0.688 141.037 C -0.062 141.287,-0.236 150.117,0.503 150.401 C 0.898 150.552,1.107 151.066,1.107 151.884 C 1.107 152.573,1.291 153.137,1.516 153.137 C 2.153 153.137,1.317 157.542,0.591 158.012 C -0.128 158.477,-0.191 169.129,0.521 169.841 C 0.843 170.163,1.107 170.579,1.107 170.765 C 1.107 170.951,1.439 171.404,1.845 171.771 C 2.251 172.139,2.583 172.836,2.583 173.322 C 2.583 173.808,2.998 174.590,3.506 175.060 C 4.013 175.530,4.428 176.083,4.428 176.289 C 4.428 176.495,5.092 177.348,5.904 178.185 C 6.716 179.021,7.380 179.848,7.380 180.022 C 7.380 180.196,8.044 181.093,8.856 182.016 C 10.249 183.599,10.869 185.609,9.963 185.609 C 9.760 185.609,9.594 185.189,9.594 184.677 C 9.594 183.770,6.733 180.443,5.953 180.443 C 5.767 180.443,5.518 180.194,5.402 179.889 C 5.285 179.585,4.802 179.336,4.329 179.336 C 3.856 179.336,3.296 179.163,3.084 178.951 C 2.325 178.192,1.772 179.574,1.904 181.901 C 1.991 183.439,1.887 184.181,1.568 184.302 C 1.315 184.399,1.107 184.839,1.107 185.280 C 1.107 185.720,0.846 186.272,0.527 186.505 C -0.083 186.951,0.122 188.930,0.778 188.930 C 0.959 188.930,1.107 189.112,1.107 189.335 C 1.107 189.557,2.729 191.342,4.710 193.301 C 8.708 197.253,10.069 198.783,10.434 199.732 C 10.568 200.082,10.849 200.369,11.059 200.369 C 11.268 200.369,11.439 200.701,11.439 201.107 C 11.439 201.513,11.605 201.845,11.808 201.845 C 12.011 201.845,12.177 202.343,12.177 202.952 C 12.177 203.561,12.343 204.059,12.546 204.059 C 12.749 204.059,12.915 204.640,12.915 205.351 C 12.915 206.061,13.081 206.642,13.284 206.642 C 13.487 206.642,13.653 206.902,13.653 207.220 C 13.653 207.537,14.483 208.606,15.498 209.594 C 16.513 210.583,17.343 211.544,17.343 211.730 C 17.343 211.917,17.758 212.517,18.266 213.065 C 18.773 213.612,19.188 214.366,19.188 214.739 C 19.188 215.112,20.018 216.253,21.033 217.273 C 22.048 218.293,22.878 219.380,22.878 219.690 C 22.878 219.999,23.044 220.354,23.247 220.480 C 23.450 220.605,23.616 221.362,23.616 222.162 C 23.616 222.962,23.782 223.616,23.985 223.616 C 24.188 223.616,24.354 224.208,24.354 224.931 C 24.354 226.473,25.400 229.889,25.873 229.889 C 26.052 229.889,26.199 230.387,26.199 230.996 C 26.199 231.605,26.365 232.103,26.568 232.103 C 26.771 232.103,26.937 232.435,26.937 232.841 C 26.937 233.247,27.103 233.579,27.306 233.579 C 27.509 233.579,27.675 233.911,27.675 234.317 C 27.675 234.723,27.841 235.055,28.044 235.055 C 28.247 235.055,28.413 235.304,28.413 235.609 C 28.413 235.913,28.579 236.162,28.782 236.162 C 28.985 236.162,29.151 236.458,29.151 236.819 C 29.151 237.180,29.483 237.715,29.889 238.007 C 30.295 238.300,30.627 238.727,30.627 238.957 C 30.627 239.186,31.110 239.879,31.700 240.496 C 32.289 241.113,32.839 241.927,32.921 242.304 C 33.003 242.680,33.267 242.947,33.509 242.897 C 33.756 242.845,33.948 243.208,33.948 243.727 C 33.948 244.234,34.114 244.649,34.317 244.649 C 34.520 244.649,34.686 244.982,34.686 245.387 C 34.686 245.793,34.852 246.125,35.055 246.125 C 35.258 246.125,35.424 246.790,35.424 247.601 C 35.424 248.413,35.590 249.077,35.793 249.077 C 36.277 249.077,36.277 253.760,35.793 254.059 C 35.313 254.356,35.313 256.089,35.793 256.089 C 35.996 256.089,36.162 256.587,36.162 257.196 C 36.162 257.804,36.328 258.303,36.531 258.303 C 37.057 258.303,36.989 261.655,36.439 262.839 C 36.024 263.732,35.782 263.832,34.041 263.835 L 32.103 263.838 32.109 267.804 C 32.116 272.554,32.994 274.170,35.565 274.170 C 36.300 274.170,36.900 274.336,36.900 274.539 C 36.900 274.742,37.482 274.908,38.192 274.908 C 38.902 274.908,39.483 275.074,39.483 275.277 C 39.483 275.480,39.779 275.646,40.140 275.646 C 40.501 275.646,41.036 275.978,41.328 276.384 C 41.621 276.790,42.156 277.122,42.517 277.122 C 42.878 277.122,43.173 277.288,43.173 277.491 C 43.173 277.694,43.506 277.860,43.911 277.860 C 44.317 277.860,44.649 278.026,44.649 278.229 C 44.649 278.432,44.982 278.598,45.387 278.598 C 45.793 278.598,46.125 278.764,46.125 278.967 C 46.125 279.170,46.707 279.336,47.417 279.336 C 48.127 279.336,48.708 279.502,48.708 279.705 C 48.708 279.910,49.692 280.074,50.923 280.074 C 52.153 280.074,53.137 279.910,53.137 279.705 C 53.137 279.477,55.043 279.336,58.118 279.336 C 61.193 279.336,63.100 279.195,63.100 278.967 C 63.100 278.764,63.432 278.598,63.838 278.598 C 64.244 278.598,64.576 278.432,64.576 278.229 C 64.576 278.026,64.825 277.860,65.129 277.860 C 65.434 277.860,65.683 277.694,65.683 277.491 C 65.683 277.288,65.937 277.122,66.248 277.122 C 66.559 277.122,66.924 276.831,67.059 276.476 C 67.194 276.121,67.689 275.415,68.159 274.908 C 68.628 274.400,69.115 273.661,69.241 273.264 C 69.548 272.299,70.298 271.587,71.007 271.587 C 71.326 271.587,71.587 271.421,71.587 271.218 C 71.587 271.015,72.375 270.849,73.339 270.848 C 75.689 270.848,77.122 269.679,77.122 267.761 C 77.122 267.024,77.260 266.421,77.428 266.421 C 77.597 266.421,77.957 266.006,78.229 265.498 C 78.500 264.991,79.027 264.576,79.398 264.576 C 79.770 264.576,80.074 264.410,80.074 264.207 C 80.074 264.004,80.655 263.838,81.365 263.838 C 82.076 263.838,82.657 263.672,82.657 263.469 C 82.657 263.266,83.394 263.100,84.296 263.100 C 85.197 263.100,86.037 262.934,86.162 262.731 C 86.288 262.528,87.294 262.362,88.398 262.362 C 89.502 262.362,90.406 262.196,90.406 261.993 C 90.406 261.770,91.943 261.624,94.280 261.624 C 96.617 261.624,98.155 261.770,98.155 261.993 C 98.155 262.740,101.633 262.417,102.128 261.624 C 102.382 261.218,102.912 260.886,103.307 260.886 C 103.701 260.886,104.460 260.687,104.992 260.445 C 105.741 260.103,106.117 260.103,106.664 260.445 C 107.519 260.978,111.304 261.033,111.624 260.517 C 111.749 260.314,112.166 260.148,112.551 260.148 C 113.273 260.148,115.129 258.541,115.129 257.917 C 115.129 257.723,115.295 257.565,115.498 257.565 C 115.701 257.565,115.867 257.066,115.867 256.458 C 115.867 255.849,116.033 255.351,116.236 255.351 C 116.439 255.351,116.605 254.852,116.605 254.244 C 116.605 253.635,116.771 253.137,116.974 253.137 C 117.177 253.137,117.343 252.655,117.343 252.066 C 117.343 250.595,119.598 248.339,121.070 248.339 C 121.659 248.339,122.140 248.173,122.140 247.970 C 122.140 247.768,122.472 247.601,122.878 247.601 C 123.284 247.601,123.616 247.435,123.616 247.232 C 123.616 247.030,123.912 246.863,124.273 246.863 C 124.634 246.863,125.169 246.531,125.461 246.125 C 125.754 245.720,126.289 245.387,126.650 245.387 C 127.011 245.387,127.306 245.221,127.306 245.018 C 127.306 244.815,127.555 244.649,127.860 244.649 C 128.164 244.649,128.413 244.483,128.413 244.280 C 128.413 244.077,128.622 243.911,128.877 243.911 C 129.132 243.911,129.874 243.330,130.526 242.620 C 131.178 241.910,131.966 241.328,132.276 241.328 C 132.587 241.328,132.841 241.162,132.841 240.959 C 132.841 240.756,133.423 240.590,134.133 240.590 C 134.843 240.590,135.424 240.424,135.424 240.221 C 135.424 239.994,137.331 239.852,140.406 239.852 C 143.481 239.852,145.387 239.711,145.387 239.483 C 145.387 239.280,145.959 239.114,146.657 239.114 C 147.356 239.114,148.030 238.948,148.155 238.745 C 148.280 238.542,148.788 238.376,149.284 238.376 C 149.779 238.376,150.185 238.210,150.185 238.007 C 150.185 237.804,150.600 237.638,151.107 237.638 C 151.614 237.638,152.030 237.472,152.030 237.269 C 152.030 237.066,152.352 236.900,152.746 236.900 C 153.140 236.900,153.565 236.734,153.690 236.531 C 153.815 236.328,154.240 236.162,154.634 236.162 C 155.028 236.162,155.351 236.033,155.351 235.874 C 155.351 235.715,156.112 235.361,157.042 235.086 C 157.972 234.811,158.820 234.360,158.926 234.083 C 159.033 233.806,159.351 233.579,159.634 233.579 C 159.916 233.579,160.148 233.413,160.148 233.210 C 160.148 233.007,160.480 232.841,160.886 232.841 C 161.292 232.841,161.624 232.675,161.624 232.472 C 161.624 232.269,162.122 232.103,162.731 232.103 C 163.339 232.103,163.838 231.937,163.838 231.734 C 163.838 231.531,164.585 231.365,165.498 231.365 C 166.411 231.365,167.159 231.199,167.159 230.996 C 167.159 230.766,169.311 230.627,172.878 230.627 C 176.445 230.627,178.598 230.488,178.598 230.258 C 178.598 230.050,179.643 229.889,180.996 229.889 C 182.349 229.889,183.395 230.050,183.395 230.258 C 183.395 230.461,183.727 230.627,184.133 230.627 C 184.539 230.627,184.871 230.793,184.871 230.996 C 184.871 231.199,185.127 231.365,185.440 231.365 C 185.753 231.365,186.365 231.697,186.801 232.103 C 187.237 232.509,187.857 232.841,188.180 232.841 C 188.503 232.841,189.011 233.181,189.310 233.597 C 189.882 234.395,191.666 235.424,192.475 235.424 C 193.351 235.424,194.834 234.575,194.834 234.074 C 194.834 233.347,195.419 233.469,196.443 234.410 C 198.106 235.937,198.488 236.162,199.409 236.162 C 199.913 236.162,200.428 236.328,200.554 236.531 C 200.679 236.734,201.934 236.900,203.343 236.900 L 205.904 236.900 205.904 238.745 C 205.904 240.582,205.910 240.590,207.106 240.590 C 208.304 240.590,208.307 240.596,208.176 242.251 C 208.093 243.293,208.195 243.911,208.450 243.911 C 208.673 243.911,208.856 244.349,208.856 244.883 C 208.856 246.205,210.527 247.600,212.111 247.601 C 213.466 247.602,213.959 247.985,214.716 249.631 C 215.911 252.226,216.780 253.728,217.409 254.287 C 217.779 254.615,218.081 255.155,218.081 255.486 C 218.081 255.817,218.330 256.089,218.635 256.089 C 219.004 256.089,219.188 256.458,219.188 257.196 C 219.188 257.804,219.354 258.303,219.557 258.303 C 219.760 258.303,219.926 258.718,219.926 259.225 C 219.926 259.832,219.720 260.148,219.324 260.148 C 218.552 260.148,217.343 261.533,217.343 262.418 C 217.343 262.866,217.611 263.100,218.124 263.100 C 218.848 263.100,221.402 265.456,221.402 266.124 C 221.402 266.287,221.734 266.421,222.140 266.421 C 222.546 266.421,222.878 266.587,222.878 266.790 C 222.878 266.993,223.459 267.159,224.170 267.159 C 224.880 267.159,225.461 267.335,225.461 267.550 C 225.461 268.553,228.226 267.735,228.346 266.697 C 228.410 266.139,228.285 265.683,228.069 265.683 C 227.238 265.683,227.637 262.735,228.598 261.775 C 229.105 261.267,229.520 260.701,229.520 260.517 C 229.520 260.332,229.935 259.766,230.443 259.259 C 230.950 258.751,231.365 258.238,231.365 258.118 C 231.365 257.656,233.205 256.089,233.747 256.089 C 234.061 256.089,234.317 255.923,234.317 255.720 C 234.317 255.517,234.533 255.351,234.797 255.351 C 235.476 255.351,237.263 254.483,237.266 254.151 C 237.268 253.999,237.441 253.875,237.651 253.875 C 238.245 253.875,240.590 251.382,240.590 250.750 C 240.590 250.439,240.756 250.185,240.959 250.185 C 241.162 250.185,241.328 249.769,241.328 249.262 C 241.328 248.755,241.483 248.339,241.672 248.339 C 241.861 248.339,242.087 247.966,242.175 247.509 L 242.335 246.679 242.385 247.509 C 242.413 247.966,242.601 248.339,242.804 248.339 C 243.535 248.339,243.223 251.462,242.435 252.030 C 242.030 252.322,241.697 252.839,241.697 253.179 C 241.697 253.518,241.448 253.891,241.144 254.008 C 240.839 254.125,240.590 254.475,240.590 254.785 C 240.590 255.096,240.424 255.351,240.221 255.351 C 240.018 255.351,239.852 255.932,239.852 256.642 C 239.852 257.352,239.686 257.934,239.483 257.934 C 239.263 257.934,239.114 259.348,239.114 261.439 L 239.114 264.945 236.900 264.945 C 234.932 264.945,234.686 265.027,234.686 265.683 C 234.686 266.089,234.520 266.421,234.317 266.421 C 234.114 266.421,233.948 266.848,233.948 267.370 C 233.948 267.891,233.699 268.567,233.395 268.872 C 232.068 270.199,232.674 270.849,235.240 270.849 C 236.593 270.849,237.638 270.688,237.638 270.480 C 237.638 270.271,238.722 270.106,240.129 270.099 C 242.706 270.087,243.911 269.585,243.911 268.524 C 243.911 268.203,244.077 267.838,244.280 267.712 C 244.483 267.587,244.649 267.089,244.649 266.605 C 244.649 266.122,244.815 265.624,245.018 265.498 C 245.221 265.373,245.387 264.782,245.387 264.185 C 245.387 263.588,245.554 263.100,245.756 263.100 C 245.959 263.100,246.137 262.726,246.150 262.269 L 246.175 261.439 246.576 262.269 C 246.796 262.726,247.117 263.100,247.289 263.100 C 247.461 263.100,247.601 263.505,247.601 264.000 C 247.601 264.496,247.768 265.004,247.970 265.129 C 249.142 265.853,248.011 269.430,246.033 271.260 C 245.678 271.589,245.387 272.046,245.387 272.276 C 245.387 272.506,245.221 272.694,245.018 272.694 C 244.815 272.694,244.649 273.026,244.649 273.432 C 244.649 273.924,244.403 274.170,243.911 274.170 C 243.419 274.170,243.173 273.924,243.173 273.432 C 243.173 272.746,242.927 272.694,239.668 272.694 C 237.577 272.694,236.162 272.843,236.162 273.063 C 236.162 273.266,235.508 273.432,234.708 273.432 C 233.908 273.432,233.151 273.598,233.026 273.801 C 232.900 274.004,232.434 274.175,231.989 274.181 C 229.596 274.216,229.142 276.768,231.169 278.795 C 232.457 280.083,236.900 280.788,236.900 279.705 C 236.900 279.500,237.884 279.336,239.114 279.336 C 240.344 279.336,241.328 279.172,241.328 278.967 C 241.328 278.764,242.076 278.598,242.989 278.598 C 243.902 278.598,244.649 278.432,244.649 278.229 C 244.649 278.026,245.148 277.860,245.756 277.860 C 246.740 277.860,246.863 277.737,246.863 276.753 C 246.863 275.672,246.907 275.646,248.687 275.646 C 249.689 275.646,250.613 275.480,250.738 275.277 C 251.500 274.044,257.914 280.051,257.929 282.011 C 257.931 282.366,258.100 282.657,258.303 282.657 C 258.506 282.657,258.672 283.155,258.672 283.764 C 258.672 284.373,258.838 284.871,259.041 284.871 C 259.244 284.871,259.410 285.286,259.410 285.793 C 259.410 286.301,259.244 286.716,259.041 286.716 C 258.819 286.716,258.672 288.192,258.672 290.406 C 258.672 292.620,258.819 294.096,259.041 294.096 C 259.244 294.096,259.410 294.347,259.410 294.653 C 259.410 294.959,259.908 295.731,260.517 296.368 C 261.125 297.005,261.624 297.720,261.624 297.956 C 261.624 298.192,261.914 298.707,262.269 299.100 C 262.625 299.494,263.151 300.272,263.439 300.830 C 263.727 301.388,264.147 301.845,264.372 301.845 C 264.597 301.845,265.021 302.177,265.314 302.583 C 265.684 303.097,266.269 303.321,267.240 303.321 C 268.234 303.321,268.635 303.480,268.635 303.875 C 268.635 304.179,268.930 304.428,269.292 304.428 C 269.654 304.428,270.820 305.258,271.884 306.273 C 273.771 308.073,274.713 308.517,274.976 307.729 C 275.150 307.207,279.089 307.193,279.262 307.713 C 279.337 307.936,279.965 308.118,280.658 308.118 C 281.351 308.118,281.919 308.284,281.919 308.487 C 281.919 308.690,282.214 308.856,282.575 308.856 C 282.936 308.856,283.471 309.188,283.764 309.594 C 284.056 310.000,284.591 310.332,284.952 310.332 C 285.313 310.332,285.609 310.498,285.609 310.701 C 285.609 310.904,285.840 311.070,286.123 311.070 C 286.406 311.070,286.732 311.319,286.849 311.624 C 286.966 311.928,287.279 312.177,287.545 312.177 C 287.811 312.177,288.268 312.509,288.561 312.915 C 289.132 313.708,292.620 314.025,292.620 313.284 C 292.620 313.081,292.881 312.915,293.200 312.915 C 293.863 312.915,294.834 312.053,294.834 311.465 C 294.834 311.248,295.166 311.070,295.572 311.070 C 295.978 311.070,296.310 310.904,296.310 310.701 C 296.310 310.498,296.559 310.332,296.863 310.332 C 297.168 310.332,297.417 310.166,297.417 309.963 C 297.417 309.760,297.749 309.594,298.155 309.594 C 298.561 309.594,298.893 309.428,298.893 309.225 C 298.893 309.022,299.391 308.856,300.000 308.856 C 300.760 308.856,301.107 309.038,301.107 309.436 C 301.107 310.771,304.295 311.812,304.982 310.701 C 305.386 310.046,306.642 310.282,306.642 311.013 C 306.642 311.851,310.465 315.867,311.263 315.867 C 312.008 315.867,313.653 317.507,313.653 318.249 C 313.653 318.997,316.078 319.030,316.816 318.292 C 317.119 317.989,317.343 317.048,317.343 316.078 L 317.343 314.391 319.188 314.391 C 320.203 314.391,321.033 314.225,321.033 314.022 C 321.033 313.819,321.412 313.653,321.874 313.653 C 322.337 313.653,322.955 313.321,323.247 312.915 C 323.540 312.509,323.968 312.177,324.200 312.177 C 324.431 312.177,324.932 311.762,325.313 311.255 C 325.694 310.747,326.222 310.332,326.487 310.332 C 326.752 310.332,327.325 310.000,327.760 309.594 C 328.196 309.188,328.770 308.856,329.036 308.856 C 329.303 308.856,329.520 308.690,329.520 308.487 C 329.520 308.284,329.935 308.118,330.443 308.118 C 330.950 308.118,331.365 307.952,331.365 307.749 C 331.365 307.515,334.194 307.380,339.114 307.380 C 344.034 307.380,346.863 307.245,346.863 307.011 C 346.863 306.808,347.132 306.642,347.460 306.642 C 349.044 306.642,350.923 303.726,350.923 301.268 C 350.923 299.986,351.089 298.834,351.292 298.708 C 351.494 298.583,351.661 298.085,351.661 297.601 C 351.661 297.118,351.827 296.620,352.030 296.494 C 352.232 296.369,352.399 295.778,352.399 295.181 C 352.399 294.584,352.565 294.096,352.768 294.096 C 352.970 294.096,353.137 293.764,353.137 293.358 C 353.137 292.952,353.303 292.620,353.506 292.620 C 353.708 292.620,353.875 292.122,353.875 291.513 C 353.875 290.904,354.041 290.406,354.244 290.406 C 354.446 290.406,354.613 289.825,354.613 289.114 C 354.613 288.404,354.779 287.823,354.982 287.823 C 355.185 287.823,355.351 287.491,355.351 287.085 C 355.351 286.679,355.517 286.347,355.720 286.347 C 355.923 286.347,356.089 286.091,356.089 285.777 C 356.089 285.257,360.041 281.189,360.552 281.183 C 361.476 281.173,362.362 279.660,362.362 278.093 C 362.362 277.153,362.528 276.384,362.731 276.384 C 362.934 276.384,363.100 275.886,363.100 275.277 C 363.100 274.668,363.266 274.170,363.469 274.170 C 363.672 274.170,363.838 273.832,363.838 273.419 C 363.838 272.750,366.056 270.111,366.619 270.111 C 367.279 270.111,369.373 266.876,369.373 265.856 C 369.373 265.558,369.539 265.314,369.742 265.314 C 369.945 265.314,370.111 264.982,370.111 264.576 C 370.111 264.170,370.277 263.838,370.480 263.838 C 370.683 263.838,370.849 263.542,370.849 263.181 C 370.849 262.820,371.181 262.285,371.587 261.993 C 371.993 261.700,372.325 261.243,372.325 260.977 C 372.325 260.424,374.673 258.250,375.699 257.853 C 376.075 257.708,376.384 257.417,376.384 257.207 C 376.384 256.998,376.679 256.827,377.040 256.827 C 377.401 256.827,377.936 256.494,378.229 256.089 C 378.521 255.683,379.056 255.351,379.417 255.351 C 379.778 255.351,380.074 255.185,380.074 254.982 C 380.074 254.779,380.323 254.613,380.627 254.613 C 380.932 254.613,381.181 254.487,381.181 254.334 C 381.181 254.180,381.679 253.834,382.288 253.565 C 383.145 253.185,383.395 252.837,383.395 252.020 C 383.395 251.441,383.561 250.863,383.764 250.738 C 383.967 250.613,384.133 250.088,384.133 249.573 C 384.133 249.007,384.572 248.225,385.240 247.601 C 385.849 247.033,386.347 246.339,386.347 246.059 C 386.347 245.779,386.679 245.311,387.085 245.018 C 387.491 244.726,387.823 244.274,387.823 244.014 C 387.823 243.755,387.981 243.542,388.175 243.542 C 388.368 243.542,388.816 242.920,389.170 242.159 C 389.524 241.398,389.924 240.692,390.059 240.590 C 390.422 240.317,390.820 238.149,391.024 235.332 C 391.123 233.962,391.357 232.841,391.543 232.841 C 391.729 232.841,391.882 232.509,391.882 232.103 C 391.882 231.697,392.048 231.365,392.251 231.365 C 392.454 231.365,392.620 231.033,392.620 230.627 C 392.620 230.221,392.786 229.889,392.989 229.889 C 393.192 229.889,393.358 229.567,393.358 229.173 C 393.358 228.779,393.524 228.354,393.727 228.229 C 393.930 228.103,394.096 227.678,394.096 227.284 C 394.096 226.891,394.262 226.568,394.465 226.568 C 394.668 226.568,394.834 226.236,394.834 225.830 C 394.834 225.424,395.000 225.092,395.203 225.092 C 395.406 225.092,395.572 224.665,395.572 224.143 C 395.572 223.622,395.821 222.945,396.125 222.641 C 396.430 222.337,396.679 221.767,396.679 221.376 C 396.679 220.984,396.845 220.664,397.048 220.664 C 397.251 220.664,397.417 220.330,397.417 219.921 C 397.417 219.011,398.093 217.763,399.077 216.854 C 399.988 216.014,400.236 201.564,399.354 200.683 C 399.101 200.429,398.893 199.590,398.893 198.819 C 398.893 198.048,398.727 197.417,398.524 197.417 C 398.321 197.417,398.155 197.002,398.155 196.494 C 398.155 195.987,398.321 195.572,398.524 195.572 C 398.746 195.572,398.893 194.045,398.893 191.728 C 398.893 189.614,399.051 187.829,399.244 187.761 C 399.952 187.513,400.156 181.016,399.496 179.693 C 399.114 178.928,398.893 177.557,398.893 175.958 C 398.893 173.934,398.781 173.432,398.327 173.432 C 397.248 173.432,395.572 171.291,395.572 169.913 C 395.572 169.210,395.406 168.635,395.203 168.635 C 395.000 168.635,394.834 168.137,394.834 167.528 C 394.834 166.775,394.651 166.421,394.264 166.421 C 393.441 166.421,391.882 164.740,391.882 163.854 C 391.882 163.439,391.716 163.100,391.513 163.100 C 391.310 163.100,391.144 162.601,391.144 161.993 C 391.144 161.384,390.978 160.886,390.775 160.886 C 390.572 160.886,390.406 160.496,390.406 160.020 C 390.406 159.040,389.363 157.934,388.440 157.934 C 388.100 157.934,387.823 157.768,387.823 157.565 C 387.823 157.362,387.325 157.196,386.716 157.196 C 386.063 157.196,385.609 157.002,385.609 156.724 C 385.609 156.464,385.277 156.012,384.871 155.720 C 384.465 155.427,384.133 154.975,384.133 154.716 C 384.133 154.456,383.967 154.244,383.764 154.244 C 383.561 154.244,383.395 154.055,383.395 153.826 C 383.395 153.596,383.104 153.137,382.749 152.807 C 381.343 151.499,381.181 150.677,381.181 144.865 C 381.181 140.292,381.072 139.058,380.627 138.614 C 380.323 138.309,380.074 137.799,380.074 137.480 C 380.074 136.641,378.529 136.750,377.554 137.659 C 376.665 138.487,375.646 137.998,375.646 136.742 C 375.646 136.423,375.480 136.162,375.277 136.162 C 375.074 136.162,374.908 135.830,374.908 135.424 C 374.908 134.287,372.589 134.410,371.294 135.617 L 370.295 136.548 370.178 135.617 C 370.114 135.105,369.907 134.686,369.717 134.686 C 369.528 134.686,369.373 133.109,369.373 131.181 C 369.373 129.090,369.224 127.675,369.004 127.675 C 368.801 127.675,368.635 127.343,368.635 126.937 C 368.635 126.531,368.469 126.199,368.266 126.199 C 368.063 126.199,367.897 125.701,367.897 125.092 C 367.897 124.483,367.731 123.985,367.528 123.985 C 367.325 123.985,367.159 123.647,367.159 123.234 C 367.159 122.821,366.825 122.115,366.417 121.666 C 366.009 121.216,364.984 120.101,364.139 119.188 L 362.603 117.528 363.589 117.411 C 364.591 117.292,365.184 114.391,364.207 114.391 C 364.004 114.391,363.838 114.059,363.838 113.653 C 363.838 113.247,363.672 112.915,363.469 112.915 C 363.266 112.915,363.100 112.583,363.100 112.177 C 363.100 111.758,362.854 111.439,362.530 111.439 C 362.217 111.439,361.513 111.024,360.966 110.517 C 360.418 110.009,359.715 109.594,359.403 109.594 C 359.090 109.594,358.595 109.262,358.303 108.856 C 358.010 108.450,357.558 108.118,357.299 108.118 C 357.039 108.118,356.827 107.952,356.827 107.749 C 356.827 107.546,356.566 107.380,356.247 107.380 C 355.571 107.380,354.613 106.514,354.613 105.904 C 354.613 105.294,353.654 104.428,352.978 104.428 C 352.659 104.428,352.399 104.594,352.399 104.797 C 352.399 105.000,352.232 105.166,352.030 105.166 C 351.827 105.166,351.661 104.724,351.661 104.183 C 351.661 101.849,350.553 100.369,348.807 100.369 C 347.712 100.369,346.950 100.134,346.409 99.631 C 345.974 99.225,345.233 98.893,344.764 98.893 C 344.295 98.893,343.911 98.727,343.911 98.524 C 343.911 98.321,343.496 98.155,342.989 98.155 C 342.482 98.155,342.066 97.989,342.066 97.786 C 342.066 97.583,341.805 97.417,341.487 97.417 C 340.750 97.417,339.852 96.532,339.852 95.805 C 339.852 95.498,339.686 95.144,339.483 95.018 C 339.280 94.893,339.114 93.638,339.114 92.229 C 339.114 90.147,339.006 89.668,338.535 89.668 C 337.221 89.668,336.195 86.826,337.269 86.162 C 337.794 85.838,337.757 77.223,337.230 77.047 C 336.974 76.962,336.829 75.783,336.842 73.880 L 336.862 70.849 335.791 70.849 C 334.266 70.849,332.841 70.107,332.841 69.313 C 332.841 68.940,332.675 68.635,332.472 68.635 C 332.267 68.635,332.103 67.651,332.103 66.421 C 332.103 65.191,331.939 64.207,331.734 64.207 C 331.517 64.207,331.365 62.915,331.365 61.070 C 331.365 59.225,331.213 57.934,330.996 57.934 C 330.779 57.934,330.627 56.642,330.627 54.797 C 330.627 52.952,330.779 51.661,330.996 51.661 C 331.701 51.661,331.384 49.622,330.593 49.067 C 329.848 48.543,329.364 48.159,327.702 46.771 C 327.277 46.416,326.682 46.125,326.380 46.125 C 326.077 46.125,325.830 45.908,325.830 45.642 C 325.830 45.375,325.498 44.801,325.092 44.365 C 324.686 43.930,324.354 43.317,324.354 43.004 C 324.354 42.691,324.188 42.435,323.985 42.435 C 323.782 42.435,323.616 42.121,323.616 41.737 C 323.616 40.529,319.762 39.996,319.322 41.144 C 319.202 41.456,318.653 41.697,318.063 41.697 C 317.488 41.697,316.915 41.863,316.790 42.066 C 316.130 43.133,314.391 41.948,314.391 40.432 C 314.391 39.910,314.225 39.483,314.022 39.483 C 313.819 39.483,313.653 38.663,313.653 37.660 C 313.653 36.657,313.487 35.734,313.284 35.609 C 313.069 35.476,312.915 33.416,312.915 30.679 C 312.915 28.094,312.757 25.820,312.564 25.627 C 312.371 25.433,312.169 24.634,312.117 23.851 C 312.064 23.067,311.807 22.344,311.545 22.244 C 311.284 22.143,311.070 21.822,311.070 21.530 C 311.070 20.824,309.407 19.188,308.688 19.188 C 307.907 19.188,307.973 18.575,308.856 17.627 C 310.369 16.003,309.535 13.653,307.446 13.653 C 306.047 13.653,305.904 13.239,305.904 9.195 C 305.904 7.247,305.753 5.904,305.535 5.904 C 305.332 5.904,305.166 5.406,305.166 4.797 C 305.166 4.188,305.000 3.690,304.797 3.690 C 304.594 3.690,304.428 3.436,304.428 3.125 C 304.428 2.814,304.179 2.464,303.875 2.347 C 303.570 2.231,303.321 1.758,303.321 1.298 C 303.321 0.417,302.238 0.000,299.954 0.000 C 299.068 0.000,298.893 0.152,298.893 0.923 M292.343 320.478 C 292.089 320.766,291.882 321.258,291.882 321.571 C 291.882 321.884,291.716 322.140,291.513 322.140 C 290.954 322.140,291.079 327.005,291.658 327.768 C 292.191 328.470,293.546 328.636,293.911 328.044 C 294.037 327.841,294.462 327.675,294.856 327.675 C 295.788 327.675,295.953 321.361,295.045 320.453 C 294.375 319.784,292.943 319.797,292.343 320.478 M326.199 325.646 C 326.199 325.956,325.870 326.199,325.450 326.199 C 324.511 326.199,324.101 327.186,324.665 328.088 C 324.900 328.464,325.092 329.024,325.092 329.331 C 325.092 329.638,325.341 329.889,325.646 329.889 C 326.015 329.889,326.199 330.258,326.199 330.996 C 326.199 331.605,326.365 332.103,326.568 332.103 C 326.771 332.103,326.937 332.435,326.937 332.841 C 326.937 333.758,329.968 333.922,330.838 333.052 C 331.688 332.202,331.541 328.703,330.627 328.044 C 330.221 327.752,329.889 327.278,329.889 326.991 C 329.889 326.705,329.532 326.160,329.095 325.781 C 328.123 324.938,326.199 324.848,326.199 325.646 M297.417 333.395 C 297.417 334.105,297.251 334.686,297.048 334.686 C 296.827 334.686,296.679 336.155,296.679 338.355 C 296.679 340.402,296.842 342.124,297.048 342.251 C 297.251 342.376,297.417 342.967,297.417 343.564 C 297.417 344.161,297.583 344.649,297.786 344.649 C 297.989 344.649,298.155 345.111,298.155 345.675 C 298.155 346.277,298.460 346.920,298.893 347.232 C 299.567 347.719,299.631 348.188,299.631 352.682 C 299.631 356.845,299.744 357.835,300.369 359.128 C 300.775 359.968,301.107 360.797,301.107 360.970 C 301.107 361.311,301.555 361.915,302.860 363.336 C 303.316 363.833,303.690 364.565,303.690 364.961 C 303.690 365.358,303.856 365.683,304.059 365.683 C 304.262 365.683,304.428 366.181,304.428 366.790 L 304.428 367.897 306.642 367.897 C 308.364 367.897,308.856 368.020,308.856 368.450 C 308.856 368.874,309.325 369.004,310.859 369.004 C 312.148 369.004,313.060 368.806,313.416 368.450 C 313.720 368.146,314.604 367.891,315.380 367.885 C 317.394 367.868,318.081 367.213,318.081 365.308 L 318.081 363.723 318.923 364.703 C 319.587 365.475,320.094 365.683,321.322 365.683 L 322.878 365.683 322.878 363.442 C 322.878 361.138,323.370 360.148,324.512 360.148 C 324.969 360.148,325.092 359.717,325.092 358.118 C 325.092 356.560,325.221 356.089,325.646 356.089 C 325.950 356.089,326.199 356.255,326.199 356.458 C 326.199 357.053,327.207 356.880,327.451 356.243 C 327.574 355.922,327.675 355.009,327.675 354.213 C 327.675 353.418,327.841 352.768,328.044 352.768 C 328.260 352.768,328.413 351.538,328.413 349.815 C 328.413 348.093,328.567 346.863,328.782 346.863 C 328.987 346.863,329.151 345.887,329.151 344.671 C 329.151 343.465,329.317 342.376,329.520 342.251 C 330.316 341.759,329.576 337.650,328.690 337.641 C 328.538 337.640,328.413 337.306,328.413 336.900 C 328.413 336.326,328.167 336.162,327.306 336.162 C 326.697 336.162,326.199 336.328,326.199 336.531 C 326.199 336.734,325.452 336.900,324.539 336.900 C 323.625 336.900,322.878 337.066,322.878 337.269 C 322.878 337.477,321.840 337.638,320.501 337.638 C 319.194 337.638,318.022 337.804,317.897 338.007 C 317.771 338.210,316.765 338.376,315.661 338.376 C 314.557 338.376,313.653 338.542,313.653 338.745 C 313.653 338.948,313.072 339.114,312.362 339.114 C 311.651 339.114,311.070 338.948,311.070 338.745 C 311.070 338.542,310.775 338.376,310.414 338.376 C 310.052 338.376,309.518 338.044,309.225 337.638 C 308.933 337.232,308.434 336.900,308.118 336.900 C 307.802 336.900,307.304 336.568,307.011 336.162 C 306.719 335.756,306.184 335.424,305.823 335.424 C 305.461 335.424,305.166 335.258,305.166 335.055 C 305.166 334.852,304.751 334.686,304.244 334.686 C 303.736 334.686,303.321 334.520,303.321 334.317 C 303.321 334.114,302.894 333.948,302.372 333.948 C 301.850 333.948,301.192 333.741,300.909 333.487 C 299.574 332.290,299.230 332.103,298.355 332.103 C 297.529 332.103,297.417 332.258,297.417 333.395 " stroke="none" fill="#fcd014" fill-rule="evenodd"></path></g></svg>