<svg xmlns="http://www.w3.org/2000/svg" viewBox="0 0 367.83 249.05"><defs><style>.cls-1{fill:#71809a;}.cls-2{fill:#3979b8;}.cls-3{fill:#2a4f7b;}.cls-4{fill:#797978;}.cls-5{fill:#0e1b3d;}.cls-6{fill:#39659c;}.cls-7{fill:#89b0c4;}.cls-8{fill:#bfc3bb;}.cls-9{fill:#7a8189;}.cls-10{fill:#cfd7db;}.cls-11{fill:#4885ae;}</style></defs><title>buildings</title><g id="Layer_2" data-name="Layer 2"><g id="Buildings"><g id="_Group_" data-name="&lt;Group&gt;"><rect id="_Path_" data-name="&lt;Path&gt;" class="cls-1" x="185.68" y="6.91" width="31.5" height="98.41"/><path id="_Path_2" data-name="&lt;Path&gt;" class="cls-2" d="M69.75,249,71.3,101.42l14.34-20.7L82.23,45.28c-4.1-1-3.45-19.83-3.45-19.83H66.46c-6.19,29.47-34.92,45.4-34.92,45.4V249Z"/><polygon id="_Path_3" data-name="&lt;Path&gt;" class="cls-3" points="117.84 249.05 117.84 101.42 121.26 101.42 121.26 39.38 71.3 101.42 70.12 249.05 117.84 249.05"/><polygon id="_Path_4" data-name="&lt;Path&gt;" class="cls-3" points="70.12 249.05 71.3 101.42 69.75 249.05 70.12 249.05"/><polygon id="_Path_5" data-name="&lt;Path&gt;" class="cls-4" points="131.5 249.05 131.5 117.14 137.02 117.14 137.02 101.42 121.26 101.42 121.26 249.05 131.5 249.05"/><rect id="_Path_6" data-name="&lt;Path&gt;" class="cls-4" x="117.84" y="101.42" width="3.41" height="147.63"/><polygon id="_Path_7" data-name="&lt;Path&gt;" class="cls-5" points="155.48 249.05 155.48 127.96 155.48 117.14 137.02 117.14 137.02 249.05 155.48 249.05"/><rect id="_Path_8" data-name="&lt;Path&gt;" class="cls-5" x="131.5" y="117.14" width="5.53" height="131.9"/><rect id="_Path_9" data-name="&lt;Path&gt;" class="cls-6" x="155.48" y="127.96" width="16.47" height="121.09"/><polygon id="_Path_10" data-name="&lt;Path&gt;" class="cls-1" points="176.74 249.05 230.88 249.05 230.88 25.45 171.95 25.45 171.95 127.96 176.74 127.96 176.74 249.05"/><rect id="_Path_11" data-name="&lt;Path&gt;" class="cls-1" x="171.95" y="127.96" width="4.79" height="121.09"/><polygon id="_Path_12" data-name="&lt;Path&gt;" class="cls-7" points="293.19 249.05 293.19 136.78 293.19 0 230.88 0 230.88 25.45 230.88 249.05 293.19 249.05"/><polygon id="_Path_13" data-name="&lt;Path&gt;" class="cls-8" points="308.27 249.05 308.27 155.48 308.27 136.78 293.19 136.78 293.19 249.05 308.27 249.05"/><polygon id="_Path_14" data-name="&lt;Path&gt;" class="cls-9" points="351.44 249.05 351.44 192.92 351.44 155.48 308.27 155.48 308.27 249.05 351.44 249.05"/><rect id="_Path_15" data-name="&lt;Path&gt;" class="cls-10" x="351.44" y="192.92" width="16.38" height="56.13"/><polygon id="_Path_16" data-name="&lt;Path&gt;" class="cls-11" points="31.54 70.85 31.54 13.78 0 13.78 0 249.05 31.54 249.05 31.54 70.85"/></g></g></g></svg>