<svg xmlns="http://www.w3.org/2000/svg" viewBox="0 0 276.49 130.93"><defs><style>.cls-1{fill:#00488f;}.cls-2{fill:#fff;}.cls-3{fill:#fd0000;}</style></defs><title>ausflag</title><g id="Layer_2" data-name="Layer 2"><g id="Flag"><rect class="cls-1" width="276.49" height="130.93"/><polygon class="cls-2" points="0 68.25 14.81 68.25 128.85 7.66 128.85 0 115.39 0 0 60.96 0 68.25"/><polygon class="cls-2" points="14.14 0 0 0 0 7.29 114.73 68.25 128.85 68.25 128.85 60.59 14.14 0"/><polygon class="cls-3" points="0 67.99 0 68.25 8.92 68.25 62.05 40.26 57.28 37.72 0 67.99"/><polygon class="cls-3" points="119.03 0 66.58 27.7 71.38 30.23 128.78 0 119.03 0"/><polygon class="cls-3" points="0 5.4 33.71 23.38 44.57 23.38 0.31 0 0 0 0 5.4"/><polygon class="cls-3" points="128.85 62.51 95.47 44.87 85.76 44.87 128.85 67.62 128.85 62.51"/><polygon class="cls-2" points="128.85 23.38 75.28 23.38 75.28 0 53.57 0 53.57 23.38 0 23.38 0 44.87 53.57 44.87 53.57 68.25 75.28 68.25 75.28 44.87 128.85 44.87 128.85 23.38"/><rect class="cls-3" y="27.41" width="128.85" height="13.43"/><rect class="cls-3" x="58.47" width="11.91" height="68.26"/><polygon class="cls-2" points="67.77 82.61 71.52 96.45 84.69 90.75 76.21 102.32 88.87 109.06 74.54 109.64 77.16 123.75 67.77 112.91 58.38 123.75 61.01 109.64 46.67 109.06 59.33 102.32 50.85 90.75 64.01 96.45 67.77 82.61"/><polygon class="cls-2" points="163.9 31.21 166.04 39.09 173.54 35.84 168.71 42.43 175.91 46.27 167.75 46.6 169.25 54.63 163.9 48.46 158.56 54.63 160.04 46.6 151.88 46.27 159.09 42.43 154.27 35.84 161.76 39.09 163.9 31.21"/><polygon class="cls-2" points="199.25 98.28 201.38 106.16 208.88 102.92 204.05 109.51 211.26 113.34 203.09 113.68 204.59 121.7 199.25 115.53 193.9 121.7 195.39 113.68 187.23 113.34 194.43 109.51 189.61 102.92 197.1 106.16 199.25 98.28"/><polygon class="cls-2" points="198.58 5.07 200.71 12.96 208.21 9.71 203.38 16.3 210.59 20.14 202.43 20.47 203.92 28.5 198.58 22.33 193.23 28.5 194.72 20.47 186.56 20.14 193.77 16.3 188.94 9.71 196.44 12.96 198.58 5.07"/><polygon class="cls-2" points="236.78 25.13 238.92 33.02 246.42 29.77 241.59 36.36 248.79 40.2 240.64 40.53 242.13 48.56 236.78 42.39 231.43 48.56 232.93 40.53 224.77 40.2 231.98 36.36 227.14 29.77 234.64 33.02 236.78 25.13"/><polygon class="cls-2" points="211.81 61.99 213.74 67.53 219.6 67.65 214.93 71.19 216.63 76.81 211.81 73.46 207 76.81 208.69 71.19 204.02 67.65 209.88 67.53 211.81 61.99"/></g></g></svg>