<svg xmlns="http://www.w3.org/2000/svg" viewBox="0 0 237.03 196.57"><defs><style>.cls-1{fill:#fff;}</style></defs><title>Bird3</title><g id="Layer_2" data-name="Layer 2"><g id="Layer_1-2" data-name="Layer 1"><path class="cls-1" d="M17.09,80.82s10.08,14.93,25.4,12.32c0,0-22.78-16.42-23.9-25s1.12-9-1.14-8.59-4.09,1.11-3.73,3.36c0,0-12.69-16.43-13.07-30.64,0,0-4.49,8.6,10.08,40.34,0,0,.38,3.37-1.12,5.23s-3,4.11-2.23,6.36S11.86,92,16,92.4Z"/><path class="cls-1" d="M230.68,191.34c-4.49-3-39.58-39.58-40.69-47.79s-1.88-7.84-4.49-8.58-2.61,6-4.49,3.73-19.79-7.08-32.86-13.44-16.8-11.19-16.8-11.19c22.78,37,47.42,36.59,46.3,38.09s-7.1,1.49-7.1,1.49c-1.11,17.56,26.89,26.51,24.28,23.16s-.75-8.6-.75-8.6C204.91,183.51,237,196.57,237,196.57A31.52,31.52,0,0,0,230.68,191.34Z"/><path class="cls-1" d="M159.4,58.13s5.61-3.36-4.11-3S93.69,51,93.69,51s-6-7.1-6.36-8.22-2.61-15.32-7.84-6c0,0-7.46-13.82-7.46-16.06S70.53,6.22,72,1.74,62.69,1,68.29,18.17s6.35,26.89,6.35,26.89,0,16.79,2.24,20.53S69,73.81,69,73.81,81.36,89.11,85.47,91.72s16.8.38,19.41-.73-9.34-8.22-11.57-16.06c0,0-1.5-6.72,0-6.72S141.84,74.19,159.4,58.13Z"/></g></g></svg>