<svg xmlns="http://www.w3.org/2000/svg" viewBox="0 0 255.39 227.81"><defs><style>.cls-1{fill:#fff;}</style></defs><title>Bird1</title><g id="Layer_2" data-name="Layer 2"><g id="Layer_1-2" data-name="Layer 1"><path class="cls-1" d="M41.25,185.57c-.79-1.94-3.92-1.56-3.92-1.56l-3.13,2.34s-.77-5.47-13.68-9S.17,162.5.17,162.5c-2.73,17.59,28.16,34.82,28.16,37.15s-7.43,9-8.61,8.6-14.46,5.09-13.29,5.48,18.77.4,21.11,1.19,4.69,5.47,4.32,2.72a18.05,18.05,0,0,1,.38-6.64c.4-2,4.32-5.88,4.32-5.88,2.73,12.93,21.51,22.7,21.51,22.7-3.92-11-14.08-32.08-15.25-33.63S42,187.53,41.25,185.57Z"/><path class="cls-1" d="M208.35,40.32a15.35,15.35,0,0,1-4.49,2.62s3.35,7.48,7.1,9.33,9.32,4.11,11.95,3.37-8.59-8.6-5.6-12.32,3.73,1.5,8.58,3,23.9.38,29.5-4.09c0,0-26.14,0-39.58-14.58,0,0-.76-4.85-2.61-6s-4.11,1.49-3.37,3c0,0-14.92-9.71-15.68-24.64,0,0-7.84,3.72,13.44,34.36C207.59,34.36,209.83,38.82,208.35,40.32Z"/><path class="cls-1" d="M115,61.38c6.64.39,5.86,4.3,5.86,4.3-2.36.79-1.57,3.12-.4,8.61S133,82.5,133,82.5a43.45,43.45,0,0,1-2.73-6.64c-.39-2,0-9,0-9s2.73,3.13,3.9,4.71,1.56,13.69,1.56,13.69,1.57,1.56,2.36.37,3.52-30.1-1.57-30.1-8.61-1.56-8.61-3.9a8.72,8.72,0,0,0-3.5-6.66c-2-1.19-2.36,3.11-3.92,2.73s3.92-5.47-13.69,0S89.21,60.61,91.57,62.17,108.38,61,115,61.38Z"/><path class="cls-1" d="M138.68,156.36s-10.83-8.2-4.49-8.2S145,163.1,145.4,166.83s5.61,1.87,3.35-12.71S145,137,136.44,136.59a5.9,5.9,0,0,1-2.25-6.36c1.11-4.09-3.73-3.73-4.47-.74s-3,3.35-4.87-1.88-24.64,6.74-25.76,12,6.73.36,7.84.72c0,0,13.45-1.48,15.68,1.13s-3,7.46-5.61,7.84,6,9.34,10.45,9.71S138.68,156.36,138.68,156.36Z"/></g></g></svg>