<svg xmlns="http://www.w3.org/2000/svg" viewBox="0 0 218.84 256.06"><defs><style>.cls-1{fill:#fff;}</style></defs><title>Bird2</title><g id="Layer_2" data-name="Layer 2"><g id="Layer_1-2" data-name="Layer 1"><path class="cls-1" d="M218.76,146.7c-1.5,0-28-2.23-34-7.84s-7.84-26.13-7.84-26.13c-4.85,1.1-3,7.08,1.14,17.92s-1.5,14.18-1.5,14.18c1.86,19.05,20.17,12.32,17.18,10.83s-5.61-7.1-5.61-7.1C197.48,155.66,220.26,146.7,218.76,146.7Z"/><path class="cls-1" d="M93.29,134c-3.35-1.51-2.61,1.86-2.61,1.86,3.73,22.78,17.93,15.3,17.93,15.3-3.37,0-7.1-7.46-7.1-7.46,1.87.38,25.77-10.45,24.65-12.31s-25.77,4.85-25.77,4.85c-2.24-1.87,4.49-20.55,4.49-20.55C90.31,123.55,96.66,135.5,93.29,134Z"/><path class="cls-1" d="M40.44,39.61l-8.6.74s1.12,4.49,4.85,6.36-1.48,17.54,2.63,23.14L38.56,74l-7.1,3.73S36.32,93,43,96.37,62.08,94.89,64,93s-9.71-14.56-9.71-14.56l-.36-6s8.58.38,11.19-1.48,4.11-1.51,4.11-1.51,16.44,13.44,17.56,15,4.49.72,6,1.48,8.6-9.69-9.7-27.63c0,0-8.22-9.71-11.59-9.71S61,52.31,58.35,52.31s-2.24-13.06-2.24-13.06-5.23-13.82-9-15.32S3.83,20.58.86,17.58.86,30.27,40.44,39.61Z"/><path class="cls-1" d="M132.87,251.69c-10.57-3.13-35.61-30.13-35.61-30.13s1.57-3.52-.38-6.25-5.48.37-5.48,1.56-3.13,1.94-3.13,1.94c-10.16-.38-44.19-13.68-44.19-13.68,5.07,21.13,41.85,29,41.85,29-1.57-.39-9,3.92-10.56,6.64s8.2,9,8.2,9,1.18-4.69,2.36-3.52,2.73,8.22,2.73,8.22c2.73,3.9,16.81-.39,16.81-.39a21.8,21.8,0,0,1-7-14.08C104.7,258.72,143.42,254.82,132.87,251.69Z"/><path class="cls-1" d="M134.47,55.84s.36-2.62,4.47-1.5,31.38-1.5,50.79-13.44c0,0-35.85-4.47-51.53.38,0,0,11.19-38.1,13.45-38.84s-1.5-6.72-9,3.35-16.8,22-18.67,30.64c0,0-3-3-3.73-4.86s-5.23-.37-4.11,4.1-1.86,10.45,4.49,19.05c0,0-4.11,4.09-6,2.62,0,0,14.92,18.67,18.29,19.78s11.19,1.49,15.68-7.48C148.65,69.65,134.47,61.07,134.47,55.84Z"/><path class="cls-1" d="M197,180.89c-3.13-1.56-11.33,1.56-13.68,2s-2-3.13-2-3.13-.77-9.39-.77-10.56-6.66,3.51-5.49,9.77-4.3,5.09-1.94,11l-7,.77s3.13,17.61,18.78,12.93c0,0-6.26-7.84-4.3-9.8s12.12-3.51,13.29-2.34,11.74,5.47,14.87,4.7S200.13,182.45,197,180.89Z"/></g></g></svg>