<svg xmlns="http://www.w3.org/2000/svg" viewBox="0 0 226.81 156.72"><defs><style>.cls-1{fill:#fff;}</style></defs><title>Bird4</title><g id="Layer_2" data-name="Layer 2"><g id="Layer_1-2" data-name="Layer 1"><path class="cls-1" d="M187.27,57.75s3.94-1.76,5.51-4.4c1.05-1.46,5.77-1.46,5.77-1.46l-5-1.46s-2.36-5-10.75-1.17c-.26-.3-3.41,3.81-12.33-5S160.78,22,159.73,17,136.13,3.51,96,0c.26.58-6.82,2.93,31.21,14.95.78.88,19.14,22,23.34,37.53,1,2.63,3.67,10.84-.79,14.95-1.84,2-17.83,7.62-17.83,7.62s.79,6.74,7.34,6.74c1.05,0,3.41,5.87,7.87.89,4.2-3.52,10.75-9.39,14.68-9.39s9.7.3,13.11-2.34C176,73,192.77,73.28,204.84,92.63c1.32,2.34,11.8,21.69,18.62,37.52,0,.29,5.25,3.51,2.63-22.87-1.84-14.65-6.82-31.66-11.8-36.06C211.66,71.23,186.22,68,187.27,57.75Z"/><path class="cls-1" d="M31.15,99.47S28,98.09,26.81,96c-.82-1.15-4.54-1.15-4.54-1.15l3.92-1.16s1.86-3.92,8.47-.92c.21-.23,2.68,3,9.71-3.93S52,71.31,52.84,67.38,71.43,56.76,103,54c-.21.46,5.37,2.31-24.58,11.78-.62.69-15.08,17.32-18.38,29.55-.83,2.08-2.89,8.54.62,11.77,1.44,1.62,14,6,14,6s-.62,5.31-5.79,5.31c-.82,0-2.68,4.62-6.2.69-3.3-2.77-8.47-7.39-11.57-7.39s-7.64.23-10.33-1.85c-.83,1.62-14,1.85-23.55,17.09C16.28,128.8,8,144,2.64,156.5c0,.24-4.13,2.77-2.07-18C2,127,5.95,113.56,9.87,110.1,11.94,110.1,32,107.56,31.15,99.47Z"/></g></g></svg>