<svg xmlns="http://www.w3.org/2000/svg" viewBox="0 0 386.74 279.17"><defs><style>.cls-1{fill:#a58311;}.cls-2{fill:#475f27;}.cls-3{fill:#604d2e;}.cls-4{fill:#bfcdb2;}.cls-5{fill:#71a21a;}</style></defs><title>branch</title><g id="Layer_2" data-name="Layer 2"><g id="Animals"><path class="cls-1" d="M144.18,61.26s18.38,15.56,31.11,14.14a32.33,32.33,0,0,1,27.58,16.26s-.71-14.85-17.68-19.09c0,0-31.82-6.36-35.36-14.14Z"/><path class="cls-2" d="M347.83,279.05s-43.13,7.78-107.48-101.82c0,0-43.13-60.1-38.89-89.8,0,0-4.95-9.19-13.44-13.44,0,0,40.31-24.75,76.37,42.43C264.39,116.42,306.11,248.64,347.83,279.05Z"/><path class="cls-3" d="M296.21,8.23S151.56,65.61,130.85,65c0,0-104.95-1.48-128.07,41.51L0,95.13S25.89,66.41,80.18,61.78c0,0,77.12-1.92,105.06-15.66C185.24,46.12,286.27,8.95,296.21,8.23Z"/><path class="cls-4" d="M295.5,13.18S349.24,40,356.31,123.49c0,0,9.19.71,13.44,55.86,0,0,14.85-228.4-79.2-169.71Z"/><path class="cls-5" d="M370.44,161.65s17,72.14,16.28,84.16C386.72,245.82,363.35,180,370.44,161.65Z"/></g></g></svg>