<svg xmlns="http://www.w3.org/2000/svg" viewBox="0 0 1054.34 302.16"><defs><style>.cls-1{fill:#5f6161;}.cls-2{fill:#746d68;}.cls-3{fill:#727778;}.cls-4{fill:#2b3329;}.cls-5{fill:#b6b4b3;}.cls-6{fill:#cbc4b4;}.cls-7{fill:#9f9e97;}.cls-8{fill:#a29780;}.cls-9{fill:#535654;}.cls-10{fill:#ae9f8b;}</style></defs><title>bridge</title><g id="Layer_2" data-name="Layer 2"><g id="Buildings"><g id="_Group_" data-name="&lt;Group&gt;"><g id="_Group_2" data-name="&lt;Group&gt;"><rect id="_Path_" data-name="&lt;Path&gt;" class="cls-1" x="957.71" y="140.59" width="30.74" height="8.51"/><polygon id="_Path_2" data-name="&lt;Path&gt;" class="cls-2" points="957.71 140.59 953.68 141.91 953.68 149.1 958.81 150.2 957.71 140.59"/><polygon id="_Path_3" data-name="&lt;Path&gt;" class="cls-1" points="945.23 171.24 948.99 149.1 955.64 147.4 953.68 171.33 945.23 171.24"/><polygon id="_Path_4" data-name="&lt;Path&gt;" class="cls-3" points="955.64 147.4 993.27 147.4 996.91 171.24 953.68 171.33 955.64 147.4"/><polygon id="_Path_5" data-name="&lt;Path&gt;" class="cls-3" points="1001.08 269.82 1001.08 234.42 1001.08 171.33 953.68 171.33 953.68 269.82 1001.08 269.82"/><rect id="_Path_6" data-name="&lt;Path&gt;" class="cls-1" x="942.43" y="171.33" width="11.25" height="98.49"/><path id="_Path_7" data-name="&lt;Path&gt;" class="cls-4" d="M982.91,188.67c0-2.43-2.38-4.33-5.39-4.33h-1.75c-3.06,0-5.43,1.89-5.43,4.33V205.9h12.57Z"/><rect id="_Path_8" data-name="&lt;Path&gt;" class="cls-5" x="967.27" y="209.75" width="4.18" height="4.71"/><rect id="_Path_9" data-name="&lt;Path&gt;" class="cls-5" x="983.33" y="209.75" width="4.07" height="4.71"/><rect id="_Path_10" data-name="&lt;Path&gt;" class="cls-6" x="966.22" y="205.9" width="22.29" height="6.12"/><path id="_Path_11" data-name="&lt;Path&gt;" class="cls-7" d="M975.4,237.17a1,1,0,0,1-1,1h0a.94.94,0,0,1-1-1v-16.7a1,1,0,0,1,1-1h0a1,1,0,0,1,1,1Z"/><path id="_Path_12" data-name="&lt;Path&gt;" class="cls-7" d="M981.43,237.17a1,1,0,0,1-1,1h0a1,1,0,0,1-1-1v-16.7a1,1,0,0,1,1-1h0a1,1,0,0,1,1,1Z"/><polygon id="_Path_13" data-name="&lt;Path&gt;" class="cls-3" points="1009.22 269.82 1002.3 234.42 1001.08 234.42 1001.08 269.82 1009.22 269.82"/></g><g id="_Group_3" data-name="&lt;Group&gt;"><rect id="_Path_14" data-name="&lt;Path&gt;" class="cls-1" x="21.61" y="74.17" width="43.33" height="12.1"/><polygon id="_Path_15" data-name="&lt;Path&gt;" class="cls-2" points="21.61 74.17 15.8 76.08 15.8 86.27 23.14 87.75 21.61 74.17"/><polygon id="_Path_16" data-name="&lt;Path&gt;" class="cls-1" points="3.85 117.55 9.24 86.27 18.7 83.89 15.8 117.55 3.85 117.55"/><polygon id="_Path_17" data-name="&lt;Path&gt;" class="cls-3" points="18.7 83.89 71.75 83.89 76.82 117.55 15.8 117.55 18.7 83.89"/><polygon id="_Path_18" data-name="&lt;Path&gt;" class="cls-3" points="82.84 283.46 82.84 206.79 82.84 117.55 15.8 117.55 15.8 302.16 82.84 283.46"/><rect id="_Path_19" data-name="&lt;Path&gt;" class="cls-1" y="117.55" width="15.8" height="184.6"/><path id="_Path_20" data-name="&lt;Path&gt;" class="cls-4" d="M57.17,142.06c0-3.38-3.43-6.12-7.61-6.12H47c-4.23,0-7.62,2.75-7.62,6.12v24.36H57.17Z"/><rect id="_Path_21" data-name="&lt;Path&gt;" class="cls-5" x="35.03" y="171.97" width="5.92" height="6.55"/><rect id="_Path_22" data-name="&lt;Path&gt;" class="cls-5" x="57.7" y="171.97" width="5.81" height="6.55"/><rect id="_Path_23" data-name="&lt;Path&gt;" class="cls-6" x="33.49" y="166.42" width="31.5" height="8.67"/><path id="_Path_24" data-name="&lt;Path&gt;" class="cls-7" d="M46.5,210.7A1.47,1.47,0,0,1,45,212.13h0a1.49,1.49,0,0,1-1.43-1.43V187.08A1.53,1.53,0,0,1,45,185.66h0a1.5,1.5,0,0,1,1.48,1.42Z"/><path id="_Path_25" data-name="&lt;Path&gt;" class="cls-7" d="M55.06,210.7a1.43,1.43,0,0,1-1.43,1.43h0a1.43,1.43,0,0,1-1.43-1.43V187.08a1.45,1.45,0,0,1,1.43-1.42h0a1.45,1.45,0,0,1,1.43,1.42Z"/><polygon id="_Path_26" data-name="&lt;Path&gt;" class="cls-3" points="94.21 256.77 84.53 206.79 82.84 206.79 82.84 256.77 94.21 256.77"/></g><polygon id="_Path_27" data-name="&lt;Path&gt;" class="cls-3" points="991.05 195.54 985.18 195.54 985.18 174.72 991.05 177.62 991.05 195.54"/><polygon id="_Path_28" data-name="&lt;Path&gt;" class="cls-3" points="954.8 191.15 948.93 191.15 948.93 144.66 954.8 146.97 954.8 191.15"/><polygon id="_Path_29" data-name="&lt;Path&gt;" class="cls-3" points="973.82 193.27 967.9 193.27 967.9 158.28 973.82 162.88 973.82 193.27"/><polygon id="_Path_30" data-name="&lt;Path&gt;" class="cls-1" points="910.79 228.51 918.82 196.91 916.23 196.64 907.88 229.41 910.79 228.51"/><polygon id="_Path_31" data-name="&lt;Path&gt;" class="cls-1" points="911.05 229.78 930.7 203.77 928.43 202.51 908.04 229.41 911.05 229.78"/><rect id="_Path_32" data-name="&lt;Path&gt;" class="cls-8" x="1020.37" y="153" width="24.03" height="6.71"/><polygon id="_Path_33" data-name="&lt;Path&gt;" class="cls-2" points="1020.37 153 1017.15 154.06 1017.15 159.71 1021.27 160.56 1020.37 153"/><rect id="_Path_34" data-name="&lt;Path&gt;" class="cls-3" x="1017.15" y="177.05" width="37.19" height="112.37"/><rect id="_Path_35" data-name="&lt;Path&gt;" class="cls-9" x="1008.37" y="177.05" width="8.78" height="112.37"/><polygon id="_Path_36" data-name="&lt;Path&gt;" class="cls-10" points="1010.54 177.05 1013.45 159.71 1018.78 158.39 1017.15 177.05 1010.54 177.05"/><polygon id="_Path_37" data-name="&lt;Path&gt;" class="cls-3" points="1018.78 158.39 1048.22 158.39 1051.02 177.05 1017.15 177.05 1018.78 158.39"/><path id="_Path_38" data-name="&lt;Path&gt;" class="cls-4" d="M1040.13,190.67c0-1.8-2-3.38-4.23-3.38h-1.43c-2.33,0-4.22,1.58-4.22,3.38v13.58h9.88Z"/><rect id="_Path_39" data-name="&lt;Path&gt;" class="cls-5" x="1027.76" y="207.27" width="3.28" height="3.69"/><rect id="_Path_40" data-name="&lt;Path&gt;" class="cls-5" x="1040.34" y="207.27" width="3.28" height="3.69"/><rect id="_Path_41" data-name="&lt;Path&gt;" class="cls-6" x="1026.98" y="204.25" width="17.49" height="4.82"/><path id="_Path_42" data-name="&lt;Path&gt;" class="cls-7" d="M1034.16,228.77a.81.81,0,0,1-.79.79h0a.81.81,0,0,1-.79-.79v-13.1a.8.8,0,0,1,.79-.74h0a.8.8,0,0,1,.79.74Z"/><path id="_Path_43" data-name="&lt;Path&gt;" class="cls-7" d="M1038.91,228.77a.77.77,0,0,1-.79.79h0a.81.81,0,0,1-.79-.79v-13.1a.8.8,0,0,1,.79-.74h0a.76.76,0,0,1,.79.74Z"/><rect id="_Path_44" data-name="&lt;Path&gt;" class="cls-1" x="54.84" y="49.54" width="43.33" height="12.16"/><polygon id="_Path_45" data-name="&lt;Path&gt;" class="cls-2" points="54.84 49.55 49.08 51.5 49.08 61.71 56.43 63.13 54.84 49.55"/><path id="_Path_46" data-name="&lt;Path&gt;" class="cls-1" d="M1017.41,195.27S654,165.15,375.4,158.66h-.05c-49.56-1.22-96.53-1.64-138.27-1.06l-134.36-.84v18.13H338.78c205.8,2.85,504,10.14,678.63,29.11Z"/><polygon id="_Path_47" data-name="&lt;Path&gt;" class="cls-3" points="887.01 200.18 946.24 272.1 948.93 287.89 942.59 289.16 936.09 280.34 872.01 197.43 887.01 200.18"/><rect id="_Path_48" data-name="&lt;Path&gt;" class="cls-9" x="942.33" y="202.14" width="74.82" height="86.65"/><g id="_Group_4" data-name="&lt;Group&gt;"><g id="_Group_5" data-name="&lt;Group&gt;"><path class="cls-1" d="M124.16,287.9l-3-2.86c.58-.63,62.61-64.3,154.81-124,54.2-35.08,108.1-62,160.19-79.84,65.25-22.4,127.82-30.85,186-25,2.06.05,43.11,2.48,101.5,30.22,35,16.53,69.21,38.84,101.81,66.15,40.78,34.18,79.14,76.3,114,125.44l-3.44,2.33C857.79,170,776.53,116.07,722.16,90.29c-58.85-28.06-99.81-29.91-100.18-30h-.11C491.32,47.17,363,109.68,278.28,164.47,186.45,223.91,124.74,287.2,124.16,287.9Z"/></g></g><polygon id="_Path_49" data-name="&lt;Path&gt;" class="cls-3" points="149.84 295.29 143.97 295.29 143.97 125.75 149.84 123.36 149.84 295.29"/><polygon id="_Path_50" data-name="&lt;Path&gt;" class="cls-3" points="199.45 247.69 193.64 249.7 193.64 101.06 199.45 96.31 199.45 247.69"/><polygon id="_Path_51" data-name="&lt;Path&gt;" class="cls-3" points="241.82 210.54 235.96 215.83 235.96 80.77 241.82 78.35 241.82 210.54"/><polygon id="_Path_52" data-name="&lt;Path&gt;" class="cls-3" points="283.25 178.99 277.38 183.28 277.38 65.67 283.25 64.19 283.25 178.99"/><polygon id="_Path_53" data-name="&lt;Path&gt;" class="cls-3" points="323.62 153.48 317.7 156.39 317.7 51.66 323.62 51.19 323.62 153.48"/><polygon id="_Path_54" data-name="&lt;Path&gt;" class="cls-3" points="360.87 131.13 354.94 135.41 354.94 41.88 360.87 40.41 360.87 131.13"/><polygon id="_Path_55" data-name="&lt;Path&gt;" class="cls-3" points="396.9 112.74 390.99 116.55 390.99 32.43 396.9 30.95 396.9 112.74"/><polygon id="_Path_56" data-name="&lt;Path&gt;" class="cls-3" points="436.43 94.52 430.56 96.04 430.56 24.03 436.43 22.6 436.43 94.52"/><polygon id="_Path_57" data-name="&lt;Path&gt;" class="cls-3" points="473.78 80.35 467.92 82.84 467.92 17.27 473.78 16.37 473.78 80.35"/><polygon id="_Path_58" data-name="&lt;Path&gt;" class="cls-3" points="508.07 67.89 502.1 69.79 502.1 12.52 508.07 11.03 508.07 67.89"/><polygon id="_Path_59" data-name="&lt;Path&gt;" class="cls-3" points="540.99 60.23 535.12 60.76 535.12 7.92 540.99 5.96 540.99 60.23"/><polygon id="_Path_60" data-name="&lt;Path&gt;" class="cls-3" points="572.74 54.05 566.87 55.46 566.87 3.58 572.74 3.58 572.74 54.05"/><polygon id="_Path_61" data-name="&lt;Path&gt;" class="cls-3" points="601.64 50.24 595.72 51.19 595.72 4.11 601.64 4.11 601.64 50.24"/><rect id="_Path_62" data-name="&lt;Path&gt;" class="cls-3" x="628.01" y="2.58" width="5.86" height="47.66"/><rect id="_Path_63" data-name="&lt;Path&gt;" class="cls-3" x="657.06" y="6.7" width="5.97" height="45.38"/><rect id="_Path_64" data-name="&lt;Path&gt;" class="cls-3" x="685.28" y="13.47" width="5.86" height="40.62"/><rect id="_Path_65" data-name="&lt;Path&gt;" class="cls-3" x="711.97" y="18.75" width="5.91" height="43.53"/><polygon id="_Path_66" data-name="&lt;Path&gt;" class="cls-3" points="745.83 70.21 739.92 70.21 739.92 27.51 745.83 30.42 745.83 70.21"/><polygon id="_Path_67" data-name="&lt;Path&gt;" class="cls-3" points="770.62 81.36 764.75 81.36 764.75 36.18 770.62 38.56 770.62 81.36"/><polygon id="_Path_68" data-name="&lt;Path&gt;" class="cls-3" points="795.44 93.82 789.53 92.35 789.53 44.48 795.44 48.86 795.44 93.82"/><polygon id="_Path_69" data-name="&lt;Path&gt;" class="cls-3" points="820.7 108.3 814.83 108.3 814.83 57 820.7 58.43 820.7 108.3"/><polygon id="_Path_70" data-name="&lt;Path&gt;" class="cls-3" points="843.42 123.36 837.5 121.94 837.5 66.4 843.42 69.79 843.42 123.36"/><polygon id="_Path_71" data-name="&lt;Path&gt;" class="cls-3" points="866.99 141.11 861.12 141.11 861.12 80.77 866.99 84.64 866.99 141.11"/><polygon id="_Path_72" data-name="&lt;Path&gt;" class="cls-3" points="889.92 159.87 884.05 159.87 884.05 94.19 889.92 97.1 889.92 159.87"/><polygon id="_Path_73" data-name="&lt;Path&gt;" class="cls-3" points="912.17 180.31 906.25 178.95 906.25 108.3 912.17 112.17 912.17 180.31"/><polygon id="_Path_74" data-name="&lt;Path&gt;" class="cls-3" points="933.35 204.57 927.43 196.38 927.43 125.22 933.35 127.58 933.35 204.57"/><polygon id="_Path_75" data-name="&lt;Path&gt;" class="cls-3" points="146.94 135.72 193.64 246.05 198.02 238.49 149.84 123.79 146.94 135.72"/><polygon id="_Path_76" data-name="&lt;Path&gt;" class="cls-3" points="195.23 125 235.22 219.15 239.08 212.71 197.76 114.81 195.23 125"/><polygon id="_Path_77" data-name="&lt;Path&gt;" class="cls-3" points="235.81 104.92 277.76 184.97 280.24 178.84 236.8 95.62 235.81 104.92"/><polygon id="_Path_78" data-name="&lt;Path&gt;" class="cls-3" points="278.71 85.79 320.87 155.28 322.72 149.63 278.97 77.4 278.71 85.79"/><polygon id="_Path_79" data-name="&lt;Path&gt;" class="cls-3" points="322.5 65.03 358.75 128.48 360.13 123.42 322.72 57.37 322.5 65.03"/><polygon id="_Path_80" data-name="&lt;Path&gt;" class="cls-3" points="358.33 49.81 395.21 104.23 396.9 99.74 358.75 43.16 358.33 49.81"/><polygon id="_Path_81" data-name="&lt;Path&gt;" class="cls-3" points="395.63 37.3 433.68 92.98 435.42 88.33 396.05 30.42 395.63 37.3"/><polygon id="_Path_82" data-name="&lt;Path&gt;" class="cls-3" points="433.41 30.68 470.13 82.26 471.93 77.87 433.94 24.3 433.41 30.68"/><polygon id="_Path_83" data-name="&lt;Path&gt;" class="cls-3" points="153.54 120.98 195.23 211.23 198.02 201.94 156.92 115.12 153.54 120.98"/><polygon id="_Path_84" data-name="&lt;Path&gt;" class="cls-3" points="470.77 22.29 504.63 69.94 506.33 65.93 471.25 16.37 470.77 22.29"/><polygon id="_Path_85" data-name="&lt;Path&gt;" class="cls-3" points="505.01 16.84 537.87 63.23 539.56 59.38 505.49 11.03 505.01 16.84"/><polygon id="_Path_86" data-name="&lt;Path&gt;" class="cls-3" points="538.08 12.88 569.99 57.68 571.52 53.94 538.55 7.28 538.08 12.88"/><polygon id="_Path_87" data-name="&lt;Path&gt;" class="cls-3" points="569.78 10.98 599.11 52.82 600.54 49.28 570.21 5.81 569.78 10.98"/><polygon id="_Path_88" data-name="&lt;Path&gt;" class="cls-3" points="600.54 10.5 629.91 52.35 631.33 48.86 600.9 5.37 600.54 10.5"/><polygon id="_Path_89" data-name="&lt;Path&gt;" class="cls-3" points="631.33 12.09 660.61 53.94 662.09 50.45 631.71 6.96 631.33 12.09"/><polygon id="_Path_90" data-name="&lt;Path&gt;" class="cls-3" points="663.04 49.55 691.41 12.72 687.98 12.41 658.38 50.55 663.04 49.55"/><polygon id="_Path_91" data-name="&lt;Path&gt;" class="cls-3" points="691.15 54.31 719.21 18.8 715.93 18.48 686.6 55.31 691.15 54.31"/><polygon id="_Path_92" data-name="&lt;Path&gt;" class="cls-3" points="719.47 61.91 747.47 26.46 744.25 26.14 714.92 62.92 719.47 61.91"/><polygon id="_Path_93" data-name="&lt;Path&gt;" class="cls-3" points="744.41 70.16 772.57 34.7 769.19 34.38 739.92 71.21 744.41 70.16"/><polygon id="_Path_94" data-name="&lt;Path&gt;" class="cls-3" points="770.24 80.41 796.87 44.79 793.6 44.37 765.86 81.36 770.24 80.41"/><polygon id="_Path_95" data-name="&lt;Path&gt;" class="cls-3" points="794.02 93.4 822.13 57.95 818.8 57.68 789.53 94.46 794.02 93.4"/><polygon id="_Path_96" data-name="&lt;Path&gt;" class="cls-3" points="820.8 110.21 841.31 67.94 837.77 66.77 816.48 110.47 820.8 110.21"/><polygon id="_Path_97" data-name="&lt;Path&gt;" class="cls-3" points="845.69 124.74 866.2 82.57 862.65 81.36 841.31 125.05 845.69 124.74"/><polygon id="_Path_98" data-name="&lt;Path&gt;" class="cls-3" points="868.46 141.8 888.97 99.63 885.43 98.48 864.08 142.17 868.46 141.8"/><polygon id="_Path_99" data-name="&lt;Path&gt;" class="cls-3" points="890.39 161.19 910.89 119.03 907.35 117.76 886.01 161.45 890.39 161.19"/><polygon id="_Path_100" data-name="&lt;Path&gt;" class="cls-3" points="913.16 182.64 931.29 136.36 927.64 135.35 909.25 180.31 913.16 182.64"/><polygon id="_Path_101" data-name="&lt;Path&gt;" class="cls-3" points="932.88 195.75 953.32 149.3 949.47 148.4 928.06 196.53 932.88 195.75"/><path id="_Path_102" data-name="&lt;Path&gt;" class="cls-3" d="M480.6,152.42h-8.25V103.18a2.54,2.54,0,0,0,1-2V84.73a2.47,2.47,0,0,0-2.43-2.48,2.51,2.51,0,0,0-2.48,2.48v16.44a2.43,2.43,0,0,0,1,2v49.23h-8.24c0,1.06,3.59,2,8.24,2.12V167h3V154.54C477,154.43,480.6,153.48,480.6,152.42Z"/><path id="_Path_103" data-name="&lt;Path&gt;" class="cls-3" d="M514.78,153.85h-8.19V90.71a2.34,2.34,0,0,0,1-1.95V72.27A2.49,2.49,0,0,0,505,69.79a2.45,2.45,0,0,0-2.38,2.48V88.76a2.34,2.34,0,0,0,1,1.95v63.14h-8.25c0,1.11,3.59,2.11,8.25,2.27v12.37h3V156.12C511.24,156,514.78,155,514.78,153.85Z"/><path id="_Path_104" data-name="&lt;Path&gt;" class="cls-3" d="M547.75,154.48h-8.25V82.62a2.54,2.54,0,0,0,1-2V64.18a2.48,2.48,0,0,0-5,0V80.67a2.44,2.44,0,0,0,1.06,2v71.86h-8.3c0,1,3.59,2,8.3,2.16v12.41h2.9V156.65C544.16,156.49,547.75,155.53,547.75,154.48Z"/><path id="_Path_105" data-name="&lt;Path&gt;" class="cls-3" d="M579.55,155.49h-8.23V76.92a2.7,2.7,0,0,0,1-2V58.48A2.52,2.52,0,0,0,569.84,56a2.57,2.57,0,0,0-2.54,2.49V74.91a2.59,2.59,0,0,0,1.06,2v78.57h-8.29c0,1,3.64,2,8.29,2.11V170h3V157.6C575.91,157.49,579.55,156.54,579.55,155.49Z"/><path id="_Path_106" data-name="&lt;Path&gt;" class="cls-3" d="M611.31,157.18h-8.25V73.27a2.43,2.43,0,0,0,1-2V54.78a2.46,2.46,0,0,0-2.38-2.43,2.5,2.5,0,0,0-2.48,2.43V71.32a2.43,2.43,0,0,0,1,2v83.9h-8.24c0,1.1,3.59,2.06,8.24,2.16v12.41h3V159.34C607.78,159.24,611.31,158.28,611.31,157.18Z"/><path id="_Path_107" data-name="&lt;Path&gt;" class="cls-3" d="M641,158.45h-8.19V71.68a2.34,2.34,0,0,0,1-1.95V53.19a2.46,2.46,0,0,0-2.43-2.42,2.43,2.43,0,0,0-2.48,2.42V69.74a2.34,2.34,0,0,0,1,1.95v86.76h-8.25c0,1.16,3.59,2.11,8.25,2.27V173h3V160.72C637.41,160.56,641,159.6,641,158.45Z"/><path id="_Path_108" data-name="&lt;Path&gt;" class="cls-3" d="M669.43,160.77h-8.3V75.55a2.31,2.31,0,0,0,1.06-2V57.42A2.47,2.47,0,0,0,659.7,55a2.44,2.44,0,0,0-2.48,2.43V73.59a2.27,2.27,0,0,0,1,2v85.23H650c0,1.1,3.54,2.06,8.25,2.16v12.21h2.9V162.94C665.84,162.83,669.43,161.88,669.43,160.77Z"/><path id="_Path_109" data-name="&lt;Path&gt;" class="cls-3" d="M709.06,163.57h-8.25V83.63a2.12,2.12,0,0,0,1-1.8V66.62a2.49,2.49,0,0,0-5,0V81.83a2.26,2.26,0,0,0,1,1.8v79.94h-8.19c0,1.1,3.54,1.95,8.19,2.11V177h3V165.68C705.52,165.52,709.06,164.68,709.06,163.57Z"/><path id="_Path_110" data-name="&lt;Path&gt;" class="cls-3" d="M732.52,165.52h-6.45V92.77a1.84,1.84,0,0,0,.75-1.43V79.4a1.83,1.83,0,0,0-1.9-1.85,2,2,0,0,0-2,1.85V91.35a1.75,1.75,0,0,0,.8,1.43v72.75h-6.5c0,.84,2.86,1.54,6.5,1.7v10.93h2.37V167.22C729.77,167.06,732.52,166.37,732.52,165.52Z"/><path id="_Path_111" data-name="&lt;Path&gt;" class="cls-3" d="M756.88,168.91h-6.5V108.19a1.57,1.57,0,0,0,.8-1.37v-12a2,2,0,0,0-4,0v12a1.47,1.47,0,0,0,.8,1.37v60.72h-6.5c0,.84,2.86,1.47,6.5,1.63v9.09h2.37v-9.09C754,170.38,756.88,169.75,756.88,168.91Z"/><path id="_Path_112" data-name="&lt;Path&gt;" class="cls-3" d="M783.08,171.5h-6.56V125.74a1.85,1.85,0,0,0,.8-1.48v-12a2,2,0,0,0-3.92,0v12a2.15,2.15,0,0,0,.75,1.48V171.5h-6.45c0,.79,2.8,1.54,6.45,1.59v9.08h2.37v-9.08C780.23,173,783.08,172.29,783.08,171.5Z"/><path id="_Path_113" data-name="&lt;Path&gt;" class="cls-3" d="M803.53,173.45h-5.71V142.81a1.55,1.55,0,0,0,.75-1.22V131a1.67,1.67,0,0,0-1.75-1.48,1.61,1.61,0,0,0-1.69,1.48v10.62a1.37,1.37,0,0,0,.69,1.22v30.64h-5.77c0,.74,2.54,1.32,5.77,1.43v7.92h2v-7.92C801.1,174.77,803.53,174.19,803.53,173.45Z"/><path id="_Path_114" data-name="&lt;Path&gt;" class="cls-3" d="M827.46,175.82h-5.7V158.71a1.65,1.65,0,0,0,.64-1.27V146.88a1.7,1.7,0,0,0-3.39,0v10.56a1.37,1.37,0,0,0,.75,1.27v17.12H814c0,.75,2.49,1.32,5.77,1.43v7.93h2v-7.93C825,177.14,827.46,176.57,827.46,175.82Z"/><path id="_Path_115" data-name="&lt;Path&gt;" class="cls-3" d="M850.13,177.14h-5.7v.22a1.31,1.31,0,0,0,.68-1.16V165.52a1.57,1.57,0,0,0-1.69-1.53,1.6,1.6,0,0,0-1.69,1.53V176.2a1.31,1.31,0,0,0,.68,1.16v-.22h-5.76c0,.75,2.49,1.33,5.76,1.43v7.93h2v-7.93C847.65,178.47,850.13,177.89,850.13,177.14Z"/><path id="_Path_116" data-name="&lt;Path&gt;" class="cls-3" d="M444.2,152.42H436V103.18a2.5,2.5,0,0,0,1-2V84.73a2.51,2.51,0,0,0-5,0v16.44a2.66,2.66,0,0,0,1,2v49.23H424.8c0,1.06,3.54,2,8.23,2.12V167H436V154.54C440.65,154.43,444.2,153.48,444.2,152.42Z"/><path id="_Path_117" data-name="&lt;Path&gt;" class="cls-3" d="M403.72,150.73h-8.23V130.39a2.46,2.46,0,0,0,1-1.95V111.95a2.51,2.51,0,0,0-5,0v16.49a2.44,2.44,0,0,0,1.06,1.95v20.34h-8.24c0,1.06,3.54,2,8.24,2.11v12.42h2.91V152.84C400.18,152.69,403.72,151.79,403.72,150.73Z"/><path id="_Path_118" data-name="&lt;Path&gt;" class="cls-3" d="M357.22,134.35v14.9H349c0,1.11,3.54,2.07,8.23,2.17v12.41h3V151.42c4.65-.11,8.29-1.06,8.29-2.17h-8.29v-14.9Z"/><g id="_Group_6" data-name="&lt;Group&gt;"><path id="_Path_119" data-name="&lt;Path&gt;" class="cls-1" d="M960.13,199.55C959.6,199.08,913,148,831.8,100.16,757,56,630.91,5.06,482.82,15.52l5.65-2.33A571.08,571.08,0,0,1,684,33.43c51.3,14.42,101.54,36.14,149.36,64.36,81.48,48.08,128.44,99.32,128.82,99.85Z"/></g><rect id="_Path_120" data-name="&lt;Path&gt;" class="cls-3" x="863.23" y="137.52" width="5.92" height="50.09"/><rect id="_Path_121" data-name="&lt;Path&gt;" class="cls-3" x="840.47" y="125.21" width="5.91" height="45.91"/><rect id="_Path_122" data-name="&lt;Path&gt;" class="cls-3" x="816.53" y="110.21" width="5.92" height="41"/><rect id="_Path_123" data-name="&lt;Path&gt;" class="cls-3" x="793.92" y="96.31" width="5.92" height="36.35"/><rect id="_Path_124" data-name="&lt;Path&gt;" class="cls-3" x="772.36" y="85.37" width="5.96" height="33.34"/><rect id="_Path_125" data-name="&lt;Path&gt;" class="cls-3" x="657.06" y="52.09" width="5.97" height="14.63"/><rect id="_Path_126" data-name="&lt;Path&gt;" class="cls-3" x="721.21" y="47.38" width="5.87" height="40.21"/><rect id="_Path_127" data-name="&lt;Path&gt;" class="cls-3" x="696.17" y="38.77" width="5.86" height="39.95"/><rect id="_Path_128" data-name="&lt;Path&gt;" class="cls-3" x="670.11" y="53.94" width="5.92" height="15.69"/><path id="_Path_129" data-name="&lt;Path&gt;" class="cls-3" d="M682.85,162.72h-8.34V77.55a2.25,2.25,0,0,0,1-1.95V59.43A2.43,2.43,0,0,0,673.08,57a2.4,2.4,0,0,0-2.43,2.43V75.6a2.41,2.41,0,0,0,1,1.95v85.17h-8.25c0,1.17,3.65,2.07,8.25,2.23V177h2.91v-12.1C679.26,164.79,682.85,163.89,682.85,162.72Z"/><rect id="_Path_130" data-name="&lt;Path&gt;" class="cls-3" x="816.53" y="98.22" width="5.92" height="15.74"/><rect id="_Path_131" data-name="&lt;Path&gt;" class="cls-3" x="642.12" y="24.98" width="5.91" height="36.29"/><rect id="_Path_132" data-name="&lt;Path&gt;" class="cls-3" x="745.83" y="72.16" width="5.87" height="30.59"/><rect id="_Path_133" data-name="&lt;Path&gt;" class="cls-3" x="669.43" y="32.11" width="5.87" height="39.99"/><rect id="_Path_134" data-name="&lt;Path&gt;" class="cls-3" x="614.74" y="18.75" width="4.49" height="33.65"/><rect id="_Path_135" data-name="&lt;Path&gt;" class="cls-3" x="585.11" y="16.42" width="4.54" height="36.4"/><rect id="_Path_136" data-name="&lt;Path&gt;" class="cls-3" x="555.62" y="4.11" width="4.45" height="54.47"/><rect id="_Path_137" data-name="&lt;Path&gt;" class="cls-3" x="525.82" y="8.34" width="4.54" height="54.47"/><polygon id="_Path_138" data-name="&lt;Path&gt;" class="cls-3" points="498.25 67.94 492.44 69.83 492.44 12.57 498.25 11.09 498.25 67.94"/><polygon id="_Path_139" data-name="&lt;Path&gt;" class="cls-3" points="465.54 69.47 459.62 66.3 459.62 17.1 465.54 15.84 465.54 69.47"/><polygon id="_Path_140" data-name="&lt;Path&gt;" class="cls-3" points="974.87 248.42 976.1 198.86 972.18 199.34 970.71 250.75 974.87 248.42"/><polygon id="_Path_141" data-name="&lt;Path&gt;" class="cls-3" points="974.98 252.54 996.17 205.15 992.21 204.1 970.07 253.13 974.98 252.54"/><polygon id="_Path_142" data-name="&lt;Path&gt;" class="cls-3" points="954.16 227.45 955.02 201.66 952.95 201.94 952.05 228.66 954.16 227.45"/><polygon id="_Path_143" data-name="&lt;Path&gt;" class="cls-3" points="955.06 228.19 968.54 198.55 966.05 197.87 952 228.55 955.06 228.19"/><polygon id="_Path_144" data-name="&lt;Path&gt;" class="cls-1" points="925.22 201.61 993.16 289.27 1003.51 289.27 937.31 201.61 925.22 201.61"/><path id="_Path_145" data-name="&lt;Path&gt;" class="cls-9" d="M1017.3,202.51s-361-30.06-639.74-36.66h0c-49.56-1.17-96.48-1.59-138.21-.9L105,164v18.17h236c205.75,2.8,501.52,10.15,676.25,29.06Z"/><polygon id="_Path_146" data-name="&lt;Path&gt;" class="cls-3" points="116.08 182.16 116.08 278.02 116.08 295.39 143.77 295.39 148.57 281.34 139.7 281.45 134.94 270.36 117.82 182.16 116.08 182.16"/><rect id="_Path_147" data-name="&lt;Path&gt;" class="cls-3" x="49.08" y="92.98" width="66.99" height="202.41"/><rect id="_Path_148" data-name="&lt;Path&gt;" class="cls-1" x="33.29" y="92.98" width="15.8" height="202.41"/><polygon id="_Path_149" data-name="&lt;Path&gt;" class="cls-1" points="37.19 92.98 42.53 61.71 51.94 59.27 49.08 92.98 37.19 92.98"/><polygon id="_Path_150" data-name="&lt;Path&gt;" class="cls-3" points="51.94 59.27 105.04 59.27 110.06 92.98 49.08 92.98 51.94 59.27"/><path id="_Path_151" data-name="&lt;Path&gt;" class="cls-4" d="M90.45,117.45c0-3.39-3.43-6.08-7.61-6.08H80.26c-4.18,0-7.61,2.69-7.61,6.08v24.47h17.8Z"/><rect id="_Path_152" data-name="&lt;Path&gt;" class="cls-5" x="68.31" y="147.35" width="5.81" height="6.6"/><rect id="_Path_153" data-name="&lt;Path&gt;" class="cls-5" x="90.98" y="147.35" width="5.81" height="6.6"/><rect id="_Path_154" data-name="&lt;Path&gt;" class="cls-6" x="66.79" y="141.91" width="31.54" height="8.61"/><path id="_Path_155" data-name="&lt;Path&gt;" class="cls-7" d="M79.78,186.08a1.46,1.46,0,0,1-1.43,1.47h0a1.48,1.48,0,0,1-1.48-1.47V162.46a1.39,1.39,0,0,1,1.48-1.32h0a1.37,1.37,0,0,1,1.43,1.32Z"/><path id="_Path_156" data-name="&lt;Path&gt;" class="cls-7" d="M88.29,186.08a1.43,1.43,0,0,1-1.43,1.47h0a1.41,1.41,0,0,1-1.32-1.47V162.46a1.31,1.31,0,0,1,1.32-1.32h0a1.34,1.34,0,0,1,1.43,1.32Z"/><g id="_Group_7" data-name="&lt;Group&gt;"><path id="_Path_157" data-name="&lt;Path&gt;" class="cls-1" d="M987.88,180.31c-119.46-108-229-151.16-303.07-166.22-80.26-16.38-132.93-7-133.46-7h-.22A1104.08,1104.08,0,0,0,235.7,83.68c-74.28,30.54-119.2,60.87-119.62,61.18v-6c.42-.31,43.22-28.47,117.83-59.07a1067.93,1067.93,0,0,1,137-45.59A1109.14,1109.14,0,0,1,550.65,2.9C552,2.58,565,.41,587.38,0c21.39-.31,55.74,1.11,98.06,9.73C732.94,19.43,780.59,36,827.09,59c58,28.69,110.81,70.58,164,118.61Z"/></g><polygon id="_Path_158" data-name="&lt;Path&gt;" class="cls-3" points="1017.3 226.61 1017.3 279.81 1017.3 289.42 1001.92 289.42 1001.92 279.28 1006.79 279.39 1006.79 275.53 1016.3 226.61 1017.3 226.61"/><path id="_Path_159" data-name="&lt;Path&gt;" class="cls-1" d="M149.84,295.29l-3.12-3c.48-.53,65.1-67.74,161.63-130.88,56.53-37,112.81-65.3,167.23-84.27,68.05-23.61,133.3-32.54,194.06-26.36,2.07.11,45,2.64,105.89,31.86,36.46,17.49,72.27,41,106.25,69.85,42.54,36.09,82.58,80.58,118.93,132.36l-3.54,2.48C915.43,170.91,830.63,114,773.94,86.69,712.49,57.16,669.85,55.1,669.32,55.1h-.05C533,41.26,399.07,107.2,310.68,165.1,214.88,227.76,150.47,294.6,149.84,295.29Z"/><path id="_Path_160" data-name="&lt;Path&gt;" class="cls-9" d="M847.8,189.83s151.7,10,169.35,9.73v5l-81.79-.8-7.29-.74Z"/></g></g></g></svg>