<svg xmlns="http://www.w3.org/2000/svg" viewBox="0 0 264.03 400.86"><defs><style>.cls-1{fill:#b3b3b3;}.cls-2{opacity:0.64;}.cls-3{fill:#29abe2;}</style></defs><title>Asset 4</title><g id="Layer_2" data-name="Layer 2"><g id="cactus"><rect class="cls-1" width="264.03" height="400.86"/><g class="cls-2"><rect class="cls-3" x="21.55" y="40.79" width="63" height="36"/><rect class="cls-3" x="99.51" y="40.79" width="63" height="36"/><rect class="cls-3" x="177.48" y="40.79" width="63" height="36"/><rect class="cls-3" x="22.55" y="97.37" width="63" height="36"/><rect class="cls-3" x="100.51" y="97.37" width="63" height="36"/><rect class="cls-3" x="178.48" y="97.37" width="63" height="36"/><rect class="cls-3" x="22.55" y="153.2" width="63" height="36"/><rect class="cls-3" x="100.51" y="153.2" width="63" height="36"/><rect class="cls-3" x="178.48" y="153.2" width="63" height="36"/><rect class="cls-3" x="22.55" y="209.02" width="63" height="36"/><rect class="cls-3" x="100.51" y="209.02" width="63" height="36"/><rect class="cls-3" x="178.48" y="209.02" width="63" height="36"/><rect class="cls-3" x="21.55" y="264.85" width="63" height="36"/><rect class="cls-3" x="99.51" y="264.85" width="63" height="36"/><rect class="cls-3" x="177.48" y="264.85" width="63" height="36"/><rect class="cls-3" x="21.55" y="320.68" width="63" height="36"/><rect class="cls-3" x="99.51" y="320.68" width="63" height="36"/><rect class="cls-3" x="177.48" y="320.68" width="63" height="36"/></g></g></g></svg>