<svg xmlns="http://www.w3.org/2000/svg" viewBox="0 0 146.69 250.7"><defs><style>.cls-1{fill:#25b72f;}.cls-2{fill:none;stroke:#fff;stroke-miterlimit:10;stroke-width:2.14px;opacity:0.5;}.cls-3{fill:#8c6239;}.cls-4{fill:#a67c52;}</style></defs><title>Asset 6</title><g id="Layer_2" data-name="Layer 2"><g id="cactus"><path class="cls-1" d="M48.13,242.7c-2.14,0-5.71-93.25-5.71-93.25S-7.58,150,1,91.41c0,0,17.86-18.67,18.57,5.61,0,0-4.43,22.09,19.92,34.95L33.84,40.52c0-58.57,63.57-49.29,60,0l-4.29,62.84s32.14-6.43,29.28-55c0,0,17.86-27.14,27.85,20.71,0,0-1.56,55.66-56.42,58.25L82.41,242.7Z"/><line class="cls-2" x1="55.98" y1="241.91" x2="42.3" y2="10.57"/><line class="cls-2" x1="64.55" y1="241.91" x2="53.16" y2="2.02"/><line class="cls-2" x1="69.88" y1="241.91" x2="69.88" y2="0.84"/><line class="cls-2" x1="78.12" y1="241.91" x2="84.58" y2="9.83"/><line class="cls-2" x1="33.6" y1="148.03" x2="31.07" y2="126.24"/><line class="cls-2" x1="22.87" y1="144.48" x2="20.48" y2="109.92"/><line class="cls-2" x1="12.14" y1="137.14" x2="10.58" y2="84.78"/><line class="cls-2" x1="97.48" y1="126.24" x2="100.57" y2="98.06"/><line class="cls-2" x1="111.69" y1="121.96" x2="113.13" y2="82.99"/><line class="cls-2" x1="123.43" y1="115.91" x2="125.61" y2="41.95"/><line class="cls-2" x1="135.89" y1="102.48" x2="139.52" y2="47.78"/><path class="cls-3" d="M16,250.7s8.57-10.47,15.71-6.18c0,0-.71-25.23,22.14-16.66,0,0,16.43-24.29,36.43,10.53,0,0,11.43-2.68,17.86,12.32Z"/><path class="cls-4" d="M26,249.7s5.32-6.58,9.74-3.92c0,0-.44-15.69,13.73-10.38,0,0,10.19-15,22.59,6.6,0,0,7.09-1.29,11.07,7.71Z"/></g></g></svg>