<svg xmlns="http://www.w3.org/2000/svg" viewBox="0 0 769 459"><defs><style>.cls-1,.cls-4{fill:#998675;}.cls-1,.cls-3,.cls-4,.cls-5{stroke:#000;stroke-miterlimit:10;}.cls-1,.cls-3,.cls-5{stroke-width:2px;}.cls-2{fill:#333;}.cls-3{fill:#c7b299;}.cls-4{stroke-width:1.65px;}.cls-5{fill:#736357;}</style></defs><title>Asset 2</title><g id="Layer_2" data-name="Layer 2"><g id="Coliseum"><path class="cls-1" d="M561.52,458H768V264.4s-.21-54.9-278.19-73.18Z"/><path class="cls-2" d="M589,344V294.42c0-14.07-8.28-25.42-18.86-25.42h.1C559.67,269,551,280.34,551,294.42V344Z"/><polygon class="cls-3" points="568.65 328 545.73 218 497.58 218 496.94 215 200 215 200 458 611 458 611 328 568.65 328"/><path class="cls-2" d="M637,343V293.86c0-13.77-8.3-24.86-18.88-24.86h.1C607.65,269,599,280.09,599,293.86V343Z"/><path class="cls-2" d="M541,343V286.28c0-15.86-10.94-29.28-24.63-29.28h0c-13.69,0-24.4,13.42-24.4,29.28V343Z"/><path class="cls-2" d="M468,342V285.45c0-15.86-11.57-28.45-25.25-28.45h0C429.09,257,418,269.59,418,285.45V342Z"/><path class="cls-4" d="M165.63,354.85s252.19-43.17,400-26.77l45.49.72-.52,33.09S413.48,349.19,165.1,388.76Z"/><path class="cls-4" d="M170.22,246.5s106.14-41,328.31-32.77l51.79,5.8,2.58,27.34s-252.07-22-385.62,25.94Z"/><path class="cls-1" d="M1,458V101.1S95.32,5.91,225.6,2.18L270.27,98H295.5l28.13,100h52.11l24.81,119H446V458Z"/><path class="cls-2" d="M425,458V396.93c0-17.31-12.66-30.93-28.58-30.93h0C380.5,366,367,379.63,367,396.93V458Z"/><path class="cls-2" d="M346,458V396.93c0-17.31-11.93-30.93-26.49-30.93h0C304.93,366,293,379.63,293,396.93V458Z"/><path class="cls-2" d="M347,321V267.36c0-15.17-12-27.36-26.58-27.36h0C305.89,240,294,252.18,294,267.36V321Z"/><path class="cls-2" d="M269,321V276.28c0-12.74-9.85-23.28-21.91-23.28H247c-12.06,0-22,10.54-22,23.28V321Z"/><path class="cls-2" d="M275,215V164.91c0-14.29-10-25.91-22-25.91h0c-12.06,0-22,11.62-22,25.91V215Z"/><path class="cls-2" d="M206,225V179.45c0-12.71-7.79-22.45-18.25-22.45h-.1c-10.46,0-19.65,9.74-19.65,22.45V225Z"/><path class="cls-2" d="M148,235V193c0-11.49-5.37-20-13.45-20h-.08c-8.08,0-15.47,8.51-15.47,20v42Z"/><path class="cls-2" d="M104,241V202.55c0-10.34-3.82-17.55-9.47-17.55h-.06C88.82,185,84,192.21,84,202.55V241Z"/><path class="cls-2" d="M73,248V211.5c0-9.71-2.3-16.5-6.29-16.5h0c-4,0-7.67,6.79-7.67,16.5V248Z"/><path class="cls-2" d="M48,257V221.6c0-9.35-1.73-16.6-5.15-16.6h0c-3.41,0-6.82,7.25-6.82,16.6V257Z"/><path class="cls-2" d="M25,267V233.2c0-9.12-1.67-15.2-4.74-15.2h0c-3.07,0-7.23,6.08-7.23,15.2V267Z"/><path class="cls-2" d="M202,325V283.07c0-11.91-8.43-21.07-19-21.07h.1c-10.58,0-19.09,9.16-19.09,21.07V325Z"/><path class="cls-2" d="M147,335V294.59c0-11.42-7.66-20.59-16.38-20.59h.08c-8.73,0-15.7,9.17-15.7,20.59V335Z"/><path class="cls-2" d="M682,347V303.42c0-12.19-7.43-22.42-16.16-22.42h.08c-8.73,0-15.92,10.23-15.92,22.42V347Z"/><path class="cls-2" d="M103,340V302.8c0-10.47-4.62-18.8-10.21-18.8h.05c-5.59,0-9.85,8.33-9.85,18.8V340Z"/><path class="cls-2" d="M714,352V314.38c0-10.47-4.29-19.38-9.88-19.38h.05c-5.59,0-10.18,8.91-10.18,19.38V352Z"/><path class="cls-2" d="M72,345V309.13C72,299.05,68.11,291,63.29,291h0c-4.81,0-8.34,8.05-8.34,18.13V345Z"/><path class="cls-2" d="M44,349V316.65c0-9.21-2.62-16.65-6.15-16.65h0c-3.53,0-5.89,7.45-5.89,16.65V349Z"/><path class="cls-2" d="M23,352V323.25c0-8-2.78-14.25-5.83-14.25h0c-3.06,0-5.19,6.2-5.19,14.25V352Z"/><path class="cls-2" d="M273,458V402.09c0-15.86-11-29.09-24.66-29.09h0C234.69,373,224,386.23,224,402.09V458Z"/><path class="cls-2" d="M586,458V402.09c0-15.86-11.27-29.09-25-29.09h0C547.39,373,536,386.23,536,402.09V458Z"/><path class="cls-2" d="M512,458V402.09c0-15.86-10.9-29.09-24.58-29.09h0C473.76,373,463,386.23,463,402.09V458Z"/><path class="cls-2" d="M200,458V407.42c0-14.36-8-25.42-18.24-25.42h0C171.51,382,163,393.07,163,407.42V458Z"/><path class="cls-2" d="M650,458V407.42c0-14.36-8.79-25.42-19.05-25.42h0c-10.27,0-19,11.07-19,25.42V458Z"/><path class="cls-2" d="M143,458V411.34c0-13.26-5.83-24.34-13.36-24.34h0c-7.53,0-13.66,11.08-13.66,24.34V458Z"/><path class="cls-2" d="M689,458V411.34c0-13.26-5.85-24.34-13.38-24.34h0c-7.53,0-13.63,11.08-13.63,24.34V458Z"/><path class="cls-2" d="M103,458V414.75c0-12.3-5.38-22.75-11.2-22.75h0C86,392,81,402.46,81,414.75V458Z"/><path class="cls-2" d="M70,458V418.58C70,407.36,66.54,398,62.06,398h0c-4.48,0-8.07,9.36-8.07,20.58V458Z"/><path class="cls-2" d="M44,458V421.19C44,410.94,42,402,38.77,402h0c-3.22,0-6.78,8.94-6.78,19.19V458Z"/><path class="cls-2" d="M22,458V423.73c0-9.54-2-17.73-4.45-17.73h0C15.1,406,13,414.19,13,423.73V458Z"/><path class="cls-5" d="M1,267s100.93-53,322.62-69h52.11l5.6,26.83S128.39,231,1,293.43Z"/><path class="cls-5" d="M1,172.71S80.68,109,255.72,89h41.15l4.42,32.55S101.58,128.94,1,204.91Z"/><path class="cls-5" d="M1,93.77S65,23.15,205.48,1h33l3.55,36.14S81.74,45.57,1,129.22Z"/><path class="cls-5" d="M1,352.29S252.48,302,400.55,318H446v34.29s-197.27-10.16-445,36Z"/></g></g></svg>