<svg xmlns="http://www.w3.org/2000/svg" viewBox="0 0 404.23 393"><defs><style>.cls-1{fill:#292f33;}.cls-2{fill:#df2b40;}</style></defs><title>gate</title><g id="Layer_2" data-name="Layer 2"><g id="Drawings"><rect class="cls-1" x="35.84" y="349.72" width="86.55" height="43.28" rx="12" ry="12"/><rect class="cls-1" x="282.64" y="349.72" width="86.55" height="43.28" rx="12" ry="12"/><path class="cls-2" d="M387.91,147.38H348.14V94.74c24.56,0,58.48-16.37,39.77-40.94s-370.78,0-370.78,0C4.26,74.86,19.47,91.23,54.56,93.57v52.63H18.3c-22.22,0-26.9,44.45,1.17,44.45H55.73V349.72h46.62V190.65H304.86V349.72h43.67V190.65h39.38C409,190.65,406.62,147.38,387.91,147.38Zm-207,0H101.34V100.59h79.54Zm122.81,0H224.16V100.59h79.54Z"/><path class="cls-1" d="M201.93,23.39c72.52,0,164.92-7,193-23.39,12.87,11.7,14,46.79-7,53.8-39.77,12.87-272.53,24.56-370.78,0C.75,48-5.09,24.56,7.77,0,70.93,24.56,201.93,23.39,201.93,23.39Z"/></g></g></svg>