<svg xmlns="http://www.w3.org/2000/svg" viewBox="0 0 271.9 326.23"><defs><style>.cls-1{fill:#fdd114;}</style></defs><title>Asset 4</title><g id="Layer_2" data-name="Layer 2"><g id="outline"><path class="cls-1" d="M196.09,326.12l-3.39-27.76,3.69-23.11s-38.12,14.61-59.82,0l-14,11.54,18.09,20L178,308.32v17.92Z"/><path class="cls-1" d="M51.05,244.45s18.47-17.7,24.62-17.7c0,0,3.85-54.73,8.46-53.91L67.6,157.5l-16.54,6.93L39.51,157.5l-10,15.34L34.12,189l-1.54,43.09Z"/><path class="cls-1" d="M202.64,285.45s-1.54-28.54,19.49-35.21L202.62,223h-9.72s-5.13-22.42-28.73-25.5L159.51,182h-23L90.8,129.61,80,96H64V83.57L44.7,86.14,26.21,100.5,19,94.35V84H8.72L0,72.87l14.88-5.56L5.13,51H17.44L15.9,30H29.75L44.12,20l8.21,8.21L64.13,20H78l1-8.17L95.42,7h20l16.42-7,.51,9.72,29.75,14.87L151.85,35.87l16.93,8.72s1.54,5.64-6.16,7.18-35.91,1-35.91,1l-3.08,9.75,13,6.16s-4.77,18,2.41,28.73c0,0,30.27,8.21,24.11,20l4.1,19L189.82,160l24.62,1s12.31,11.29,2.05,18.47l30.78,3.59,20,22.06,4.62,24.11L258,238.51,250.35,217l-17.44-3.59-7.7,9.75L238,237.48l1.54,18S215,280.06,218,289.29Z"/></g></g></svg>