<svg xmlns="http://www.w3.org/2000/svg" xmlns:xlink="http://www.w3.org/1999/xlink" viewBox="0 0 931.99 460.65"><defs><style>.cls-1{isolation:isolate;}.cls-2{fill:#11931d;}.cls-3,.cls-4,.cls-6{fill:#4d4d4d;}.cls-3,.cls-8{stroke:#000;}.cls-3,.cls-4,.cls-7,.cls-8{stroke-miterlimit:10;}.cls-4,.cls-7{stroke:#333;stroke-width:3px;}.cls-5{opacity:0.75;mix-blend-mode:multiply;}.cls-7{fill:none;}.cls-8{fill:gray;}</style></defs><title>Asset 3</title><g class="cls-1"><g id="Layer_2" data-name="Layer 2"><g id="Chichen_Itza" data-name="Chichen Itza"><path class="cls-2" d="M0,460.65s21-73.12,217-163.06,715,5.36,715,5.36v157.7Z"/><polygon class="cls-3" points="239.7 292.42 444.49 65.47 444.49 24.48 530.1 0.65 616.91 24.48 620.99 77.54 824.65 287.1 522.87 396.57 239.7 292.42"/><polygon class="cls-3" points="529.49 382.11 827.49 280.9 827.49 289.49 529.49 406.1 529.49 382.11"/><polygon class="cls-3" points="530.6 371.99 530.36 380.04 827.49 278.36 827.49 272.33 530.6 371.99"/><polygon class="cls-3" points="529.49 343.82 529.49 366.7 813.49 272.33 813.49 264.7 529.49 343.82"/><polygon class="cls-3" points="529.49 332.38 529.49 340.96 813.49 261.84 813.49 254.21 529.49 332.38"/><polygon class="cls-3" points="529.49 306.64 529.49 328.57 796.49 256.12 796.49 245.63 529.49 306.64"/><polygon class="cls-3" points="530.22 294.01 529.66 302.95 796.49 242.78 796.49 238.01 530.22 294.01"/><polygon class="cls-3" points="529.49 288.53 529.49 266.61 778.49 224.19 778.49 237.06 529.49 288.53"/><polygon class="cls-3" points="529.49 254.21 529.49 262.79 778.49 222.28 778.49 217.99 529.49 254.21"/><polygon class="cls-3" points="529.49 227.52 529.49 250.4 758.49 217.99 758.49 204.65 529.49 227.52"/><polygon class="cls-3" points="529.49 215.13 529.49 225.62 758.49 200.83 758.49 196.06 529.49 215.13"/><polygon class="cls-3" points="529.49 188.44 529.49 211.32 736.49 194.79 736.49 179.86 529.49 188.44"/><polygon class="cls-3" points="529.49 176.05 529.49 185.58 736.49 177.32 736.49 172.23 529.49 176.05"/><polygon class="cls-3" points="529.49 172.23 529.49 150.31 711.49 154.76 711.49 169.37 529.49 172.23"/><polygon class="cls-3" points="529.49 137.92 529.49 146.5 711.49 151.9 711.49 144.59 529.49 137.92"/><polygon class="cls-3" points="530.07 112.19 530.62 134.02 684.49 140.46 684.49 123.62 530.07 112.19"/><polygon class="cls-3" points="529.49 97.88 529.49 108.37 684.49 120.76 684.49 114.08 529.49 97.88"/><polygon class="cls-3" points="529.49 95.02 529.49 72.14 651.49 89.94 651.49 107.41 529.49 95.02"/><polygon class="cls-3" points="529.69 59.75 529.66 68.33 651.49 87.08 651.49 79.77 529.69 59.75"/><polygon class="cls-3" points="529.49 31.15 529.49 55.94 622.49 72.14 622.49 50.22 529.49 31.15"/><polygon class="cls-3" points="529.49 21.62 529.49 27.34 622.49 48.31 622.49 43.54 529.49 21.62"/><polygon class="cls-3" points="529.49 7.32 529.49 19.71 622.49 41.64 622.49 31.15 529.49 7.32"/><polygon class="cls-3" points="529.49 0.65 529.49 5.41 622.17 29.25 620.95 24.48 529.49 0.65"/><polygon class="cls-4" points="694.35 366.7 571.85 59.75 582.82 62.61 774.42 330.95 694.35 366.7"/><image class="cls-5" width="161" height="351" transform="translate(540.99 47.65)" xlink:href="Asset 31.png"/><path class="cls-6" d="M691.74,368.53l-12.47,5.84L566,58.56l6,1.43Z"/><path class="cls-7" d="M691.74,368.53l-12.47,5.84L566,58.56l6,1.43Z"/><polygon class="cls-4" points="777.35 330.01 788.37 325.12 587.53 62.15 584.67 62.15 777.35 330.01"/><polygon class="cls-8" points="529.49 382.11 232.49 280.9 232.49 289.49 529.49 406.1 529.49 382.11"/><polygon class="cls-8" points="529.3 371.99 529.58 380.04 232.49 278.36 232.49 272.33 529.3 371.99"/><polygon class="cls-8" points="529.49 343.82 529.49 366.7 245.49 272.33 245.49 264.7 529.49 343.82"/><polygon class="cls-8" points="529.49 332.38 529.49 340.96 245.49 261.84 245.49 254.21 529.49 332.38"/><polygon class="cls-8" points="529.49 306.64 529.49 328.57 263.49 256.12 263.49 245.63 529.49 306.64"/><polygon class="cls-8" points="529.68 294.01 530.28 302.95 263.49 242.78 263.49 238.01 529.68 294.01"/><polygon class="cls-8" points="529.49 288.53 529.49 266.61 281.49 224.19 281.49 237.06 529.49 288.53"/><polygon class="cls-8" points="529.49 254.21 529.49 262.79 281.49 222.28 281.49 217.99 529.49 254.21"/><polygon class="cls-8" points="529.49 227.52 529.49 250.4 301.49 217.99 301.49 204.65 529.49 227.52"/><polygon class="cls-8" points="529.49 215.13 529.49 225.62 301.49 200.83 301.49 196.06 529.49 215.13"/><polygon class="cls-8" points="529.49 188.44 529.49 211.32 323.49 194.79 323.49 179.86 529.49 188.44"/><polygon class="cls-8" points="529.49 176.05 529.49 185.58 323.49 177.32 323.49 172.23 529.49 176.05"/><polygon class="cls-8" points="529.49 172.23 529.49 150.31 347.49 154.76 347.49 169.37 529.49 172.23"/><polygon class="cls-8" points="529.49 137.92 529.49 146.5 347.49 151.9 347.49 144.59 529.49 137.92"/><polygon class="cls-8" points="529.84 112.19 529.32 134.02 375.49 140.46 375.49 123.62 529.84 112.19"/><polygon class="cls-8" points="529.49 97.88 529.49 108.37 375.49 120.76 375.49 114.08 529.49 97.88"/><polygon class="cls-8" points="529.49 95.02 529.49 72.14 407.49 89.94 407.49 107.41 529.49 95.02"/><polygon class="cls-8" points="529.71 59.75 529.53 68.33 407.49 87.08 407.49 79.77 529.71 59.75"/><polygon class="cls-8" points="529.49 31.15 529.49 55.94 437.49 72.14 437.49 50.22 529.49 31.15"/><polygon class="cls-8" points="529.49 21.62 529.49 27.34 437.49 48.31 437.49 43.54 529.49 21.62"/><polygon class="cls-8" points="529.49 7.32 529.49 19.71 437.49 41.64 437.49 31.15 529.49 7.32"/><polygon class="cls-8" points="529.49 0.65 529.49 5.41 437.23 29.25 438.24 24.48 529.49 0.65"/><polygon class="cls-4" points="365.47 366.7 487.96 59.75 477 62.61 285.4 330.95 365.47 366.7"/><image class="cls-5" width="161" height="351" transform="translate(357.99 47.65)" xlink:href="Asset 32.png"/><path class="cls-6" d="M368.08,368.53l12.47,5.84L493.83,58.56l-6,1.43Z"/><path class="cls-7" d="M368.08,368.53l12.47,5.84L493.83,58.56l-6,1.43Z"/><polygon class="cls-4" points="282.47 330.01 271.44 325.12 472.28 62.15 475.14 62.15 282.47 330.01"/></g></g></g></svg>