<svg xmlns="http://www.w3.org/2000/svg" viewBox="0 0 377.01 210.8"><defs><style>.cls-1{fill:#ac4800;}.cls-2{fill:#cb711b;}.cls-3{fill:#df8634;}.cls-4{fill:#6a3c1b;}.cls-5{fill:#3b2719;}.cls-6{fill:#fff;}</style></defs><title>kangaroo</title><g id="Layer_2" data-name="Layer 2"><g id="Animals"><path class="cls-1" d="M300,1.67C301.88-2,309.19,1,314.26,5.1c2.85,2.3,5.11,6.93,7.66,8.2a18.91,18.91,0,0,0,2.75,1.09l-9.06,7C315,19.5,310,19,306.17,15.59,301.47,11.4,298.42,4.78,300,1.67Z"/><path class="cls-1" d="M244.58,136.2c-.25,15.85,13.13,43,16.86,48.09,5.85,8,39.67,3.37,56.66,1.38,14.17-1.67,23.32,5.41,12.72,9.77s-19.68,2.83-32,4.22-37.75,1.91-44.58-1.43c-6.6-3.22-26-44.17-35.83-53Z"/><path class="cls-1" d="M297.21,146c8-4.3,8.74-17.42,1.46-30.93s-7.5-21.22-7.08-28.62c.22-3.79,36.5-40,36.5-40-2.74,10.41-12.21,39.18-13.38,49.68-1.22,11,1.81,44.12-10.09,52.92S289.23,150.28,297.21,146Z"/><path class="cls-2" d="M376.87,24.6c.85,7.66-2.08,13.24-8.9,14.86s-20,4.08-27.68,9.6-13.42,6-17.09,14.65-18.84,37.46-21.82,48.08-5.39,43.84-18.56,50.58-15.38-1.28-6.81-4.23,11.45-15.77,6.46-30.28-4-22.15-2.33-29.38c1.56-7-19.87,5.33-24.26,7.57S253,123.28,244.69,135.7s10.81,51.68,15.45,58c6.06,8.33,41.13,3.49,58.73,1.42,14.7-1.72,24.18,5.62,13.19,10.13s-20.4,2.93-33.18,4.37-39.13,2-46.22-1.48-28.43-48.87-38.19-55.84-38.45-20.63-58-37.23c-4.95-4.2-14.77,11.55-23.58,25.82-11.07,18-42.81,71.21-91.89,56.68C12.48,189.19-1.74,173.72.17,171.12c2.26-3.09,17.82,7.61,23.26,9.7C31.76,184,62.29,199,86.58,165c12.89-18,44.2-83.8,53.91-107.05s21.64-44.32,48.29-48.33,51.43,3.7,73,17,28,12.91,35.39,10.69c8.16-2.43,14.65-10.41,14.09-12.21-.7-2.26-6.51-.88-12-3.41-6.3-2.93-11.64-8.94-11-12.72.8-4.52,9.5-3.64,16.17-.94,3.74,1.51,7.61,5.69,10.71,6.21,8.62,1.46,18-3.73,26.55.38C350.07,18.6,376.18,18.31,376.87,24.6Z"/><path class="cls-3" d="M356.68,25.2c-8.43,0-22.86,10.63-30.76,3.19-3.86-3.65-11.69-5-16.67-4.61-2.31-.5-6.24-.39-10-2.14-6.3-2.93-11.64-8.94-11-12.72.8-4.52,9.5-3.64,16.17-.94,3.74,1.51,7.61,5.69,10.71,6.21,8.62,1.46,18-3.73,26.55.38,6.41,3.09,23.23,3.65,31.06,6.57a35.75,35.75,0,0,1-3.1,4.51S361.43,25.18,356.68,25.2Z"/><path class="cls-4" d="M376.87,24.6c.08.69.11,1.36.12,2,0,0-12.76.7-11.72-7.24h0C371.53,20.51,376.58,22,376.87,24.6Z"/><circle class="cls-4" cx="337.03" cy="22.78" r="3.24" transform="translate(10.91 110.85) rotate(-18.98)"/><circle class="cls-5" cx="337.03" cy="22.78" r="1.69" transform="translate(10.91 110.85) rotate(-18.98)"/><circle class="cls-6" cx="336.2" cy="22.37" r="1.03" transform="translate(11 110.55) rotate(-18.98)"/><path class="cls-3" d="M282.82,162.37c-13.17,6.74-15.38-1.28-6.81-4.23s11.45-15.77,6.46-30.28-4-22.15-2.33-29.38c4.31-11.34.54-39.84,20.35-42.53S321.24,68,321.24,68h0c-5.45,11.51-17.26,34.52-19.86,43.77C298.39,122.4,296,155.62,282.82,162.37Z"/><path class="cls-3" d="M138,63.87c8.12-18.28,39.49-31.05,75-13.83,39.8,19.32,39.62,63.31,39.62,63.31h0c-1.35,6-2.75,14.68-7.85,22.35-8.26,12.44,10.81,51.68,15.45,58,6.06,8.33,41.13,3.49,58.73,1.42,14.7-1.72,24.18,5.62,13.19,10.13s-20.4,2.93-33.18,4.37-39.13,2-46.22-1.48-28.43-48.87-38.19-55.84-38.45-20.63-58-37.23C154.77,109.38,128.8,84.48,138,63.87Z"/><path class="cls-4" d="M299.84,18.08c4.22,1.59,11.09,1.62,11.45.66s-5-5.88-9.24-7.47-9-2.06-9.36-1.1S295.62,16.49,299.84,18.08Z"/></g></g></svg>