<svg xmlns="http://www.w3.org/2000/svg" viewBox="0 0 336.68 363.04"><defs><style>.cls-1{fill:#9a9693;}.cls-2{fill:#63615f;}.cls-3{fill:#6a3c1b;}.cls-4{fill:#453835;}.cls-5{fill:#3e2a2a;}.cls-6{fill:#231c1b;}.cls-7{fill:#fff;}.cls-8{fill:#6e6669;}.cls-9{fill:#7ca224;}.cls-10{fill:#6a8b1f;}</style></defs><title>koala</title><g id="Layer_2" data-name="Layer 2"><g id="Animals"><path class="cls-1" d="M234.61,9.39S214.35,3,207.66,4c0,0-28.47-4.37-40.29-3.94-11.69-.53-39.83,3.74-39.83,3.74C120.91,2.72,100.87,9,100.87,9,29.93-3.34,0,78.35,0,78.35c22.06-13.2,42.9,6.46,51.84,1.56s34.67,6.95,34.67,6.95c-2.38,9.13,6.24,40,6.24,40C108.43,186.88,168,179.73,168,179.73v-.6c7.84.67,60.44,3,75-52.23,0,0,8.66-30.67,6.24-39.79,0,0,26-11.6,35-6.65S314.36,66,336.68,79.34C336.68,79.34,306.29-2.34,234.61,9.39Z"/><path class="cls-2" d="M310,81l-22.69,6.53c-2.92,18.76-17.88,62.27-23.16,74.57-1.63,3.81-4.66,12.34-8.17,22.82l5.5,7.3S276,197.59,298.18,162C316.15,133.23,310,81,310,81Z"/><path class="cls-1" d="M107.6,148.35s-16.38,39.59-12.39,69.73,2.66,48,1.8,63.38,15.19,48.11,42.83,48.62c28.85.53,59.09,5.54,65.86,5.54s24,3.08,38.78-11.7,16.87-31.39,17.36-52.93.63-6.47.49-21.54c-.66-74.48-.62-89.27-9.86-93.26s-13.53-16.3-22.15-16.91S107.6,148.35,107.6,148.35Z"/><path class="cls-2" d="M95.6,231h0c2.27,23.14,1.18,38.22.43,51.46-.87,15.38,15.19,48.11,42.83,48.62,22.28.41,45.37,3.49,57.86,4.87,1.26-7.65-.44-17.28-6.59-29.43C157.84,242.73,95.6,231,95.6,231Z"/><path class="cls-2" d="M212.86,280.11c-5.14,10.85-14.3,35.45-17.43,55.47,5.33.61,9.3,1,11.27,1,6.77,0,24,3.08,38.78-11.7s16.87-31.39,17.36-52.93.63-6.47.49-21.54c-.07-8.71-.15-16.57-.22-23.71C263.11,226.74,223,258.7,212.86,280.11Z"/><path class="cls-3" d="M249.41,45.72s-61.53,219.73-75.08,240-22.18,63.39-22.18,63.39a44.18,44.18,0,0,0,20.32,12.39c12.92,3.62,20.68-.54,20.8,0s14.9-27.16,21-48.7,17.85-42.21,20.31-56.5,24-81.38,29.54-94.3S286,101.73,287.69,84.8s5.41-44,8.49-53.24c0,0-24-10.27-34.47-10.27C254.89,21.3,253.31,32.25,249.41,45.72Z"/><path class="cls-2" d="M113.83,127.58s-16.91,38.85,1.5,63,31.27,22.17,48.51,18.24,53.18-34.3,56.68-47.45-2-17.21,11.7-17.64,33.9-.16,35.64-5.9c1.06-3.51.87-8.49-5.26-9.3a52.34,52.34,0,0,0-12.28,0s22.8.27,24.55-6.57c1.63-6.39-2.19-9-8.33-9.45s-13.15,2.06-13.15,2.06,15.23-1.81,14.17-8.39c-.65-4.08-2.34-6.39-15-4.75s-23.68,3.31-23.68,3.31L196,121.15Z"/><path class="cls-2" d="M285.06,105.22c2.88-12.47,9-13.66-1.65-19.54s-26.63-13.76-25.55-19.3c.66-3.38,2.95-7.49,8.14-5.71a43.72,43.72,0,0,1,9.66,4.94s-18.08-8.94-16.51-15.4c1.46-6,5.61-6.71,10.61-4.59s9.48,7,9.48,7S268,45,271.68,39.87c2.27-3.17,4.59-4.44,13.9,2.06s8.43,8.13,11.69,12.31C311.75,72.76,310.6,87.7,310.6,87.7S282.17,117.68,285.06,105.22Z"/><path class="cls-4" d="M130,88.8C127,91.46,135.53,103,141.08,99.27S137.11,82.65,130,88.8Z"/><path class="cls-4" d="M203.84,88.8c3.06,2.66-5.52,14.16-11.07,10.47S196.75,82.65,203.84,88.8Z"/><path class="cls-5" d="M156.84,326.62c2.14,5.76,7.06,5.21,9.15,3.6s4-5.95,4.75-11.5c.72-5.32,1.1-4.84,4-9.68s13.21-21.26,5-24.06-14,6.35-16.44,10.13C158.74,302.2,154.48,320.3,156.84,326.62Z"/><path class="cls-5" d="M209.93,333.4c-5.54,2.67-8.7-1.13-9.09-3.73s1.24-7.06,4.54-11.59c3.16-4.34,2.56-4.25,3.83-9.74s5.2-24.49,13.07-20.81,5.72,14.29,4.84,18.69C225.46,314.49,216,330.48,209.93,333.4Z"/><path class="cls-6" d="M139.84,93.58a3.77,3.77,0,1,1-3.76-3.77A3.77,3.77,0,0,1,139.84,93.58Z"/><circle class="cls-6" cx="197.8" cy="93.58" r="3.77"/><circle class="cls-7" cx="134.23" cy="91.73" r="1.9"/><circle class="cls-7" cx="195.95" cy="91.73" r="1.75"/><path class="cls-8" d="M152.85,125.89S155,144.28,166.92,145v-13.6Z"/><path class="cls-8" d="M181,125.89s-2.17,18.39-14.09,19.08v-13.6Z"/><path class="cls-5" d="M166.92,90.65c-6.37,0-12.41,7.73-14.51,15.61-2.46,9.24-3.54,29,14.51,29.32Z"/><path class="cls-5" d="M166.92,90.65c6.38,0,12.43,7.73,14.52,15.61,2.47,9.24,3.55,29-14.52,29.32Z"/><path class="cls-9" d="M165,220.73c-13.15-19.66-16.5-43.88-16.5-43.88s21.11,12.34,34.26,32,16.51,43.89,16.51,43.89S178.13,240.39,165,220.73Z"/><path class="cls-10" d="M165,220.73c13.16,19.66,34.27,32,34.27,32l-50.77-75.89S151.83,201.07,165,220.73Z"/><path class="cls-9" d="M189.61,217c-.47-19.08,7.7-37,7.7-37s9.07,17.53,9.55,36.61-7.7,37.06-7.7,37.06S190.09,236.11,189.61,217Z"/><path class="cls-10" d="M189.61,217c.48,19.08,9.55,36.62,9.55,36.62L197.31,180S189.13,197.95,189.61,217Z"/><path class="cls-9" d="M168.24,260c-16-.14-30.79-7.49-30.79-7.49s14.93-7.09,30.92-7,30.79,7.49,30.79,7.49S184.22,260.15,168.24,260Z"/><path class="cls-10" d="M168.24,260c16,.14,30.92-7,30.92-7l-61.71-.53S152.25,259.87,168.24,260Z"/><path class="cls-9" d="M263.19,147.27c12.3-16.83,31.33-26.93,31.33-26.93s-3.83,21.21-16.12,38-31.33,26.94-31.33,26.94S250.9,164.11,263.19,147.27Z"/><path class="cls-10" d="M263.19,147.27c-12.28,16.84-16.11,38-16.11,38l47.44-65S275.49,130.45,263.19,147.27Z"/><path class="cls-9" d="M273.71,166.54c15.65-6.17,33-4.84,33-4.84s-11.76,12.81-27.41,19-33,4.84-33,4.84S258.06,172.71,273.71,166.54Z"/><path class="cls-10" d="M273.71,166.54c-15.66,6.17-27.42,19-27.42,19l60.4-23.82S289.36,160.38,273.71,166.54Z"/><path class="cls-9" d="M269.49,198.92c-13.79-2.9-25.29-11.83-25.29-11.83s14.13-3.53,27.91-.64,25.3,11.83,25.3,11.83S283.27,201.82,269.49,198.92Z"/><path class="cls-10" d="M269.49,198.92c13.79,2.9,27.92-.64,27.92-.64l-53.21-11.19S255.7,196,269.49,198.92Z"/><path class="cls-9" d="M244.74,259c15.44-6.08,32.56-4.77,32.56-4.77s-11.62,12.64-27,18.72-32.56,4.78-32.56,4.78S229.29,265.07,244.74,259Z"/><path class="cls-10" d="M244.74,259c-15.45,6.09-27,18.73-27,18.73l59.61-23.5S260.18,252.9,244.74,259Z"/><path class="cls-9" d="M240.58,290.94c-13.61-2.87-25-11.67-25-11.67s13.95-3.49,27.55-.63,25,11.67,25,11.67S254.18,293.79,240.58,290.94Z"/><path class="cls-10" d="M240.58,290.94c13.6,2.86,27.55-.63,27.55-.63l-52.52-11S227,288.07,240.58,290.94Z"/></g></g></svg>