<svg xmlns="http://www.w3.org/2000/svg" viewBox="0 0 287.8 64.22"><defs><style>.cls-1{fill:gray;}.cls-2{fill:#ff9707;}</style></defs><title>Asset 1</title><g id="Layer_2" data-name="Layer 2"><g id="Layer_1-2" data-name="Layer 1"><path class="cls-1" d="M96.39,16.56H71.19V6.62h37.3v9.51L88.11,57.6H75.51Z"/><path class="cls-2" d="M141.54,19.08a8.08,8.08,0,0,0-3.71-2.56,13.34,13.34,0,0,0-4.43-.82,11.79,11.79,0,0,0-2.52.28,10.42,10.42,0,0,0-2.45.9,5.44,5.44,0,0,0-1.87,1.62,4.12,4.12,0,0,0-.72,2.45,4.07,4.07,0,0,0,1.73,3.53,16.24,16.24,0,0,0,4.36,2.09q2.63.86,5.65,1.73a23.32,23.32,0,0,1,5.65,2.44A13.6,13.6,0,0,1,147.59,35a13,13,0,0,1,1.72,7.13,16.38,16.38,0,0,1-1.58,7.42,15.06,15.06,0,0,1-4.28,5.25,18.23,18.23,0,0,1-6.27,3.1,28.62,28.62,0,0,1-16.74-.51,23.08,23.08,0,0,1-7.92-4.89l8-8.79a11.73,11.73,0,0,0,4.36,3.57,12.42,12.42,0,0,0,5.44,1.26,12.11,12.11,0,0,0,2.77-.33,9,9,0,0,0,2.52-1,5.5,5.5,0,0,0,1.8-1.65,4.21,4.21,0,0,0,.68-2.38,4.33,4.33,0,0,0-1.76-3.64,16.38,16.38,0,0,0-4.43-2.26c-1.78-.63-3.7-1.25-5.76-1.88a25.66,25.66,0,0,1-5.76-2.52,13.78,13.78,0,0,1-4.43-4.17,12,12,0,0,1-1.76-6.84,15.29,15.29,0,0,1,1.62-7.2,15.66,15.66,0,0,1,4.32-5.19,18.82,18.82,0,0,1,6.23-3.13,25.66,25.66,0,0,1,7.27-1A28.79,28.79,0,0,1,142,6.55a19.31,19.31,0,0,1,7.27,4.11Z"/><path class="cls-2" d="M280,19.08a8,8,0,0,0-3.7-2.56,13.34,13.34,0,0,0-4.43-.82,11.65,11.65,0,0,0-2.52.28,10.26,10.26,0,0,0-2.45.9,5.35,5.35,0,0,0-1.87,1.62,4.12,4.12,0,0,0-.72,2.45,4,4,0,0,0,1.73,3.53,16.32,16.32,0,0,0,4.35,2.09c1.75.57,3.64,1.15,5.65,1.73a23.39,23.39,0,0,1,5.66,2.44A13.47,13.47,0,0,1,286.07,35a13,13,0,0,1,1.73,7.13,16.51,16.51,0,0,1-1.58,7.42,15.09,15.09,0,0,1-4.29,5.25,18.27,18.27,0,0,1-6.26,3.1,27.66,27.66,0,0,1-7.53,1,27.21,27.21,0,0,1-9.21-1.52A23.08,23.08,0,0,1,251,52.49l8-8.79a11.58,11.58,0,0,0,4.36,3.57,12.41,12.41,0,0,0,5.43,1.26,12,12,0,0,0,2.77-.33,8.81,8.81,0,0,0,2.52-1,5.3,5.3,0,0,0,1.8-1.65,4.14,4.14,0,0,0,.69-2.38,4.31,4.31,0,0,0-1.77-3.64,16.31,16.31,0,0,0-4.42-2.26c-1.78-.63-3.7-1.25-5.76-1.88a25.27,25.27,0,0,1-5.76-2.52,13.68,13.68,0,0,1-4.43-4.17,11.93,11.93,0,0,1-1.77-6.84,15.29,15.29,0,0,1,1.62-7.2A15.66,15.66,0,0,1,258.6,9.5a18.92,18.92,0,0,1,6.23-3.13,25.71,25.71,0,0,1,7.27-1,28.86,28.86,0,0,1,8.36,1.22,19.38,19.38,0,0,1,7.27,4.11Z"/><path class="cls-2" d="M158.1,6.62h34.63V17h-23.4V26.5h22.1V36.86h-22.1V47.23H194V57.6H158.1Z"/><path class="cls-2" d="M219.8,6.62h9.29l22.18,51H238.59L234.2,46.8H214.4l-4.25,10.8H197.77Zm4.32,14.84L217.93,37.3h12.46Z"/><path class="cls-2" d="M25.74,0s31.71,28.69,6,53.76c0,0,19-1.21,28.69-7.25C60.47,46.51,69.23,10.27,25.74,0Z"/><path class="cls-2" d="M24.94,0S35.29,41.5,0,48c0,0,18,5.38,29.4,5.75C29.4,53.76,55.33,32.76,24.94,0Z"/><path class="cls-2" d="M0,50.36s37.94,15,61.19-2.33C61.19,48,35.38,82.86,0,50.36Z"/></g></g></svg>