<svg xmlns="http://www.w3.org/2000/svg" viewBox="0 0 485.28 349.19"><defs><style>.cls-1{fill:#fdd114;opacity:0.91;}</style></defs><title>Asset 2</title><g id="Layer_2" data-name="Layer 2"><g id="Flag_country" data-name="Flag/country"><path class="cls-1" d="M377.8,349s-17.85-12.81-21.35-15.61c0,0-14.71-1.4-11.9-8.4a50.1,50.1,0,0,0-18.76,16.11S296,351.59,230,314.47v2.07S142.78,272.65,144.18,260c0,0-3.69-3.27,6.58-5.6,0,0,7-1.87,3.76-11.2l7.25-2.8s-14.82-51.36-30.69-49.49c0,0-22.17-16.34-21.24-37.35L97,148V135.39s-15.12-19.14-16.05-26.14c0,0-16-19.14-17.83-24.28,0,0-3.78-61.63-30.86-51.82,0,0-12.39,24.28,14.22,61.16l17.38,36.42,18.73,35.1-2.31,8.83,2.35,4.63s7.48-8.87,7,7.47c0,0,12.61,21.48-4.67,6.54,0,0-11.2-6.54-11.67-9.8,0,0-4.2-8.87-11.2-12.14,0,0-14.94-4.2-8.87-19.14,0,0,9.8-11.2-16.81-28.48L23.81,109.25l-8.87-14,7,2.33s.93,4.2,9.34,4.67c0,0,1.4-19.14-19.14-39.22L0,0S24.74,3.27,35.95,10.27l-2.33,2.8S64,35,67.23,33.15c0,0,16.81,13.07,34.08,13.07,0,0,31.75,7,31.75-4.67,0,0,15.41-10.27,49.49,30.81,0,0,6.54,28.95,22.88,24.28,0,0,21-22.88,40.83,4.67,0,0,29.2,61.63,41.34,53.22,0,0,29.41-4.2,5.14,24.28,0,0-2.8,48.55-.47,48.55,0,0,21.94,15.41,7.94,14.94,0,0,24.28,50.42,34.55,44.82,0,0,2.8,7.47,13.54,5.14,0,0,14.22,8.4,29.52-3.73,0,0,35.38-3.73,34.91-13.54,0,0,5.6,9.34,7.94,1.4,0,0,8.87,1.4-3.27-7.47,0,0,11.2,6.07.93-23.34,0,0,6.07-16.34,61.16-21.48,0,0,13.07,7,0,24.28,0,0,7.94,0,3.27,22.88,0,0,5.6,10.74-7,18.21l-6.07-14s-7.94,3.27-9.8,16.81c0,0-7.47,14-43.89,7.94l-.47,8.4-13.54.93s12.14,11.67,20.08,16.34c0,0,3.27,4.2-27.08,3.27C395,329.14,381.37,351.55,377.8,349Z"/></g></g></svg>