<svg xmlns="http://www.w3.org/2000/svg" viewBox="0 0 1312 566.82"><defs><style>.cls-1{fill:#00649b;}.cls-2{fill:#fff;}.cls-3{fill:#e5e5e5;}.cls-4{fill:#004f73;}</style></defs><title>moutain</title><g id="Layer_2" data-name="Layer 2"><g id="Drawings"><path class="cls-1" d="M1147,316.82c-31-4-104-29-157-100,0,0,0,9-12,8-22-23-22-4-14,13,0,0-24-30-58-50s0,47,24,91-98-68-107-79-21-15-3-45c0,0-34,36-94,76,0,0,0-8-9-27s-22,38-31,69-11-28-11-45-5-20-13-12c-7-42-17-36-66,20,13-50-25-30-56,0,0,0,10-14,4-30-33.06,28.91-69.82,57.77-111,82-187,110-330,224-433,279H1312v-117C1254,423.82,1176,367.82,1147,316.82Z"/><path class="cls-2" d="M540,235.82c31-30,69-50,56,0,49-56,59-62,66-20,8-8,13-5,13,12s2,76,11,45,22-88,31-69,9,27,9,27c60-40,94-76,94-76-18,30-6,34,3,45s131,123,107,79-58-111-24-91,58,50,58,50c-8-17-8-36,14-13,12,1,12-8,12-8,53,71,126,96,157,100-119-71-299-267-327-314-8-12-20,19-45,6-7-3-33,11-44,1-8.5-7.73-74.39,97.5-187,196C550,221.82,540,235.82,540,235.82Z"/><path class="cls-3" d="M749,58.82c-10,54-13,85-13,85-32,41-47,73-52,111-7-108,33-162,33-162C724,85.82,752,40.82,749,58.82Z"/><path class="cls-3" d="M900,121.82c29,24,75,62,75,62-9,13-28,5-30,15C909,134.82,887,116.82,900,121.82Z"/><path class="cls-3" d="M780,54.82c12,27-9,24,35,83s71,99,71,99c-17-46-11-64-3-72s10-26-10-44-50-58-57-74S776,43.82,780,54.82Z"/><path class="cls-4" d="M928,356.82c31,39,64,42,64,42,0,38,20,68,20,68,47-18,76-84,74-103,19,72-30,155-30,155,26,24,58.33,48,58.33,48H1089c-24-12-52-36-52-36-25,26-52,36-52,36H896.23c18.77-39,75.77-73,84.77-88C946,435.82,924,395.82,928,356.82Z"/><path class="cls-4" d="M652,397.82c14,32,54,86,54,86,30,6,43,0,43,0,7-17,5-42,5-42,36,31,22.33,125,22.33,125H701c-3-48-74-112-74-112C633,431.82,652,397.82,652,397.82Z"/><path class="cls-4" d="M189.67,566.82c76.33-35,174.33-139,174.33-139,8,9,28,9,28,9,35-42,66-54,66-54,31,25,35,46,35,46-69,4-54,40-54,40-69,4-38,40,69,98Z"/><path class="cls-4" d="M1176,408.82c26,39,62,64.67,136,70.33v63.33C1239,521.82,1174,428.82,1176,408.82Z"/></g></g></svg>