<svg xmlns="http://www.w3.org/2000/svg" viewBox="0 0 821.04 275"><defs><style>.cls-1{fill:#fff;}.cls-2{fill:#c8c9c9;}.cls-3{fill:#a7a9aa;}.cls-4{fill:#dadbda;}.cls-5{fill:#47433f;}.cls-6{fill:#e7e8e6;}.cls-7{fill:#b2b2b2;}</style></defs><title>opera</title><g id="Layer_2" data-name="Layer 2"><g id="Buildings"><rect id="_Path_" data-name="&lt;Path&gt;" class="cls-1" x="221.07" y="143.56" width="117.98" height="109.81"/><path id="_Path_2" data-name="&lt;Path&gt;" class="cls-2" d="M234,274.17l51.79-23.25s33.51,7.75,58.91-15.6c0,0,30.24-12.65,59.88-10.56H609.66s38.75-1.38,40.13-10.56c0,0-9.12-10.6,70.43,0,0,0,7,0,13.09-11.87a15.29,15.29,0,0,0,1.06-2.24S740,189.48,790,205.7c0,0,3.51,14.84,31,11.32v57.15Z"/><path id="_Path_3" data-name="&lt;Path&gt;" class="cls-3" d="M711.91,148s45.12-28.21,80.36-18.32l-15.48,88.75H740.13L731,235.37l-14.87-2.09Z"/><path id="_Path_4" data-name="&lt;Path&gt;" class="cls-1" d="M707,82.4s20.42,95.17,13.39,150.88H709.83L695,213.53,653.5,223.4l-7.07,19-21.19,8.41L634.4,98.64Z"/><path id="_Path_5" data-name="&lt;Path&gt;" class="cls-1" d="M345.16,145.34s.3-.92,1-2.54c7-18.19,52.55-127.31,141.05-142.8,0,0,20.42,35.29,34.48,119.82L493.51,186S345.52,187.76,345.16,145.34Z"/><path id="_Path_6" data-name="&lt;Path&gt;" class="cls-2" d="M634.4,98.64,707,82.4s-57,64.21-81.79,168.45Z"/><path id="_Path_7" data-name="&lt;Path&gt;" class="cls-4" d="M490,165.55S524.51,55,648.52,14.82c0,0-1.43,146.56-23.28,236l-19.7-6.32Z"/><path id="_Path_8" data-name="&lt;Path&gt;" class="cls-2" d="M118.6,197.38s66.26,43,77.51,66.86h19l-3.51-82.76S153.79,176.29,118.6,197.38Z"/><path id="_Path_9" data-name="&lt;Path&gt;" class="cls-1" d="M110.86,269.9S67.83,216.43,6.52,186c0,0,102.21-35.24,189.59,78.22v5.65Z"/><path id="_Path_10" data-name="&lt;Path&gt;" class="cls-5" d="M6.52,186s7.08,28.21,17.63,43c0,0-21.85,23.23-22.51,35.19H106S62.9,193.11,6.52,186Z"/><path id="_Path_11" data-name="&lt;Path&gt;" class="cls-6" d="M362.42,138.82s121.2-27.45,262.81,112H405.4Z"/><path id="_Path_12" data-name="&lt;Path&gt;" class="cls-5" d="M24.14,229.06v-38.7S70.64,207.26,106,264.24H1.64S4.23,249.93,24.14,229.06Z"/><rect id="_Path_13" data-name="&lt;Path&gt;" class="cls-1" y="263.02" width="146.31" height="11.98"/><path id="_Path_14" data-name="&lt;Path&gt;" class="cls-7" d="M186.18,181s3.46,25.41-16.2,54.33l26.13,28.88h19l-3.51-82.76Z"/><path id="_Path_15" data-name="&lt;Path&gt;" class="cls-5" d="M215.1,112.8s-8.45,102.14,0,138.05h26.07s2.1-91.41,28.21-91.46Z"/><path id="_Path_16" data-name="&lt;Path&gt;" class="cls-2" d="M320.82,264.6S294,186,215.1,112.8c0,0,67-18.33,149.46,46.49,0,0,14.73,67.57,32.39,84.53C397,243.82,355.39,259.71,320.82,264.6Z"/><path id="_Path_17" data-name="&lt;Path&gt;" class="cls-5" d="M361.17,138.82s2,36.2,30.1,112h36.81S391,174.1,361.17,138.82Z"/><path id="_Path_18" data-name="&lt;Path&gt;" class="cls-2" d="M427.25,250.85s49-53.47,65.13-91.77L503,163.77s-36.56,58.93-62.48,87.08Z"/><path id="_Path_19" data-name="&lt;Path&gt;" class="cls-2" d="M492.38,159.09s26.48,48.12,29.28,91.77h5.9s-3.82-32.64-24.54-87.08Z"/><path id="_Path_20" data-name="&lt;Path&gt;" class="cls-2" d="M503,166.63s97.56,61,111.73,84.23h10.48S564.95,189.24,503,163.77C478.58,153.68,503,166.63,503,166.63Z"/><path id="_Path_21" data-name="&lt;Path&gt;" class="cls-2" d="M463.25,222.59l56,9.73h4.89l47.57-19.41s-62-47.36-70.43-47.36C501.25,165.55,480.37,187.25,463.25,222.59Z"/><path id="_Path_22" data-name="&lt;Path&gt;" class="cls-5" d="M440.55,250.85s19.7-23.48,22.7-28.26l56,9.73,2.45,18.53Z"/><path id="_Path_23" data-name="&lt;Path&gt;" class="cls-5" d="M524,231.86l3.57,19h87.19s-29.13-32.95-43.13-37.94Z"/><polygon id="_Path_24" data-name="&lt;Path&gt;" class="cls-5" points="646.43 242.45 709.83 233.28 695.01 213.53 653.5 223.4 646.43 242.45"/><polygon id="_Path_25" data-name="&lt;Path&gt;" class="cls-5" points="730.96 235.37 740.13 218.46 776.79 218.46 776.79 235.37 730.96 235.37"/><polygon id="_Path_26" data-name="&lt;Path&gt;" class="cls-5" points="139.28 265.76 192.54 250.85 241.17 250.85 285.79 250.85 264.14 275 139.28 275 139.28 265.76"/></g></g></svg>