<svg xmlns="http://www.w3.org/2000/svg" xmlns:xlink="http://www.w3.org/1999/xlink" viewBox="0 0 471.28 568.2"><defs><style>.cls-1,.cls-18,.cls-19,.cls-2,.cls-20,.cls-21,.cls-3{fill:none;}.cls-18,.cls-19,.cls-2,.cls-20,.cls-21,.cls-3{stroke:#000;}.cls-2{stroke-width:10.64px;}.cls-3{stroke-width:11.6px;}.cls-4{fill:#f68280;stroke:#cb1e01;stroke-opacity:0.83;stroke-width:0.86px;}.cls-10,.cls-15,.cls-17,.cls-25,.cls-26,.cls-27,.cls-28,.cls-29,.cls-30,.cls-31,.cls-32,.cls-5,.cls-7{fill:#ff2a2a;fill-opacity:0.97;}.cls-10,.cls-15,.cls-17,.cls-25,.cls-26,.cls-27,.cls-28,.cls-29,.cls-30,.cls-31,.cls-32,.cls-5{stroke-linecap:round;stroke-width:6.06px;}.cls-5{stroke:url(#linear-gradient);}.cls-11,.cls-12,.cls-13,.cls-14,.cls-16,.cls-22,.cls-23,.cls-24,.cls-6,.cls-8,.cls-9{fill:#ff8080;}.cls-11,.cls-13,.cls-22,.cls-24,.cls-6,.cls-8{stroke:#f20000;}.cls-6{stroke-width:0.82px;}.cls-8{stroke-width:0.89px;}.cls-9{stroke:#f71e3c;stroke-opacity:0.94;stroke-width:1.38px;}.cls-10{stroke:url(#linear-gradient-2);}.cls-11{stroke-width:0.8px;}.cls-12{stroke:#f12727;}.cls-12,.cls-23{stroke-width:0.96px;}.cls-13{stroke-width:1px;}.cls-14{stroke:#f02614;stroke-width:0.94px;}.cls-15{stroke:url(#linear-gradient-3);}.cls-16{stroke:#d41515;stroke-width:0.85px;}.cls-17{stroke:url(#linear-gradient-4);}.cls-18{stroke-width:12.9px;}.cls-19{stroke-width:10px;}.cls-20{stroke-width:10.8px;}.cls-21{stroke-width:7.8px;}.cls-22{stroke-width:1px;}.cls-23{stroke:#e51515;}.cls-24{stroke-width:0.7px;}.cls-25{stroke:url(#linear-gradient-5);}.cls-26{stroke:url(#linear-gradient-6);}.cls-27{stroke:url(#linear-gradient-7);}.cls-28{stroke:url(#linear-gradient-8);}.cls-29{stroke:url(#linear-gradient-9);}.cls-30{stroke:url(#linear-gradient-10);}.cls-31{stroke:url(#linear-gradient-11);}.cls-32{stroke:url(#linear-gradient-12);}</style><linearGradient id="linear-gradient" x1="-733.83" y1="3525.71" x2="-653.61" y2="3525.71" gradientTransform="matrix(-0.82, 0.89, -0.69, -0.63, 2492.89, 2425.03)" gradientUnits="userSpaceOnUse"><stop offset="0"/><stop offset="1" stop-opacity="0"/></linearGradient><linearGradient id="linear-gradient-2" x1="-820.63" y1="3688.8" x2="-740.41" y2="3688.8" gradientTransform="matrix(-0.82, 0.89, -0.69, -0.63, 2892.55, 2437.44)" gradientUnits="userSpaceOnUse"><stop offset="0" stop-color="#d3b8d8"/><stop offset="1" stop-color="#d3b8d8" stop-opacity="0"/></linearGradient><linearGradient id="linear-gradient-3" x1="-337.22" y1="4261.65" x2="-257" y2="4261.65" gradientTransform="matrix(-0.44, 0.48, -0.59, -0.54, 2910.48, 2366.85)" xlink:href="#linear-gradient"/><linearGradient id="linear-gradient-4" x1="-1716.35" y1="4022.81" x2="-1636.13" y2="4022.81" gradientTransform="matrix(-0.45, 0.75, -0.76, -0.34, 2719.71, 2343.38)" xlink:href="#linear-gradient"/><linearGradient id="linear-gradient-5" x1="-176.13" y1="3264.52" x2="-95.91" y2="3264.52" gradientTransform="matrix(0.09, -1.21, -0.93, -0.07, 3077.57, 1116.39)" xlink:href="#linear-gradient"/><linearGradient id="linear-gradient-6" x1="-262.92" y1="3427.61" x2="-182.71" y2="3427.61" gradientTransform="matrix(0.09, -1.21, -0.93, -0.07, 3359.8, 1399.64)" xlink:href="#linear-gradient-2"/><linearGradient id="linear-gradient-7" x1="702.25" y1="3955.33" x2="782.47" y2="3955.33" gradientTransform="matrix(0.05, -0.65, -0.8, -0.06, 3320.53, 1460.97)" xlink:href="#linear-gradient"/><linearGradient id="linear-gradient-8" x1="-893.62" y1="3895.63" x2="-813.4" y2="3895.63" gradientTransform="matrix(0.24, -0.84, -0.77, -0.33, 3173, 1337.76)" xlink:href="#linear-gradient"/><linearGradient id="linear-gradient-9" x1="-661.35" y1="3522.81" x2="-581.14" y2="3522.81" gradientTransform="matrix(-0.5, 1.1, -0.85, -0.39, 3049.94, 1640.79)" xlink:href="#linear-gradient"/><linearGradient id="linear-gradient-10" x1="-748.15" y1="3685.9" x2="-667.93" y2="3685.9" gradientTransform="matrix(-0.5, 1.1, -0.85, -0.39, 3434.09, 1529.81)" xlink:href="#linear-gradient-2"/><linearGradient id="linear-gradient-11" x1="-202.13" y1="4258.25" x2="-121.91" y2="4258.25" gradientTransform="matrix(-0.27, 0.59, -0.73, -0.33, 3429.46, 1457.13)" xlink:href="#linear-gradient"/><linearGradient id="linear-gradient-12" x1="-1620.14" y1="4040.69" x2="-1539.92" y2="4040.69" gradientTransform="matrix(-0.2, 0.86, -0.83, -0.08, 3240.7, 1493.4)" xlink:href="#linear-gradient"/></defs><title>rflowers</title><g id="Layer_2" data-name="Layer 2"><g id="Drawings"><g id="layer1"><path id="path2164" class="cls-1" d="M106.74,115.44l355.14,216"/><path id="path2166" class="cls-2" d="M368.73,7.5,350.15,114.58l17.25,73.13-4.62,82.61"/><path id="path3139" class="cls-3" d="M88.43,82.91l81.32,33.25,96.87,88.52L424,313.75,462.61,349"/><path id="path3259" class="cls-2" d="M354.39,200.64l12.55,9.92"/><path id="path3261" class="cls-2" d="M378.06,143.19l-15.8,21.23"/><path id="path3265" class="cls-2" d="M344.64,139l12.25,5"/><path id="path3267" class="cls-2" d="M337.06,102.62l14,9.67"/><path id="path3269" class="cls-2" d="M370.87,76.14,353.34,92.69"/><path id="path3271" class="cls-2" d="M351,34.75l10.89,13.05"/><path id="path3273" class="cls-2" d="M107.33,108.23l26-8.77"/><path id="path3275" class="cls-2" d="M172.69,65.61l-3.23,48.22"/><path id="path3277" class="cls-2" d="M170,142.2l21.64-6.59"/><path id="path3279" class="cls-2" d="M208.89,122,206,148.77"/><path id="path3281" class="cls-2" d="M207.76,182.93l27.16-4.63"/><path id="path3289" class="cls-2" d="M289.64,192.63l7.94,32.06"/><path id="path3291" class="cls-2" d="M296.18,248.7l24-6.87"/><path id="path3293" class="cls-2" d="M382.75,214.3l-16.87,17.15"/><path id="path3233" class="cls-2" d="M238.54,206.93l27-3.55"/><path id="path3219" class="cls-4" d="M169.71,50.48c-1.31-2.29-5.11-8.54.94-11.54,3.12-1.55,8.32-.86,9.45-3.77s4.59-11.31,9.69-6.66c3.22,2.94,4.33,6,2.68,10.21a35.33,35.33,0,0,1-7.3,11.93c-6.82,7.47,0,1.27,3.74-2.78,2.6-2.84,8.38-11.14,11.35-9.79,6.65,3,2.37,5.23,3.46,9.36.74,2.83,3.54,6.64-.17,10.7-3.39,3.71-8.42,9.33-11.88,7.75l-6.78-3.09c3.46,1.58,6.1,2.47,10.05,6.09s1.36,8.21-3.79,12c-5.37,4-3.53,5.18-8.61,10.74-4.59,5-8.12,3.17-9.63-2.6-1-3.76-6.53-13.48-5.54-9.71.74,2.8,3.52,6.38,2.68,10.21-.69,3.19-1.23,13-8.19,14.22-5.57,1-4.95.13-8.86-3.45-2.46-2.25-10.55.06-10.29-3.2.1-1.19,1-11.55,6.65-12.53,4.34-.75,6.17-1.87,11-5.46,4.61-3.43,6.29-8.19,2.43-4-3,3.23-9.25,5.66-12.3,4.26-3.9-1.78-9.35-4.23-4.88-9.11,5.91-6.47,1.85-5.95,4.33-10,3.11-5.08,5.78-9,11.77-6.3,4.32,2,9.69,6.91,10.47,9.57C168.07,57.3,172.76,55.83,169.71,50.48Z"/><path id="path3221" class="cls-5" d="M173.73,76.62c-4.86,1.6-8.9-.9-9.07-5.61s3.68-10,8.59-11.68,9,.8,9.2,5.56-3.68,10-8.59,11.68"/><path id="path3263" class="cls-6" d="M383.87,199.4c-1-1.77-3.94-6.58.71-8.89,2.4-1.19,6.4-.65,7.27-2.89s3.52-8.7,7.45-5.11c2.48,2.27,3.34,4.6,2.08,7.86a27.1,27.1,0,0,1-5.61,9.18c-5.25,5.74,0,1,2.88-2.14,2-2.19,6.44-8.57,8.73-7.52,5.12,2.34,1.83,4,2.67,7.21.58,2.18,2.73,5.11-.12,8.24-2.61,2.85-6.47,7.17-9.14,6l-5.22-2.39c2.66,1.22,4.7,1.91,7.75,4.7s1.05,6.32-2.91,9.26c-4.13,3.06-2.71,4-6.62,8.26-3.53,3.86-6.25,2.43-7.42-2-.77-2.9-5-10.38-4.27-7.48.57,2.16,2.71,4.92,2.08,7.86-.53,2.45-.93,10-6.29,10.94-4.29.74-3.81.09-6.83-2.66-1.9-1.73-8.13,0-7.93-2.47.07-.92.72-8.89,5.11-9.64,3.34-.57,4.75-1.44,8.46-4.19,3.54-2.63,4.83-6.3,1.87-3.06-2.27,2.48-7.11,4.35-9.47,3.27-3-1.38-7.2-3.27-3.77-7,4.54-5,1.42-4.57,3.32-7.69,2.39-3.9,4.44-6.95,9.05-4.84,3.32,1.52,7.47,5.33,8.07,7.38C382.61,204.64,386.23,203.52,383.87,199.4Z"/><path id="path3266" class="cls-7" d="M386.35,218.93c-3.74,1.23-6.86-.7-7-4.33s2.82-7.69,6.6-9,7,.63,7.09,4.29-2.82,7.69-6.6,9"/><path id="path3431" class="cls-8" d="M279.3,247.75c-2.63-.72-9.88-2.87-10,1.88,0,2.45,2.83,6.19.7,7.32s-8.18,4.53-1.79,7.79c4,2.06,7.24,2.56,10.33.92a18.77,18.77,0,0,0,7.56-6.59c3.76-5.78,1.16-.1-.88,3-1.43,2.2-6.39,7.3-3.89,9.34,5.6,4.57,5.72,1.2,9.91,1.57,2.86.25,7.5,1.92,9.54-1.23,1.87-2.87,4.74-7.14,1.82-9.52l-5.71-4.66a45.55,45.55,0,0,0,9.82,6.75c5.05,2.58,8,.15,9.18-4,1.26-4.35,3.12-3.12,5.92-7.43,2.53-3.88-.66-6.28-6.5-6.8-3.81-.34-14.93-3.4-11.12-3.06,2.84.25,7.25,1.92,10.33.92,2.57-.84,11.16-2.24,9.24-7.48-1.54-4.19-2-3.65-6.93-6.15-3.09-1.58-4.51-7.75-7.32-7.22-1,.19-10,1.89-8.38,6.17,1.2,3.26,1,4.72-.15,8.63-1.08,3.73-4.64,5.46-2.52,2.2,1.63-2.5,1.09-7.37-1.49-9.47-3.29-2.68-7.84-6.42-10.3-2.64-3.26,5-4.54,2-7.11,4.21-3.22,2.8-5.62,5.18-.58,9.28,3.64,3,10.4,6.4,13.13,6.7C284.71,245.85,285.42,249.44,279.3,247.75Z"/><path id="path3433" class="cls-7" d="M304.52,248c-.66-3.73-4.66-6.44-9-6.08s-7.39,3.73-6.78,7.51,4.63,6.55,9,6.18,7.39-3.73,6.78-7.51"/><path id="path3487" class="cls-9" d="M368.17,56.65c-1.31-2.29-5.11-8.54.94-11.54,3.12-1.55,8.32-.86,9.45-3.77s4.59-11.31,9.69-6.66c3.22,2.94,4.33,6,2.68,10.21a35.33,35.33,0,0,1-7.3,11.93c-6.82,7.47,0,1.27,3.74-2.78,2.6-2.84,8.38-11.14,11.35-9.79,6.65,3,2.37,5.23,3.46,9.36.74,2.83,3.54,6.64-.17,10.7-3.39,3.71-8.42,9.33-11.88,7.75L383.34,69c3.46,1.58,6.1,2.47,10.05,6.09s1.36,8.21-3.79,12c-5.37,4-3.53,5.18-8.61,10.74-4.59,5-8.12,3.17-9.63-2.6-1-3.76-6.53-13.48-5.54-9.71.74,2.8,3.52,6.38,2.68,10.21-.69,3.19-1.23,13-8.19,14.22-5.57,1-4.95.13-8.86-3.45-2.46-2.25-10.55.06-10.29-3.2.1-1.19,1-11.55,6.65-12.53,4.34-.75,6.17-1.87,11-5.46,4.61-3.43,6.29-8.19,2.43-4-3,3.23-9.25,5.66-12.3,4.26-3.9-1.78-9.35-4.23-4.88-9.11,5.91-6.47,1.85-5.95,4.33-10,3.11-5.08,5.78-9,11.77-6.3,4.32,2,9.69,6.91,10.47,9.57C366.52,63.46,371.22,62,368.17,56.65Z"/><path id="path3489" class="cls-10" d="M372.19,82.79c-4.86,1.6-8.9-.9-9.07-5.61s3.68-10,8.59-11.68,9,.8,9.2,5.56-3.68,10-8.59,11.68"/><path id="path3513" class="cls-11" d="M363.71,198.8c1.79.79,6.67,3.12,8.61-1.67,1-2.47.21-6.31,2.34-7.4s8.25-4.39,4.49-7.82c-2.37-2.17-4.7-2.75-7.8-1.16a28.16,28.16,0,0,0-8.57,6.47c-5.24,5.74-1,.07,1.89-3,2-2.19,7.92-7.21,6.75-9.33-2.62-4.73-4-1.34-7.2-1.81-2.16-.32-5.17-2.1-8,1-2.61,2.85-6.56,7.09-5.19,9.56l2.68,4.83c-1.36-2.46-2.17-4.37-5.09-7s-6.23-.34-8.83,3.85c-2.71,4.36-3.7,3.08-7.61,7.35-3.53,3.86-2,6.35,2.45,7,2.88.43,10.45,3.77,7.57,3.35-2.14-.32-5-2.11-7.8-1.16-2.36.79-9.7,2-10.24,7.33-.43,4.26.16,3.72,3,6.36,1.82,1.66.51,7.92,2.94,7.45.89-.17,8.61-1.68,9.06-6,.34-3.32,1.08-4.78,3.52-8.7,2.33-3.74,5.82-5.4,2.86-2.16-2.27,2.48-3.76,7.41-2.56,9.58,1.54,2.78,3.66,6.66,7.09,2.9,4.54-5,4.36-1.88,7.27-4.08,3.65-2.75,6.48-5.09,4.12-9.35-1.7-3.07-5.69-6.69-7.73-7.06C358.68,200.6,359.53,197,363.71,198.8Z"/><path id="path3515" class="cls-7" d="M344.51,198.53c-.95,3.78,1.14,6.61,4.68,6.34s7.3-3.59,8.31-7.42-1.07-6.71-4.65-6.44-7.3,3.59-8.31,7.42"/><path id="path3572" class="cls-12" d="M368.8,11.73c2.71-.33,11.7,1.73,6.11,8.44s-.87,2.22-.39,9.24c.24,3.57-.27,10.25-5.41,10.88-4.79.59-6.4-1-10.17-1.81-3.19-.65-7.05-3.61-4.07.5,2,2.77,8.7.79,8.14,5.12-.17,1.31-1.95,9.43-4.46,9.75-6.76.84-4.05,1.23-8.4,3.08-3,1.27-8.17,3.47-8.55-2-.32-4.63,1.8-19.2.25-14.33A48.52,48.52,0,0,0,340,49c-.55,4.25-3.81,9.88-7.58,9.11-1.8-.37-10.19.08-9.23-2.95,2.24-7.07.16-5.53-1.1-10.08-1.16-4.2-1.87-11,3.1-11.62,3.81-.47,14.38,1.38,11.26-.37l-3-1.67c-2.91-1.63-10.43.18-9.91-3.88.79-6.1.56-10.28,5.41-10.88,5.73-.71,3.69-7.95,8.67-5.16,1.95,1.09,6.06,4.68,6.25,7.4.36,5.21,1.4,8.48.81-.1-.22-3.23-.15-9.68,1.74-13.5,3.86-7.76,4.78-1,6.64-1.84s4-2.54,6-2.78c5-.62,7.1-.2,4.62,7.6-1.25,4-2.79,14.26-5.27,16C361.48,17,362.81,12.47,368.8,11.73Z"/><path id="path3582" class="cls-7" d="M348,40.77c-4.92,1.22-9.33-1.68-9.91-6.52A10.75,10.75,0,0,1,346,23c5-1.3,9.45,1.6,10,6.49a10.75,10.75,0,0,1-7.92,11.21"/><path id="path3592" class="cls-6" d="M208.74,132.09c.64,2,2.55,7.5-2.23,9-2.47.78-6.13-.51-7.34,1.64s-4.84,8.31-7.9,3.89c-1.93-2.79-2.33-5.35-.57-8.47a28,28,0,0,1,6.89-8.42c5.94-4.94.14-1-3.08,1.67-2.26,1.88-7.56,7.64-9.52,6.14-4.4-3.35-1-4.48-1.24-7.91-.16-2.35-1.67-5.77,1.56-8.46,3-2.46,7.34-6.2,9.64-4.45l4.49,3.42c-2.29-1.74-4.08-2.83-6.46-6.26s.12-6.7,4.36-9c4.42-2.4,3.25-3.6,7.67-7.28,4-3.32,6.3-1.36,6.62,3.44.21,3.12,2.91,11.61,2.7,8.49-.16-2.33-1.69-5.56-.57-8.47.93-2.43,2.64-10.14,7.84-10.11,4.16,0,3.6.6,5.95,4,1.48,2.14,7.64,1.46,7,4-.23.93-2.24,9-6.49,9-3.24,0-4.71.6-8.69,2.76-3.79,2.06-5.65,5.6-2.3,2.81,2.57-2.14,7.45-3.17,9.47-1.62,2.58,2,6.19,4.69,2.31,7.92-5.15,4.28-2.14,4.45-4.48,7.31-2.93,3.58-5.4,6.34-9.36,3.32-2.86-2.18-6.08-6.86-6.29-9.08C210.85,126.92,207.25,127.41,208.74,132.09Z"/><path id="path3594" class="cls-7" d="M209.85,111.53c3.73-.58,6.32,2,5.81,5.74a10,10,0,0,1-7.78,8c-3.78.64-6.43-1.92-5.91-5.72a10,10,0,0,1,7.78-8"/><path id="path3604" class="cls-13" d="M119.56,104.12c3,.07,11.2.41,11.14-4.84,0-2.71-3.37-6-1-7.87s9-7.27,1.77-9.08c-4.6-1.14-8.21-.81-11.64,1.86a29,29,0,0,0-8.3,9.36c-4,7.41-1.3.43.9-3.59,1.54-2.82,7-9.81,4.08-11.36-6.44-3.47-6.47.27-11.18,1-3.23.52-8.48,0-10.68,4-2,3.68-5.11,9.18-1.75,11l6.57,3.54c-3.35-1.81-5.59-3.3-11.24-4.7s-9,2-10.19,7c-1.28,5.14-3.41,4.31-6.43,9.82-2.72,5,.94,6.73,7.52,5.68,4.29-.69,16.89-.41,12.59.28-3.19.51-8.21-.1-11.64,1.86-2.86,1.64-12.48,5.57-10.15,10.8,1.86,4.18,2.39,3.45,8,4.84,3.52.88,5.31,7.28,8.46,5.91,1.15-.5,11.14-4.85,9.23-9.13-1.45-3.26-1.25-4.92-.1-9.55,1.1-4.41,5-7.3,2.77-3.12-1.75,3.2-1,8.42,2,10,3.78,2,9,4.89,11.66,0,3.5-6.42,5-3.43,7.86-6.61,3.53-4,6.15-7.26.36-10.38-4.18-2.25-11.89-4.15-15-3.73C113.53,107.72,112.62,104,119.56,104.12Z"/><path id="path3606" class="cls-7" d="M91.2,110.84c.86,3.93,5.43,5.8,10.26,4.2s8.18-6.16,7.38-10.15-5.4-5.92-10.28-4.31-8.18,6.16-7.38,10.15"/><path id="path3610" class="cls-8" d="M341.27,79.62c2.47-2.28,9.41-8.55,5.23-9.76-2.16-.62-7.49,1.17-7-1.09s1.62-8.72-5.72-3.53c-4.63,3.28-7.31,6.15-8,9.43-.59,2.86-.88,5.74.64,8.64,2.55,4.89-.71,1.11-2.1-1.55-1-1.86-2.09-7.71-5.64-5.86-8,4.15-5,5.06-8.27,8.88-2.21,2.62-6.91,6.55-5.52,9.21,1.27,2.43,3.09,6.13,7.24,4l8.12-4.23a88.8,88.8,0,0,0-12.84,7.56c-5.81,4.11-5.66,7.4-2.77,9.53s.62,3.66,2.53,7.3c1.72,3.29,6.07.88,10.59-4.46,2.94-3.48,13.39-13.14,10.45-9.66-2.19,2.59-6.75,6.32-8,9.43-1,2.6-5.74,11,.28,10.41,4.81-.44,4.66-1,10.3-5,3.55-2.51,10.05-2.37,11.53-5.12.54-1,5.22-9.76.3-9.31-3.75.35-4.9-.2-7.61-2.2s-1.66-5.64-.21-2.88c1.11,2.11,5.83,2.77,9.49.86,4.67-2.43,11.18-5.8,9.5-9-2.21-4.23,1.39-4.71,1.17-7.65-.27-3.67-.73-6.48-7.89-2.75C341.9,83.52,334.14,89,332,91.5,339.22,85.13,335.52,84.94,341.27,79.62Z"/><path id="path3612" class="cls-7" d="M323.55,103.13c3.8.27,9-2.82,11.65-6.93s1.79-7.79-2-8.12-9.06,2.76-11.75,6.92-1.79,7.79,2,8.12"/><path id="path3616" class="cls-6" d="M333.24,126c-1-1.77-3.94-6.58.71-8.89,2.4-1.19,6.4-.65,7.27-2.89s3.52-8.7,7.45-5.11c2.48,2.27,3.34,4.6,2.08,7.86a27.1,27.1,0,0,1-5.61,9.18c-5.24,5.74,0,1,2.88-2.14,2-2.19,6.44-8.57,8.73-7.52,5.12,2.34,1.83,4,2.67,7.21.58,2.18,2.73,5.11-.12,8.24-2.61,2.85-6.47,7.17-9.14,6l-5.22-2.39c2.66,1.22,4.7,1.91,7.75,4.7s1.05,6.32-2.91,9.26c-4.13,3.06-2.71,4-6.62,8.26-3.53,3.86-6.25,2.43-7.42-2-.77-2.9-5-10.38-4.27-7.48.57,2.16,2.71,4.92,2.08,7.86-.53,2.45-.93,10-6.29,10.94-4.29.74-3.81.09-6.83-2.66-1.9-1.73-8.13,0-7.93-2.47.07-.92.72-8.89,5.11-9.64,3.34-.57,4.75-1.44,8.46-4.19,3.54-2.63,4.83-6.3,1.87-3.06-2.27,2.48-7.11,4.35-9.47,3.27-3-1.38-7.2-3.27-3.77-7,4.54-5,1.42-4.57,3.32-7.69,2.39-3.9,4.44-6.95,9.05-4.84,3.32,1.52,7.47,5.33,8.07,7.38C332,131.24,335.59,130.12,333.24,126Z"/><path id="path3618" class="cls-7" d="M335.71,145.52c-3.74,1.23-6.86-.7-7-4.33s2.82-7.69,6.6-9,7,.63,7.09,4.29-2.82,7.69-6.6,9"/><path id="path3622" class="cls-14" d="M299.74,175.1c3.52-.75,7.72-.41,10.05,3.15,1.25,1.92-2.48,6-.37,6.07,3.71.17,6.08,1.28,5.69,5.67-.25,2.78.33,6.11-3.8,5.92L301,195.45c-2.26-.1-10.79.2-4.69.47,3.66.16,8-.72,9.25,2.44.88,2.16,2.76,8.23.07,8.8-3.24.69-7.73-.13-9.27,1.62s-5.57,4.07-6.53,1.74a47.83,47.83,0,0,1-2-8.21c-.39-2.42-1.81-10-2-4.15-.12,3,1.23,7.47.3,10.16s-2,3.29-6.3,3.1c-2.51-.11-9.19-1.22-8.9-4.46.52-5.76-3.15-2.62-3.75-6.26-.37-2.27.76-6.51,2.1-8,2.48-2.81,3.5-2.55,8.47-2.33,7.86.35-.19,1.16-2.74-.12-1.51-.76-7.33-.73-9.25-2.44-.54-.48-6.53-5.26-3.17-6.91,2.74-1.35,4.24-1.21,4.6-5.21.38-4.21,3.11-2.2,6.75-.38,2.81,1.41,8.34,9.25,7.18,6.41-.84-2.06-1.53-4.14-2.37-6.2-.47-1.15-3.68-8.51.15-7.44,1.49.42,7.55,4,8.79,3.78.83-.18,6.67-4.07,7.79-2.36,2.12,3.26,1.59,3.45.43,6.79-.8,2.29-3.87,4.66-3.58,7.28C295.36,180.9,296.06,175.88,299.74,175.1Z"/><path id="path3624" class="cls-15" d="M289.47,197.36a7.15,7.15,0,0,1-7.31-5.24,5,5,0,0,1,4.25-6.59,7.14,7.14,0,0,1,7.4,5.23,5,5,0,0,1-4.25,6.59"/><path id="path3647" class="cls-16" d="M152,120.66c2.58-2.93,4.8-8.3,8.62-5.23,5.57,4.48,1.73,2,8.09,1.75,3.55-.15,7.17-.57,5.66,4.28-.88,2.82-1.09,6.77-4.11,9.91-1.67,1.74-7.78,10.26-3.42,5.71,1.15-1.2,4.94-8.21,7.73-8.32,4-.17,7.83.2,7.53,4.21-.17,2.31-3.11,7.58-2.53,8.8.93,2,3.73,6.05-1.08,9.44-4.34,3.05-5.78,2-10.82-.24-7.23-3.17-2.44-2.49,1.45.63,3.06,2.46,6.82,3.77,6.55,7.38-.1,1.36-3.21,10.65-5.26,10.31-2.62-.44-8.32-3.68-8.39-2.78s-1.91,10.26-6.31,4.44c-2.8-3.71-1.34-4.66-2.37-8.25-1.08-3.76-.11-9.57-2.47-2-1.27,4.07-2.66,7.86-5.69,11-1.57,1.63-10.3,2.8-10-1.67.51-6.82-.92-2.59-4.8-5.71-3.6-2.9,0-6.65,3.39-10.23,2.8-2.91,15-4.35,11.21-5-.12,0-7.83,0-10-1.67-1.17-.94-6.1-7.53-.79-9.36,5.8-2,2.17-2.09,3.29-4,1.94-3.24,4.08-9.93,7.73-8.32,4.15,1.82,5.27,8.5,7.86,9.76C151.07,132.88,149.47,123.52,152,120.66Z"/><path id="path3649" class="cls-17" d="M156.85,150.27c-3.72,1.88-7.85.76-9.29-2.52s.4-7.59,4.13-9.54,7.94-.85,9.39,2.47-.4,7.59-4.13,9.54"/><path id="path3661" class="cls-6" d="M197.25,172.29c-1-1.77-3.94-6.58.71-8.89,2.4-1.19,6.4-.65,7.27-2.89s3.52-8.7,7.45-5.11c2.48,2.27,3.34,4.6,2.08,7.86a27.1,27.1,0,0,1-5.61,9.18c-5.25,5.74,0,1,2.88-2.14,2-2.19,6.44-8.57,8.73-7.52,5.12,2.34,1.83,4,2.67,7.21.58,2.18,2.73,5.11-.12,8.24-2.61,2.85-6.47,7.17-9.14,6l-5.22-2.39c2.66,1.22,4.7,1.91,7.75,4.7s1.05,6.32-2.91,9.26c-4.13,3.06-2.71,4-6.62,8.26-3.53,3.86-6.25,2.43-7.42-2-.77-2.9-5-10.38-4.27-7.48.57,2.16,2.71,4.92,2.08,7.86-.53,2.45-.93,10-6.29,10.94-4.29.74-3.81.09-6.83-2.66-1.9-1.73-8.13,0-7.93-2.47.07-.92.72-8.89,5.11-9.64,3.34-.57,4.75-1.44,8.46-4.19,3.54-2.63,4.83-6.3,1.87-3.06-2.27,2.48-7.11,4.35-9.47,3.27-3-1.38-7.2-3.27-3.77-7,4.54-5,1.42-4.57,3.32-7.69,2.39-3.9,4.44-6.95,9.05-4.84,3.32,1.52,7.47,5.33,8.07,7.38C196,177.54,199.6,176.41,197.25,172.29Z"/><path id="path3663" class="cls-7" d="M199.72,191.82c-3.74,1.23-6.86-.7-7-4.33s2.82-7.69,6.6-9,7,.63,7.09,4.29-2.82,7.69-6.6,9"/><path id="path3667" class="cls-6" d="M231.51,195.58c-1-1.77-3.94-6.58.71-8.89,2.4-1.19,6.4-.65,7.27-2.89s3.52-8.7,7.45-5.11c2.48,2.27,3.34,4.6,2.08,7.86a27.1,27.1,0,0,1-5.61,9.18c-5.24,5.74,0,1,2.88-2.14,2-2.19,6.44-8.57,8.73-7.52,5.12,2.34,1.83,4,2.67,7.21.58,2.18,2.73,5.11-.12,8.24-2.61,2.85-6.47,7.17-9.14,6l-5.22-2.39c2.66,1.22,4.7,1.91,7.75,4.7S252,216.1,248,219c-4.13,3.06-2.71,4-6.62,8.26-3.53,3.86-6.25,2.43-7.42-2-.77-2.9-5-10.38-4.27-7.48.57,2.16,2.71,4.92,2.08,7.86-.53,2.45-.93,10-6.29,10.94-4.29.74-3.81.09-6.83-2.66-1.9-1.73-8.13,0-7.93-2.47.07-.92.72-8.89,5.11-9.64,3.34-.57,4.75-1.44,8.46-4.19,3.54-2.63,4.83-6.3,1.87-3.06-2.27,2.48-7.11,4.35-9.47,3.27-3-1.38-7.2-3.27-3.77-7,4.54-5,1.42-4.57,3.32-7.69,2.39-3.9,4.44-6.95,9.05-4.84,3.32,1.52,7.47,5.33,8.07,7.38C230.25,200.83,233.86,199.7,231.51,195.58Z"/><path id="path3669" class="cls-7" d="M235.38,214.58c-3.74,1.23-6.86-.7-7-4.33s2.82-7.69,6.6-9,7,.63,7.09,4.29-2.82,7.69-6.6,9"/><path id="path3673" class="cls-6" d="M247.4,143.7c-1-1.77-3.94-6.58.71-8.89,2.4-1.19,6.4-.65,7.27-2.89s3.52-8.7,7.45-5.11c2.48,2.27,3.34,4.6,2.08,7.86a27.1,27.1,0,0,1-5.61,9.18c-5.24,5.74,0,1,2.88-2.14,2-2.19,6.44-8.57,8.73-7.52,5.12,2.34,1.83,4,2.67,7.21.58,2.18,2.73,5.11-.12,8.24-2.61,2.85-6.47,7.17-9.14,6l-5.22-2.39c2.66,1.22,4.7,1.91,7.75,4.7s1.05,6.32-2.91,9.26c-4.13,3.06-2.71,4-6.62,8.26-3.53,3.86-6.25,2.43-7.42-2-.77-2.9-5-10.38-4.27-7.48.57,2.16,2.71,4.92,2.08,7.86-.53,2.45-.93,10-6.29,10.94-4.29.74-3.81.09-6.83-2.66-1.9-1.73-8.13,0-7.93-2.47.07-.92.72-8.89,5.11-9.64,3.34-.57,4.75-1.44,8.46-4.19,3.54-2.63,4.83-6.3,1.87-3.06-2.27,2.48-7.11,4.35-9.47,3.27-3-1.38-7.2-3.27-3.77-7,4.54-5,1.42-4.57,3.32-7.69,2.39-3.9,4.44-6.95,9.05-4.84,3.32,1.52,7.47,5.33,8.07,7.38C246.15,148.94,249.76,147.81,247.4,143.7Z"/><path id="path3675" class="cls-7" d="M249.88,163.22c-3.74,1.23-6.86-.7-7-4.33s2.82-7.69,6.6-9,7,.63,7.09,4.29-2.82,7.69-6.6,9"/><path id="path3760" class="cls-18" d="M303.19,323.92l91.14-29.57"/><path id="path3839" class="cls-19" d="M352.11,294.24l14.5,9.4"/><path id="path3841" class="cls-20" d="M332.33,325.94l16.48-18"/><path id="path3843" class="cls-21" d="M305.53,308.6l25.71,5.54"/><path id="path3987" class="cls-22" d="M350.29,315.33c1.71-2.43,6.59-9.06,2.2-11.95-2.27-1.49-6.89-.57-7.1-3.55s-1-11.56-6.55-6.53c-3.51,3.18-5.25,6.36-4.95,10.7A29,29,0,0,0,337,316.1c3.89,7.49-.37,1.32-2.48-2.74-1.48-2.85-4.27-11.24-7.15-9.72-6.47,3.41-3.38,5.52-5.39,9.85-1.37,3-4.75,7-2.64,11.1,1.93,3.72,4.77,9.36,8.14,7.58l6.6-3.47c-3.37,1.77-5.86,2.8-10.17,6.7s-3.3,8.57.11,12.35c3.55,3.93,1.67,5.24,4.57,10.81,2.62,5,6.11,3,8.91-3.07,1.82-3.95,9.08-14.24,7.26-10.3-1.36,2.94-4.66,6.76-4.95,10.7-.24,3.28-2.33,13.46,3.31,14.45,4.51.79,4.2-.06,8.47-3.92,2.69-2.43,9-.35,9.63-3.72.23-1.24,2.18-11.95-2.42-12.75-3.51-.61-4.79-1.71-8-5.24-3-3.38-3.24-8.26-1-4,1.68,3.24,6.43,5.52,9.41,4,3.8-2,9.09-4.75,6.54-9.65-3.37-6.49,0-6.1-1.1-10.21-1.34-5.15-2.6-9.15-8.42-6.09-4.2,2.21-10.08,7.55-11.44,10.34C349.92,322.34,346.29,321,350.29,315.33Z"/><path id="path3989" class="cls-7" d="M340.05,342.62c3.74,1.47,7.84-1.27,9.21-6.17s-.55-10.23-4.31-11.79-7.93,1.18-9.31,6.13.55,10.23,4.31,11.79"/><path id="path3999" class="cls-23" d="M321.78,282.93c2.71-.33,11.7,1.73,6.11,8.44s-.87,2.22-.39,9.24c.24,3.57-.27,10.25-5.41,10.88-4.79.59-6.4-1-10.17-1.81-3.19-.65-7.05-3.61-4.07.5,2,2.77,8.7.79,8.14,5.12-.17,1.31-1.95,9.43-4.46,9.75-6.76.84-4.05,1.23-8.4,3.08-3,1.27-8.17,3.47-8.55-2-.32-4.63,1.8-19.2.25-14.33a48.52,48.52,0,0,0-1.89,8.41c-.55,4.25-3.81,9.88-7.58,9.11-1.8-.37-10.19.08-9.23-2.95,2.24-7.07.16-5.53-1.1-10.08-1.16-4.2-1.87-11,3.1-11.62,3.81-.47,14.38,1.38,11.26-.37l-3-1.67c-2.91-1.63-10.43.18-9.91-3.88.79-6.1.56-10.28,5.41-10.88,5.73-.71,3.69-7.95,8.67-5.16,1.95,1.09,6.06,4.68,6.25,7.4.36,5.21,1.4,8.48.81-.1-.22-3.23-.15-9.68,1.74-13.5,3.86-7.76,4.78-1,6.64-1.84s4-2.54,6-2.78c5-.62,7.1-.2,4.62,7.6-1.25,4-2.79,14.26-5.27,16C314.46,288.17,315.78,283.67,321.78,282.93Z"/><path id="path4001" class="cls-7" d="M301,312c-4.92,1.22-9.33-1.68-9.91-6.52A10.75,10.75,0,0,1,299,294.24c5-1.3,9.45,1.6,10,6.49a10.75,10.75,0,0,1-7.92,11.21"/><path id="path4005" class="cls-24" d="M350.86,277.92c-1.12-1.65-4.33-6.15-.54-7.52,2-.7,5.55.28,6-1.52s2-7,5.89-3.4c2.48,2.27,3.54,4.38,2.86,7a15.54,15.54,0,0,1-3.73,7.12c-3.86,4.23.16.84,2.25-1.45,1.47-1.61,4.54-6.49,6.69-5.3,4.82,2.68,2.14,3.69,3.3,6.52.79,1.94,3.08,4.74,1,7-1.92,2.1-4.75,5.29-7.27,3.9l-4.91-2.73a31.55,31.55,0,0,1,7.43,5c3.11,2.84,1.76,5.55-1.34,7.55s-1.86,3.05-4.74,6.2c-2.6,2.84-5.18,1.26-6.79-2.7-1.05-2.58-5.8-9.55-4.74-7,.79,1.92,3,4.57,2.86,7-.14,2,.5,8.46-4.1,8.54-3.68.07-3.34-.42-6.36-3.18-1.9-1.73-7.15-1-7.3-3.16-.06-.78-.53-7.52,3.23-7.59,2.86-.05,4-.61,6.9-2.48s3.43-4.76,1.24-2.37c-1.67,1.83-5.69,2.79-7.9,1.56-2.83-1.57-6.77-3.74-4.24-6.51,3.35-3.66.65-3.73,1.92-6.15,1.59-3,3-5.37,7.33-3,3.13,1.74,7.27,5.55,8.07,7.38C350.44,282.24,353.47,281.76,350.86,277.92Z"/><path id="path4007" class="cls-7" d="M355.6,295a5.85,5.85,0,1,1,.08,0"/><path id="path4412" class="cls-12" d="M400.56,124c2.71-.33,11.7,1.73,6.11,8.44s-.87,2.22-.39,9.24c.24,3.57-.27,10.25-5.41,10.88-4.79.59-6.4-1-10.17-1.81-3.19-.65-7.05-3.61-4.07.5,2,2.77,8.7.79,8.14,5.12-.17,1.31-1.95,9.43-4.46,9.75-6.76.84-4.05,1.23-8.4,3.08-3,1.27-8.17,3.47-8.55-2-.32-4.63,1.8-19.2.25-14.33a48.52,48.52,0,0,0-1.89,8.41c-.55,4.25-3.81,9.88-7.58,9.11-1.8-.37-10.19.08-9.23-2.95,2.24-7.07.16-5.53-1.1-10.08-1.16-4.2-1.87-11,3.1-11.62,3.81-.47,14.38,1.38,11.26-.37l-3-1.67c-2.91-1.63-10.43.18-9.91-3.88.79-6.1.56-10.28,5.41-10.88,5.73-.71,3.69-7.95,8.67-5.16,1.95,1.09,6.06,4.68,6.25,7.4.36,5.21,1.4,8.48.81-.1-.22-3.23-.15-9.68,1.74-13.5,3.86-7.76,4.78-1,6.64-1.84s4-2.54,6-2.78c5-.62,7.1-.2,4.62,7.6-1.25,4-2.79,14.26-5.27,16C393.24,129.25,394.57,124.76,400.56,124Z"/><path id="path4414" class="cls-7" d="M379.74,153.06c-4.92,1.22-9.33-1.68-9.91-6.52a10.75,10.75,0,0,1,7.92-11.21c5-1.3,9.45,1.6,10,6.49A10.75,10.75,0,0,1,379.87,153"/></g><g id="layer1-2" data-name="layer1"><path id="path2164-2" data-name="path2164" class="cls-1" d="M457.48,411.59,57.09,300"/><path id="path2166-2" data-name="path2166" class="cls-2" d="M345.14,381,288,440.85l-65.17,37.4L157.37,565"/><path id="path3139-2" data-name="path3139" class="cls-3" d="M470.83,400.08,418.68,396,231.5,355.69,100.67,345.48,20.82,308.85"/><path id="path3259-2" data-name="path3259" class="cls-2" d="M304.37,424.91l-15.82-2.38"/><path id="path3261-2" data-name="path3261" class="cls-2" d="M267.49,453l-4.7,26"/><path id="path3265-2" data-name="path3265" class="cls-2" d="M248.92,463.06l-12-5.53"/><path id="path3267-2" data-name="path3267" class="cls-2" d="M221.77,480.46l-16.62-3.59"/><path id="path3269-2" data-name="path3269" class="cls-2" d="M209,495.54l-.1,24.1"/><path id="path3271-2" data-name="path3271" class="cls-2" d="M182.14,532.48l-17,1"/><path id="path3273-2" data-name="path3273" class="cls-2" d="M63.61,330.35l-11.39-25"/><path id="path3275-2" data-name="path3275" class="cls-2" d="M98.79,346.87l-33,35.32"/><path id="path3277-2" data-name="path3277" class="cls-2" d="M129.82,348.14l-10-20.3"/><path id="path3279-2" data-name="path3279" class="cls-2" d="M149.26,349.66l-17.6,20.44"/><path id="path3281-2" data-name="path3281" class="cls-2" d="M190.59,350.58l-15.19-23"/><path id="path3289-2" data-name="path3289" class="cls-2" d="M267.27,364.61l-28.83,16.12"/><path id="path3291-2" data-name="path3291" class="cls-2" d="M295.26,369.43l-11.42-22.25"/><path id="path3293-2" data-name="path3293" class="cls-2" d="M318.88,409.85l-1,24"/><path id="path3233-2" data-name="path3233" class="cls-2" d="M229.85,355.83,214,333.66"/><path id="path3219-2" data-name="path3219" class="cls-4" d="M63.94,383.19c-2.48,1.24-9.76.7-14.14-1.1-6.08-2.5-5-7.16-3.44-12.9,1.26-4.58,3.66-1.26,4.34-10,.51-6.59,6-4.3,10-2.67,3.11,1.28,5.64,7.53,5.3,11.89-.44,5.69,1.89,1.21,1.24-4.5-.68-6-1.11-8.08-3.53-11.76-3.17-4.83,3.8-12.53,4.6-13.42,2.2-2.42,6,5.06,9.37,5.32,5.28.41,5.47-.61,8.57,4.11,3.88,5.91-2.93,13-4.78,15.7-2.22,3.22-6.74,3.64-9.28,5-3.42,1.85,7.45-.75,10.87-2.6,5.25-2.84,9-1.52,8.48,5.25-.59,7.51-2.71,7-2,13.63.73,6.38-.75,11.42-6.19,11s-7.8-1.73-11.31-3.18L79,395.84c3.53,1.45,2.86,9,2.47,14-.43,5.48-5.12,6-7.69,7.44-3.76,2-2.44,6.65-9.2,3.88-3-1.24-.91-11.13-.61-15,.43-5.47.26-14.72-.53-4.63A35.33,35.33,0,0,1,59.68,415c-2,4.1-4.94,5.36-9.28,5-6.88-.54-3.07-8.88-1.76-11.62s-2.71-6.14-3.71-9.47c-1.94-6.47,5.21-8,7.78-8.58C58.69,388.92,56.56,384.49,63.94,383.19Z"/><path id="path3221-2" data-name="path3221" class="cls-25" d="M74.6,375.55c2.13,4.74.94,11.12-2.65,14.25s-8.23,1.83-10.35-2.92-.94-11.12,2.65-14.25,8.14-1.86,10.29,2.79"/><path id="path3263-2" data-name="path3263" class="cls-6" d="M316.45,439.39c-1.91,1-7.52.54-10.9-.85-4.69-1.92-3.87-5.51-2.65-9.92,1-3.52,2.82-1,3.34-7.68.4-5.07,4.64-3.3,7.7-2,2.4,1,4.35,5.79,4.09,9.15-.34,4.38,1.46.93,1-3.46-.53-4.59-.86-6.21-2.72-9-2.45-3.71,2.93-9.63,3.55-10.32,1.69-1.86,4.66,3.89,7.22,4.09,4.07.32,4.22-.47,6.61,3.16,3,4.54-2.26,10-3.68,12.07-1.71,2.48-5.19,2.8-7.16,3.86-2.64,1.42,5.74-.57,8.38-2,4-2.18,6.95-1.17,6.54,4-.45,5.78-2.09,5.37-1.5,10.48.56,4.9-.58,8.78-4.77,8.45s-6-1.33-8.72-2.45l5.31,2.18c2.72,1.12,2.21,6.89,1.9,10.74-.33,4.22-3.95,4.65-5.93,5.72-2.9,1.56-1.88,5.12-7.09,3-2.33-1-.7-8.56-.47-11.51.33-4.21.2-11.31-.41-3.56a27.1,27.1,0,0,1-2.87,10.37c-1.52,3.15-3.81,4.12-7.16,3.86-5.3-.41-2.37-6.83-1.36-8.93s-2.09-4.72-2.86-7.28c-1.5-5,4-6.12,6-6.59C312.41,443.79,310.76,440.39,316.45,439.39Z"/><path id="path3266-2" data-name="path3266" class="cls-7" d="M323.78,433.45c1.64,3.65.72,8.55-2,11s-6.34,1.4-8-2.24-.72-8.55,2-11,6.27-1.43,7.94,2.15"/><path id="path3431-2" data-name="path3431" class="cls-8" d="M280.7,344.56c-2.08-1.78-9.21-4.38-13.86-5-6.44-.87-6.54,2.5-6.38,6.77.12,3.4,3.21,2.27,1.79,8.07-1.08,4.38,4.77,5.14,9,5.71,3.29.45,7.22-2.49,7.93-5.38.93-3.78,2.11,0,.12,3.34-2.08,3.5-3,4.66-6.2,6-4.2,1.77.66,9.45,1.23,10.34,1.54,2.42,7-.77,10.28.41,5.18,1.87,5.11,2.59,9.22.86,5.14-2.17.29-9.41-.85-11.85-1.37-2.93-5.61-5-7.73-6.91-2.85-2.55,7,3.47,9.84,6,4.37,3.91,8.3,4.6,9.41.1,1.23-5-.94-5.51,1.37-9.4,2.22-3.74,2-7.52-3.33-9.45a45.55,45.55,0,0,0-11.64-2.55l7.3,1c3.74.5,4.88-4.51,5.7-7.84.9-3.64-3.48-5.89-5.63-7.8-3.13-2.8-.76-5.19-7.92-6.16-3.2-.43-3.53,6.67-4.16,9.22-.89,3.63-3.26,9.41-1.61,2.72a18.77,18.77,0,0,0-.36-10c-.91-3.38-3.47-5.38-7.73-6.91-6.74-2.43-5.07,4.37-4.46,6.63s-4.06,2.79-5.82,4.49c-3.41,3.31,3.12,7.14,5.44,8.56C277,338.82,273.92,340.76,280.7,344.56Z"/><path id="path3433-2" data-name="path3433" class="cls-7" d="M289.13,353.68c3.17-2.14,3.55-6.65.85-10.08s-7.47-4.47-10.65-2.33-3.55,6.65-.85,10.08,7.38,4.45,10.56,2.39"/><path id="path3487-2" data-name="path3487" class="cls-9" d="M204.09,523.84c-2.48,1.24-9.76.7-14.14-1.1-6.08-2.5-5-7.16-3.44-12.9,1.26-4.58,3.66-1.26,4.34-10,.51-6.59,6-4.3,10-2.67,3.11,1.28,5.64,7.53,5.3,11.89-.44,5.69,1.89,1.21,1.24-4.5-.68-6-1.11-8.08-3.53-11.76-3.17-4.83,3.8-12.53,4.6-13.42,2.2-2.42,6,5.06,9.37,5.32,5.28.41,5.47-.61,8.57,4.11,3.88,5.91-2.93,13-4.78,15.7-2.22,3.22-6.74,3.64-9.28,5-3.42,1.85,7.45-.75,10.87-2.6,5.25-2.84,9-1.52,8.48,5.25-.59,7.51-2.71,7-2,13.63.73,6.38-.75,11.42-6.19,11s-7.8-1.73-11.31-3.18l6.89,2.83c3.53,1.45,2.86,9,2.47,14-.43,5.48-5.12,6-7.69,7.44-3.76,2-2.44,6.65-9.2,3.88-3-1.24-.91-11.13-.61-15,.43-5.47.26-14.72-.53-4.63a35.33,35.33,0,0,1-3.72,13.49c-2,4.1-4.94,5.36-9.28,5-6.88-.54-3.07-8.88-1.76-11.62s-2.71-6.14-3.71-9.47c-1.94-6.47,5.21-8,7.78-8.58C198.84,529.57,196.71,525.14,204.09,523.84Z"/><path id="path3489-2" data-name="path3489" class="cls-26" d="M214.75,516.2c2.13,4.74.94,11.12-2.65,14.25s-8.23,1.83-10.35-2.92-.94-11.12,2.65-14.25,8.14-1.86,10.29,2.79"/><path id="path3513-2" data-name="path3513" class="cls-11" d="M286.23,423.83c1.66,1.23,7,1.67,10.43.81,4.72-1.19,4.5-4.85,4-9.4-.39-3.63-2.52-1.38-2-8.1.4-5.07-3.89-4-7-3.19-2.41.61-5,5.06-5.25,8.42-.34,4.38-1.52.7-.38-3.56,1.19-4.46,1.75-6,3.94-8.52,2.87-3.3-1.3-10-1.79-10.73-1.32-2.1-5,3.14-7.45,3-3.9-.3-3.91-1.1-6.73,2.12-3.52,4,.61,10.23,1.65,12.49,1.24,2.71,4.48,3.55,6.18,4.9,2.28,1.81-5.34-1.44-7.62-3.24-3.5-2.77-6.39-2.21-6.79,3-.45,5.78,1.16,5.62-.17,10.58-1.27,4.76-.79,8.77,3.23,9.08s5.88-.41,8.61-1.09l-5.35,1.35c-2.74.69-3.13,6.47-3.43,10.33-.33,4.22,3,5.19,4.74,6.55,2.5,2,1,5.34,6.25,4,2.34-.59,2-8.35,2.19-11.3.33-4.21,1.53-11.21.93-3.46a28.16,28.16,0,0,0,1.13,10.68c1,3.34,3,4.65,6.18,4.9,5.08.4,3.28-6.39,2.64-8.62s2.69-4.35,3.81-6.76c2.17-4.69-2.87-6.66-4.67-7.43C289.38,428.79,291.45,425.68,286.23,423.83Z"/><path id="path3515-2" data-name="path3515" class="cls-7" d="M280.2,416.84c-2.1,3.35-2,8.34.27,11.14s5.78,2.35,7.88-1,2-8.34-.27-11.14-5.71-2.36-7.83.92"/><path id="path3572-2" data-name="path3572" class="cls-12" d="M162.52,546c.45,3-6,11.15-8.06,14.76-4,7.14-5.73,5.91-8.71,1.82-1.17-1.61-1.3-4.22-2-6.25s-6.22,2-3.2-6.11c1.49-4,6.15-8.45,8.66-10.5,6.67-5.44,3.56-4-.48-.66-2.11,1.72-7.54,1.17-9.67.5-5.44-1.73,1.24-5.19-2.16-9.86-2.88-4,.33-6.64,4.25-11.39,2.61-3.16,6.42,3.57,9.61,4.58l3.26,1c3.41,1.08-5.17-5.37-7.42-8.47-3-4.05,2.51-8.18,6.36-10.21,4.18-2.19,4.48.38,8.11-6.09,1.55-2.77,7,3.66,8.46,4.72,3.14,2.23,1.26,8.46-1.47,11.76a48.52,48.52,0,0,0-4.85,7.12c-2.49,4.45,6.69-7,10.29-10,4.26-3.47,6.19,1.81,7.31,4.87,1.62,4.44-.52,2.73,3.5,8.24,1.49,2-3.22,8.9-4.06,9.92-2.78,3.37-5.91-2.87-9.31-2.44-5,.64-.24,1.43,2.41,3.31,3.14,2.23,5.43,2.29,8.27,6.19,3.05,4.19-1.47,9.13-4.25,11.39-5.45,4.45-5.41-1.95-6.48,6.61s-8.73,3.51-10.34,1.3C156.94,557.28,159.32,553.24,162.52,546Z"/><path id="path3582-2" data-name="path3582" class="cls-7" d="M167.53,527.23a10.75,10.75,0,0,1-2.77,13.44c-4,2.91-9.16,1.62-11.6-2.9a10.75,10.75,0,0,1,2.77-13.44c3.93-2.88,9.06-1.65,11.53,2.78"/><path id="path3592-2" data-name="path3592" class="cls-6" d="M131.11,370.39c1.76-1.36,7.39-2.21,10.93-1.61,4.91.83,4.59,4.51,4,9.1-.49,3.66-2.66,1.58-2.27,8.26.29,5-4.16,4.27-7.36,3.73-2.51-.42-5.1-4.69-5.29-8-.25-4.36-1.57-.58-.48,3.59,1.14,4.37,1.69,5.88,3.92,8.23,2.93,3.08-1.6,10.08-2.12,10.88-1.43,2.2-5.15-2.76-7.72-2.38-4.08.6-4.12,1.4-7-1.61-3.58-3.77.88-10.29,2-12.63,1.36-2.8,4.77-3.9,6.58-5.37,2.42-2-5.62,1.85-8,3.83-3.72,3-6.73,2.7-7-2.48-.34-5.75,1.34-5.72.07-10.58-1.22-4.67-.62-8.72,3.59-9.34s6.14,0,9,.44l-5.57-.94c-2.85-.48-3.12-6.24-3.34-10.08-.24-4.2,3.29-5.43,5.11-6.92,2.66-2.18,1.17-5.42,6.63-4.5,2.44.41,1.86,8.21,2,11.15.24,4.19,1.34,11.11.89,3.39a28,28,0,0,1,1.44-10.78c1.08-3.42,3.22-4.88,6.58-5.37,5.32-.78,3.28,6.15,2.56,8.43s2.71,4.15,3.82,6.48c2.16,4.53-3.16,6.89-5.06,7.79C134.53,365.17,136.62,368.13,131.11,370.39Z"/><path id="path3594-2" data-name="path3594" class="cls-7" d="M124.65,377.84a10,10,0,0,1,.54-11.17c2.42-3,6.1-2.79,8.22.4a10,10,0,0,1-.54,11.17c-2.39,2.94-6,2.8-8.16-.32"/><path id="path3604-2" data-name="path3604" class="cls-13" d="M50,304.45c1.79,2.53,8.45,6.86,12.95,8.37,6.24,2.09,6.84-2.06,7.34-7.36.39-4.23-2.83-3.31-.55-10.26,1.73-5.24-3.93-7.11-8-8.48-3.19-1.07-7.51,1.94-8.65,5.41-1.49,4.52-2.08-.33.39-4.15,2.59-4,3.67-5.29,7-6.45,4.42-1.53.77-11.79.35-13-1.15-3.23-7.05-.16-10.1-2.13-4.84-3.13-4.66-4-9-2.51-5.41,1.87-1.71,11.59-1,14.79.91,3.84,4.79,7.09,6.6,9.77,2.43,3.6-6.38-5.4-8.81-9-3.73-5.53-7.51-7-9.29-1.61-2,6,.1,7-2.78,11.41-2.76,4.27-3.12,9,1.86,12.21s7.51,3.78,11.12,5l-7.07-2.37c-3.62-1.21-5.51,4.81-6.83,8.79-1.44,4.36,2.55,7.83,4.38,10.53,2.67,4,0,6.53,6.9,8.86,3.1,1,4.5-7.69,5.51-10.74,1.43-4.35,4.65-11.12,2-3.1a29,29,0,0,0-1.16,12.45c.39,4.33,2.62,7.2,6.6,9.77,6.3,4.07,5.68-4.61,5.42-7.5s4.44-2.81,6.44-4.64c3.87-3.55-2-9.31-4.08-11.44C52.73,312.13,56.09,310.22,50,304.45Z"/><path id="path3606-2" data-name="path3606" class="cls-7" d="M43,291.84c-3.46,2.15-4.52,7.67-2.36,12.33s6.71,6.71,10.17,4.56,4.52-7.67,2.36-12.33-6.62-6.67-10.08-4.62"/><path id="path3610-2" data-name="path3610" class="cls-8" d="M193.56,480.76c-.33,3.27,1,12.69,2.52,18.31,2.17,7.78,4.53,6.2,7.4,3.88,2.29-1.85.18-4.8,4.78-6.08,3.47-1,1.49-8,.07-13.09-1.11-4-4.82-7-7.12-6.34-3,.83-.91-2.4,2.25-1.81s4.49,1.08,6.8,4.05c3,3.9,6.22-5.5,6.59-6.58,1-3-3.55-7.61-4.14-11.92-.94-6.84-.42-7.13-3.38-10.94-3.71-4.77-6.6,4.39-7.79,6.91-1.43,3-1,8.91-1.43,12.28-.53,4.53-.62-9.7-.09-14.23.81-6.94-.41-11.77-4-10.77-4,1.1-3.38,3.83-7.06,3.15s-6,1.49-5.07,8.53a88.8,88.8,0,0,0,3.25,14.54l-2.46-8.82c-1.26-4.51-5.21-3.31-7.85-2.57-2.89.8-2.55,6.92-2.95,10.32-.58,5-3.24,3.46-.83,12.11,1.08,3.86,6.11.68,8.13.12,2.88-.8,7.88-1,2.56.48-3.16.88-5.06,3.05-6.74,5.44-1.93,2.74-2.21,6.65-1.43,12.28,1.23,8.9,5.19,3.59,6.49,1.76s3.67,3.23,5.6,4.38c3.74,2.23,3.57-7.13,3.55-10.49C191.19,487.83,193.87,490.4,193.56,480.76Z"/><path id="path3612-2" data-name="path3612" class="cls-7" d="M196.21,466.59c-2.84-2.54-6.11-.71-7.3,4.09s.14,10.76,3,13.3,6.11.71,7.3-4.09-.11-10.65-2.9-13.23"/><path id="path3616-2" data-name="path3616" class="cls-6" d="M228.26,452.6c-1.91,1-7.52.54-10.9-.85-4.69-1.92-3.87-5.51-2.65-9.92,1-3.52,2.82-1,3.34-7.68.4-5.07,4.64-3.3,7.7-2,2.4,1,4.35,5.79,4.09,9.15-.34,4.38,1.46.93,1-3.46-.53-4.59-.86-6.21-2.72-9-2.45-3.71,2.93-9.63,3.55-10.32,1.69-1.86,4.66,3.89,7.22,4.09,4.07.32,4.22-.47,6.61,3.16,3,4.54-2.26,10-3.68,12.07-1.71,2.48-5.19,2.8-7.16,3.86-2.64,1.42,5.74-.57,8.38-2,4-2.18,6.95-1.17,6.54,4-.45,5.78-2.09,5.37-1.5,10.48.56,4.9-.58,8.78-4.77,8.45s-6-1.33-8.72-2.45l5.31,2.18c2.72,1.12,2.21,6.89,1.9,10.74-.33,4.22-3.95,4.65-5.93,5.72-2.9,1.56-1.88,5.12-7.09,3-2.33-1-.7-8.56-.47-11.51.33-4.21.2-11.31-.41-3.56A27.1,27.1,0,0,1,225,477.06c-1.52,3.15-3.81,4.12-7.16,3.86-5.3-.41-2.37-6.83-1.36-8.93s-2.09-4.72-2.86-7.28c-1.5-5,4-6.12,6-6.59C224.22,457,222.57,453.6,228.26,452.6Z"/><path id="path3618-2" data-name="path3618" class="cls-7" d="M235.59,446.66c1.64,3.65.72,8.55-2,11s-6.34,1.4-8-2.24-.72-8.55,2-11,6.27-1.43,7.94,2.15"/><path id="path3622-2" data-name="path3622" class="cls-14" d="M233.62,388.85c-2.12,1.58-1.74,5.45-2.87,7.59-1.64,3.13-1.42,3.65-5.25,4.33-2,.36-3.16-6.57-3.6-7.3-.65-1.08-7.44-3-8.76-3.84-3.4-2.06,4.16-4.75,5.33-5.19,2.08-.79,4.07-1.71,6.15-2.5,2.87-1.09-6.63.23-9.58-.86-3.82-1.41-7.15-2-4.34-5.18,2.68-3,1.55-4,.66-6.92-1.09-3.58,6.5-2.47,7.21-2.41,2.57.23,6.52,4.5,8.11,5.08,2.68,1,7.59,7.42,2,1.92-3.56-3.48-4.45-4-4.09-7.78.19-2,2.51-5.73,4.43-7,3.06-2.05,3.28,2.77,7.13-1.54,2.16-2.42,7.54,1.7,9.34,3.45,3.09,3,3.37,4.2,2,6.72s-5.49,4.57-7.62,6.73c-4.14,4.18,2.39,0,4.42-1.35a47.83,47.83,0,0,1,7.37-4.14c2.35-.89,3.39,3.83,3.19,6-.22,2.31,3.45,5,5.16,7.87,1.42,2.35-4.3,5.13-6.47,6-3.2,1.22-5.49-2.52-8.11-5.08-4.37-4.27,1.25,2.17,2.87,3.74l7.37,7.2c3,2.89.14,4.74-1.72,6.82-2.93,3.28-5.37,2.31-8-.28-1.51-1.47-1.93,4-4.18,4.42-4.19.74-7.31-2.1-9.17-5.18S233.78,392.93,233.62,388.85Z"/><path id="path3624-2" data-name="path3624" class="cls-27" d="M241.83,377.45a5,5,0,0,1-1.91,7.61,7.14,7.14,0,0,1-8.88-1.82,5,5,0,0,1,1.91-7.61,7.15,7.15,0,0,1,8.83,1.75"/><path id="path3647-2" data-name="path3647" class="cls-16" d="M103.47,320.07c-2.69-1-8.33,2.72-12.5.93-3.67-1.57-.25-7.69.79-11.33.6-2.1,3.15.48.65-5.11-2.29-5.12,5.88-6,7.37-5.82,2.71.39,7.94,6.06,8,6.13,3.08,2.35-4.24-7.56-4-11.6.27-4.95.58-10.11,5.15-9.46,4.94.7,2.83,4.63,7.45-.4,3-3.3,8.15,3.87,8,6.13-.23,4.37-2,8-4.16,11.69-3.92,6.91-.35,2.23,3.13.44,3.33-1.7,3-3.42,7.64-3.91,7.26-.77,1.7,7,1.08,7.64s5.65,2.61,7.76,4.22c1.66,1.27-3,9.88-3.93,10.89-2.45,2.66-6,.82-9.86.27-4.93-.7-8.71-3.73-1.45-.62,5.06,2.17,6.83,2.48,7.57,7.73.82,5.83-4.08,6.58-6.15,7.24-1.29.41-3.13,6.16-4.69,7.86-2.72,3-5.63.38-8.22-2.62-1.82-2.11.71-9.67.79-11.33.34-6.3-1.7,4-1.83,6.4-.23,4.35-3,7.21-4.43,9.78-2.51,4.42-4.68,1.49-7-1.2-4.15-4.83.27-3.71-6.81-4.71-4.85-.69-2.45-6-2.07-9.86S100.11,320.42,103.47,320.07Z"/><path id="path3649-2" data-name="path3649" class="cls-28" d="M116.79,312.87c1.13,4.06-.73,8.33-4.14,9.53s-7.09-1.11-8.22-5.17.73-8.33,4.14-9.53,7,1.06,8.19,5.06"/><path id="path3661-2" data-name="path3661" class="cls-6" d="M169.1,321.69c-1.91,1-7.52.54-10.9-.85-4.69-1.92-3.87-5.51-2.65-9.92,1-3.52,2.82-1,3.34-7.68.4-5.07,4.64-3.3,7.7-2,2.4,1,4.35,5.79,4.09,9.15-.34,4.38,1.46.93,1-3.46-.53-4.59-.86-6.21-2.72-9-2.45-3.71,2.93-9.63,3.55-10.32,1.69-1.86,4.66,3.89,7.22,4.09,4.07.32,4.22-.47,6.61,3.16,3,4.54-2.26,10-3.68,12.07-1.71,2.48-5.19,2.8-7.16,3.86-2.64,1.42,5.74-.57,8.38-2,4-2.18,6.95-1.17,6.54,4-.45,5.78-2.09,5.37-1.5,10.48.56,4.9-.58,8.78-4.77,8.45s-6-1.33-8.72-2.45l5.31,2.18c2.72,1.12,2.21,6.89,1.9,10.74-.33,4.22-3.95,4.65-5.93,5.72-2.9,1.56-1.88,5.12-7.09,3-2.33-1-.7-8.56-.47-11.51.33-4.21.2-11.31-.41-3.56a27.1,27.1,0,0,1-2.87,10.37c-1.52,3.15-3.81,4.12-7.16,3.86-5.3-.41-2.37-6.83-1.36-8.93s-2.09-4.72-2.86-7.28c-1.5-5,4-6.12,6-6.59C165.06,326.09,163.42,322.69,169.1,321.69Z"/><path id="path3663-2" data-name="path3663" class="cls-7" d="M176.44,315.75c1.64,3.65.72,8.55-2,11s-6.34,1.4-8-2.24-.72-8.55,2-11,6.27-1.43,7.94,2.15"/><path id="path3667-2" data-name="path3667" class="cls-6" d="M209.52,330.78c-1.91,1-7.52.54-10.9-.85-4.69-1.92-3.87-5.51-2.65-9.92,1-3.52,2.82-1,3.34-7.68.4-5.07,4.64-3.3,7.7-2,2.4,1,4.35,5.79,4.09,9.15-.34,4.38,1.46.93,1-3.46-.53-4.59-.86-6.21-2.72-9-2.45-3.71,2.93-9.63,3.55-10.32,1.69-1.86,4.66,3.89,7.22,4.09,4.07.32,4.22-.47,6.61,3.16,3,4.54-2.26,10-3.68,12.07-1.71,2.48-5.19,2.8-7.16,3.86-2.64,1.42,5.74-.57,8.38-2,4-2.18,6.95-1.17,6.54,4-.45,5.78-2.09,5.37-1.5,10.48.56,4.9-.58,8.78-4.77,8.45s-6-1.33-8.72-2.45l5.31,2.18c2.72,1.12,2.21,6.89,1.9,10.74-.33,4.22-3.95,4.65-5.93,5.72-2.9,1.56-1.88,5.12-7.09,3-2.33-1-.7-8.56-.47-11.51.33-4.21.2-11.31-.41-3.56a27.1,27.1,0,0,1-2.87,10.37c-1.52,3.15-3.81,4.12-7.16,3.86-5.3-.41-2.37-6.83-1.36-8.93s-2.09-4.72-2.86-7.28c-1.5-5,4-6.12,6-6.59C205.48,335.18,203.83,331.78,209.52,330.78Z"/><path id="path3669-2" data-name="path3669" class="cls-7" d="M217.42,326.22c1.64,3.65.72,8.55-2,11s-6.34,1.4-8-2.24-.72-8.55,2-11,6.27-1.43,7.94,2.15"/><path id="path3673-2" data-name="path3673" class="cls-6" d="M182.51,377.85c-1.91,1-7.52.54-10.9-.85-4.69-1.92-3.87-5.51-2.65-9.92,1-3.52,2.82-1,3.34-7.68.4-5.07,4.64-3.3,7.7-2,2.4,1,4.35,5.79,4.09,9.15-.34,4.38,1.46.93,1-3.46-.53-4.59-.86-6.21-2.72-9-2.45-3.71,2.93-9.63,3.55-10.32,1.69-1.86,4.66,3.89,7.22,4.09,4.07.32,4.22-.47,6.61,3.16,3,4.54-2.26,10-3.68,12.07-1.71,2.48-5.19,2.8-7.16,3.86-2.64,1.42,5.74-.57,8.38-2,4-2.18,6.95-1.17,6.54,4-.45,5.78-2.09,5.37-1.5,10.48.56,4.9-.58,8.78-4.77,8.45s-6-1.33-8.72-2.45l5.31,2.18c2.72,1.12,2.21,6.89,1.9,10.74-.33,4.22-3.95,4.65-5.93,5.72-2.9,1.56-1.88,5.12-7.09,3-2.33-1-.7-8.56-.47-11.51.33-4.21.2-11.31-.41-3.56a27.1,27.1,0,0,1-2.87,10.37c-1.52,3.15-3.81,4.12-7.16,3.86-5.3-.41-2.37-6.83-1.36-8.93s-2.09-4.72-2.86-7.28c-1.5-5,4-6.12,6-6.59C178.47,382.25,176.82,378.85,182.51,377.85Z"/><path id="path3675-2" data-name="path3675" class="cls-7" d="M189.84,371.9c1.64,3.65.72,8.55-2,11s-6.34,1.4-8-2.24-.72-8.55,2-11,6.27-1.43,7.94,2.15"/><path id="path3760-2" data-name="path3760" class="cls-18" d="M384.25,387.63l-40.71-86.74"/><path id="path3839-2" data-name="path3839" class="cls-19" d="M372.08,361l-16.77-4.16"/><path id="path3841-2" data-name="path3841" class="cls-20" d="M363,345.12l1.9-24.35"/><path id="path3843-2" data-name="path3843" class="cls-21" d="M355.57,328l-21.62-15"/><path id="path3987-2" data-name="path3987" class="cls-22" d="M375.69,327.77c-1.1,2.9-1,10.84.27,15.42,1.74,6.35,5.53,4.53,10.2,2,3.73-2,1.17-4.2,8.21-6.17,5.31-1.49,3.71-7.23,2.57-11.37-.89-3.24-5.8-5.15-9.31-4.17-4.59,1.29-.89-1.91,3.66-2,4.76-.09,6.43.09,9.28,2.24,3.74,2.82,10.22-5.93,11-6.95,2-2.76-3.8-5.94-3.87-9.57-.1-5.76.73-6.11-2.93-8.86-4.57-3.45-10.57,5-12.8,7.46-2.68,2.9-3.21,7.92-4.43,10.92-1.63,4,.92-8.31,2.55-12.33,2.5-6.18,1.61-10.13-3.85-8.6-6.05,1.7-5.72,4-11,4.06-5.09.09-9.2,2.43-9.09,8.36s1.05,8.34,2.06,12l-2-7.19c-1-3.68-7.06-1.89-11.1-.76-4.42,1.24-5.07,6.48-6.3,9.51-1.79,4.42-5.44,3.61-3.51,10.67.86,3.15,8.89-.56,12-1.42,4.41-1.24,11.82-2.34,3.69-.07a29,29,0,0,0-11,6c-3.37,2.74-4.51,6.19-4.43,10.92.13,7.5,7,2.14,9.25.31s4.81,2.12,7.44,2.76c5.11,1.23,6.62-6.85,7.22-9.77C370.86,334.35,374.33,336.08,375.69,327.77Z"/><path id="path3989-2" data-name="path3989" class="cls-7" d="M382.28,315c-3.71-1.68-8.88.52-11.55,4.92s-1.82,9.31,1.89,11,8.88-.52,11.55-4.92,1.84-9.22-1.79-10.94"/><path id="path3999-2" data-name="path3999" class="cls-23" d="M328.34,326.3c.45,3-6,11.15-8.06,14.76-4,7.14-5.73,5.91-8.71,1.82-1.17-1.61-1.3-4.22-2-6.25s-6.22,2-3.2-6.11c1.49-4,6.15-8.45,8.66-10.5,6.67-5.44,3.56-4-.48-.66-2.11,1.72-7.54,1.17-9.67.5-5.44-1.73,1.24-5.19-2.16-9.86-2.88-4,.33-6.64,4.25-11.39,2.61-3.16,6.42,3.57,9.61,4.58l3.26,1c3.41,1.08-5.17-5.37-7.42-8.47-3-4.05,2.51-8.18,6.36-10.21,4.18-2.19,4.48.38,8.11-6.09,1.55-2.77,7,3.66,8.46,4.72,3.14,2.23,1.26,8.46-1.47,11.76a48.52,48.52,0,0,0-4.85,7.12c-2.49,4.45,6.69-7,10.29-10,4.26-3.47,6.19,1.81,7.31,4.87,1.62,4.44-.52,2.73,3.5,8.24,1.49,2-3.22,8.9-4.06,9.92-2.78,3.37-5.91-2.87-9.31-2.44-5,.64-.24,1.43,2.41,3.31,3.14,2.23,5.43,2.29,8.27,6.19,3.05,4.19-1.47,9.13-4.25,11.39-5.45,4.45-5.41-1.95-6.48,6.61s-8.73,3.51-10.34,1.3C322.76,337.59,325.14,333.55,328.34,326.3Z"/><path id="path4001-2" data-name="path4001" class="cls-7" d="M333.35,307.54A10.75,10.75,0,0,1,330.58,321c-4,2.91-9.16,1.62-11.6-2.9a10.75,10.75,0,0,1,2.77-13.44c3.93-2.88,9.06-1.65,11.53,2.78"/><path id="path4005-2" data-name="path4005" class="cls-24" d="M351.07,363.24c-1.89.67-7.5.24-10.9-.85-4.72-1.52-4-4.14-2.85-7.37.9-2.58,2.79-.66,3.18-5.6.29-3.73,4.57-2.34,7.65-1.35,2.41.77,4.46,4.36,4.27,6.83-.25,3.22,1.47.72.88-2.53-.62-3.4-1-4.6-2.9-6.73-2.52-2.79,2.72-7.05,3.33-7.54,1.65-1.34,4.73,3,7.29,3.17,4.07.32,4.2-.26,6.66,2.47,3.08,3.41-2,7.34-3.43,8.83-1.66,1.79-5.13,2-7.07,2.7-2.61,1,5.72-.31,8.33-1.3,4-1.53,6.91-.72,6.61,3.12-.33,4.25-2,3.92-1.29,7.7.66,3.63-.4,6.47-4.59,6.14a31.55,31.55,0,0,1-8.76-2l5.35,1.72c2.74.88,2.34,5.13,2.12,8-.24,3.11-3.85,3.35-5.8,4.1-2.86,1.09-1.77,3.74-7,2.05-2.34-.75-.88-6.33-.71-8.51.24-3.1,0-8.35-.48-2.64a15.54,15.54,0,0,1-2.65,7.59c-1.45,2.29-3.72,3-7.07,2.7-5.3-.41-2.51-5.09-1.54-6.62s-2.18-3.52-3-5.44c-1.6-3.7,3.89-4.44,5.86-4.74C347.13,366.41,345.41,363.86,351.07,363.24Z"/><path id="path4007-2" data-name="path4007" class="cls-7" d="M358.27,359a5.8,5.8,0,1,1,0-.07"/><path id="path4412-2" data-name="path4412" class="cls-12" d="M266.19,492.43c.45,3-6,11.15-8.06,14.76-4,7.14-5.73,5.91-8.71,1.82-1.17-1.61-1.3-4.22-2-6.25s-6.22,2-3.2-6.11c1.49-4,6.15-8.45,8.66-10.5,6.67-5.44,3.56-4-.48-.66-2.11,1.72-7.54,1.17-9.67.5-5.44-1.73,1.24-5.19-2.16-9.86-2.88-4,.33-6.64,4.25-11.39,2.61-3.16,6.42,3.57,9.61,4.58l3.26,1c3.41,1.08-5.17-5.37-7.42-8.47-3-4.05,2.51-8.18,6.36-10.21,4.18-2.19,4.48.38,8.11-6.09,1.55-2.77,7,3.66,8.46,4.72,3.14,2.23,1.26,8.46-1.47,11.76a48.52,48.52,0,0,0-4.85,7.12c-2.49,4.45,6.69-7,10.29-10,4.26-3.47,6.19,1.81,7.31,4.87,1.62,4.44-.52,2.73,3.5,8.24,1.49,2-3.22,8.9-4.06,9.92-2.78,3.37-5.91-2.87-9.31-2.44-5,.64-.24,1.43,2.41,3.31,3.14,2.23,5.43,2.29,8.27,6.19,3.05,4.19-1.47,9.13-4.25,11.39-5.45,4.45-5.41-1.95-6.48,6.61s-8.73,3.51-10.34,1.3C260.62,503.71,263,499.67,266.19,492.43Z"/><path id="path4414-2" data-name="path4414" class="cls-7" d="M271.2,473.67a10.75,10.75,0,0,1-2.77,13.44c-4,2.91-9.16,1.62-11.6-2.9a10.75,10.75,0,0,1,2.77-13.44c3.93-2.88,9.06-1.65,11.53,2.78"/></g><g id="layer1-3" data-name="layer1"><path id="path2164-3" data-name="path2164" class="cls-1" d="M35.71,256.86,440,353.28"/><path id="path2166-3" data-name="path2166" class="cls-2" d="M251.86,73.65l15.22,107.6L306,245.55l21,80"/><path id="path3139-3" data-name="path3139" class="cls-3" d="M8.29,231.53l87.6,6.66,119.38,54.48L398.54,348.1l47.59,21.72"/><path id="path3259-3" data-name="path3259" class="cls-2" d="M297.56,261.85l15,5.58"/><path id="path3261-3" data-name="path3261" class="cls-2" d="M302.43,199.9,293.92,225"/><path id="path3265-3" data-name="path3265" class="cls-2" d="M269.35,206.19l13.19,1"/><path id="path3267-3" data-name="path3267" class="cls-2" d="M251,173.89l16.28,4.91"/><path id="path3269-3" data-name="path3269" class="cls-2" d="M275,138.31,263.4,159.44"/><path id="path3271-3" data-name="path3271" class="cls-2" d="M243.4,105l14.38,9.08"/><path id="path3273-3" data-name="path3273" class="cls-2" d="M34.06,249.81l22.08-16.35"/><path id="path3275-3" data-name="path3275" class="cls-2" d="M83.17,189.18l11.74,46.88"/><path id="path3277-3" data-name="path3277" class="cls-2" d="M104.1,262.9,122.67,250"/><path id="path3279-3" data-name="path3279" class="cls-2" d="M134.92,231.67l5.49,26.41"/><path id="path3281-3" data-name="path3281" class="cls-2" d="M152.58,290,177,277.3"/><path id="path3289-3" data-name="path3289" class="cls-2" d="M233.48,274.12l17.4,28.07"/><path id="path3291-3" data-name="path3291" class="cls-2" d="M256.93,325.47l20.77-13.93"/><path id="path3293-3" data-name="path3293" class="cls-2" d="M328.74,266.13,318,287.63"/><path id="path3233-3" data-name="path3233" class="cls-2" d="M189.24,303.42l24.65-11.68"/><path id="path3219-3" data-name="path3219" class="cls-4" d="M75.67,175.69c-2-1.78-7.48-6.56-2.65-11.28,2.49-2.43,7.65-3.37,7.83-6.49s.89-12.17,7.17-9.31c4,1.81,6,4.35,5.69,8.89a35.33,35.33,0,0,1-3.28,13.6c-4.2,9.2.43,1.2,2.71-3.8,1.6-3.51,4.55-13.18,7.79-12.8,7.26.85,3.86,4.25,6.17,7.85,1.58,2.46,5.41,5.23,3.13,10.23-2.09,4.57-5.14,11.47-8.93,11l-7.4-.86c3.78.44,6.57.48,11.44,2.7s3.82,7.39.09,12.62c-3.88,5.44-1.77,6-4.9,12.86-2.82,6.19-6.75,5.51-10,.48-2.1-3.28-10.35-10.82-8.25-7.54,1.56,2.44,5.31,5,5.69,8.89.32,3.25,2.83,12.76-3.43,16.05-5,2.63-4.67,1.64-9.49-.56-3-1.39-10,3.3-10.77.12-.27-1.17-2.64-11.28,2.48-14,3.9-2,5.29-3.68,8.79-8.57,3.33-4.68,3.46-9.73,1.09-4.53-1.82,4-7.06,8.23-10.4,7.84C62,208.65,56.06,208,58.81,202c3.64-8-.06-6.23,1.05-10.84,1.4-5.79,2.73-10.38,9.26-9.61,4.71.55,11.34,3.6,12.91,5.89C76.2,182.68,80.22,179.84,75.67,175.69Z"/><path id="path3221-3" data-name="path3221" class="cls-29" d="M87.54,199.33c-4.14,3-8.75,1.88-10.36-2.55s.43-10.64,4.59-13.75,8.84-2,10.47,2.47-.43,10.64-4.59,13.75"/><path id="path3263-3" data-name="path3263" class="cls-6" d="M325.23,251.61c-1.5-1.37-5.77-5.05-2.05-8.68,1.92-1.87,5.89-2.59,6-5s.68-9.36,5.52-7.15c3.06,1.39,4.59,3.35,4.39,6.84a27.1,27.1,0,0,1-2.52,10.46c-3.23,7.07.33.92,2.08-2.92,1.23-2.7,3.5-10.13,6-9.84,5.59.66,3,3.27,4.76,6,1.22,1.9,4.17,4,2.42,7.87-1.6,3.52-4,8.81-6.87,8.47l-5.71-.67c2.91.34,5.06.37,8.81,2.09s2.95,5.69.08,9.71c-3,4.18-1.36,4.62-3.76,9.89-2.17,4.76-5.2,4.23-7.68.36-1.62-2.52-8-8.33-6.37-5.81,1.21,1.88,4.09,3.85,4.39,6.84.25,2.5,2.19,9.82-2.63,12.34-3.85,2-3.6,1.26-7.31-.44-2.34-1.07-7.72,2.53-8.3.08-.21-.9-2-8.68,1.9-10.74,3-1.57,4.08-2.82,6.76-6.59,2.56-3.59,2.66-7.48.84-3.49-1.4,3.06-5.43,6.32-8,6-3.28-.39-7.86-.9-5.74-5.52,2.8-6.13-.05-4.79.8-8.34,1.07-4.45,2.09-8,7.13-7.39,3.63.43,8.74,2.78,9.95,4.54C325.65,257,328.74,254.81,325.23,251.61Z"/><path id="path3266-3" data-name="path3266" class="cls-7" d="M333.59,269.43c-3.19,2.32-6.74,1.44-8-2s.32-8.18,3.52-10.58,6.81-1.54,8.07,1.91-.32,8.18-3.52,10.58"/><path id="path3431-3" data-name="path3431" class="cls-8" d="M240.57,329.75c-2.72.12-10.29.31-8.91,4.85.71,2.35,4.59,5,2.92,6.75s-6.39,6.83.69,8c4.47.72,7.67.22,10.11-2.3a18.77,18.77,0,0,0,5.17-8.59c1.8-6.65,1.07-.45.09,3.16-.69,2.53-3.84,8.91-.83,10.08,6.73,2.62,5.81-.62,9.91-1.55,2.8-.64,7.72-.48,8.7-4.1.9-3.31,2.32-8.25-1.19-9.62l-6.87-2.68a45.55,45.55,0,0,0,11.41,3.41c5.6.9,7.62-2.3,7.5-6.65-.13-4.53,2-3.93,3.36-8.89,1.21-4.47-2.56-5.78-8.28-4.47-3.73.85-15.25,1.35-11.52.5,2.78-.63,7.49-.4,10.11-2.3,2.18-1.59,9.94-5.56,6.49-10-2.75-3.51-3-2.85-8.48-3.72-3.42-.55-6.67-6-9.19-4.62-.92.5-8.9,4.86-6.08,8.45,2.15,2.73,2.39,4.19,2.51,8.26.12,3.89-2.74,6.62-1.72,2.86.78-2.88-1.23-7.34-4.33-8.55-4-1.54-9.44-3.7-10.62.65-1.56,5.76-3.72,3.27-5.47,6.19-2.2,3.66-3.75,6.65,2.3,9,4.37,1.7,11.86,2.89,14.55,2.34C245.13,326.28,246.91,329.48,240.57,329.75Z"/><path id="path3433-3" data-name="path3433" class="cls-7" d="M264.66,322.25c-1.78-3.35-6.41-4.7-10.4-3s-5.88,5.82-4.14,9.23,6.41,4.81,10.44,3.12,5.88-5.82,4.14-9.23"/><path id="path3487-3" data-name="path3487" class="cls-9" d="M266.43,120.59c-2-1.78-7.48-6.56-2.65-11.28,2.49-2.43,7.65-3.37,7.83-6.49s.89-12.17,7.17-9.31c4,1.81,6,4.35,5.69,8.89a35.33,35.33,0,0,1-3.28,13.6c-4.2,9.2.43,1.2,2.71-3.8,1.6-3.51,4.55-13.18,7.79-12.8,7.26.85,3.86,4.25,6.17,7.85,1.58,2.46,5.41,5.23,3.13,10.23-2.09,4.57-5.14,11.47-8.93,11l-7.4-.86c3.78.44,6.57.48,11.44,2.7s3.82,7.39.09,12.62c-3.88,5.44-1.77,6-4.9,12.86-2.82,6.19-6.75,5.51-10,.48-2.1-3.28-10.35-10.82-8.25-7.54,1.56,2.44,5.31,5,5.69,8.89.32,3.25,2.83,12.76-3.43,16.05-5,2.63-4.67,1.64-9.49-.56-3-1.39-10,3.3-10.77.12-.27-1.17-2.64-11.28,2.48-14,3.9-2,5.29-3.68,8.79-8.57,3.33-4.68,3.46-9.73,1.09-4.53-1.82,4-7.06,8.23-10.4,7.84-4.26-.5-10.19-1.16-7.45-7.17,3.64-8-.06-6.23,1.05-10.84,1.4-5.79,2.73-10.38,9.26-9.61,4.71.55,11.34,3.6,12.91,5.89C267,127.58,271,124.74,266.43,120.59Z"/><path id="path3489-3" data-name="path3489" class="cls-30" d="M278.29,144.22c-4.14,3-8.75,1.88-10.36-2.55s.43-10.64,4.59-13.75,8.84-2,10.47,2.47-.43,10.64-4.59,13.75"/><path id="path3513-3" data-name="path3513" class="cls-11" d="M305.86,257.24c1.95.2,7.31.92,7.68-4.23.19-2.66-1.74-6.07-.05-7.76s6.5-6.71,1.87-8.82c-2.92-1.33-5.32-1.17-7.78,1.29a28.16,28.16,0,0,0-6.17,8.79c-3.23,7.07-.89.36.87-3.47,1.23-2.7,5.32-9.3,3.56-11-4-3.7-4.26,0-7.41.49-2.16.36-5.56-.42-7.32,3.43-1.6,3.52-4.07,8.76-2,10.69l4,3.77c-2.05-1.92-3.41-3.49-7-5.13s-6,1.59-7.22,6.38c-1.24,5-2.57,4.07-5,9.34-2.17,4.76.09,6.65,4.49,5.92,2.87-.47,11.1.38,8.24.86-2.13.35-5.38-.48-7.78,1.29-2,1.47-8.62,4.89-7.49,10.12.9,4.19,1.3,3.49,4.85,5.12,2.24,1,2.92,7.38,5.08,6.19.8-.44,7.68-4.24,6.76-8.52-.7-3.26-.44-4.88.68-9.36,1.07-4.28,3.88-6.92,2.06-2.93-1.4,3.06-1.31,8.2.51,9.91,2.32,2.17,5.53,5.21,7.64.58,2.8-6.13,3.57-3.13,5.67-6.12,2.62-3.74,4.6-6.84,1-10.16-2.56-2.4-7.47-4.62-9.52-4.34C301.63,260.5,301.32,256.77,305.86,257.24Z"/><path id="path3515-3" data-name="path3515" class="cls-7" d="M287.51,262.88c.26,3.89,3.11,5.94,6.4,4.59s5.85-5.66,5.63-9.61-3.08-6.06-6.41-4.7-5.85,5.66-5.63,9.61"/><path id="path3572-3" data-name="path3572" class="cls-12" d="M253.23,77.65c2.47-1.15,11.66-1.94,8.41,6.15s-.15,2.38,2.46,8.92c1.33,3.32,2.89,9.84-1.8,12-4.38,2-6.41,1-10.24,1.41-3.24.36-7.82-1.27-3.72,1.73,2.76,2,8.53-1.93,9.32,2.37.24,1.3,1,9.58-1.25,10.64-6.18,2.87-3.48,2.42-7.05,5.51-2.46,2.13-6.71,5.82-8.75.71-1.72-4.31-4.19-18.82-4.16-13.72a48.52,48.52,0,0,0,.79,8.58c.78,4.21-.59,10.57-4.42,11-1.82.2-9.67,3.2-9.69,0,0-7.42-1.55-5.31-4.14-9.25-2.39-3.64-5.16-9.9-.62-12,3.48-1.62,14.11-3.1,10.6-3.81l-3.36-.68c-3.27-.66-9.87,3.38-10.62-.65-1.12-6.05-2.63-10,1.8-12,5.23-2.43,1.07-8.7,6.67-7.57,2.19.44,7.21,2.59,8.22,5.12,1.94,4.85,3.94,7.64.74-.35-1.2-3-3.12-9.17-2.49-13.38,1.29-8.57,4.22-2.47,5.76-3.79s3-3.64,4.82-4.48c4.58-2.13,6.69-2.37,6.73,5.81,0,4.14,1.73,14.43-.11,16.82C247.88,84.88,247.76,80.19,253.23,77.65Z"/><path id="path3582-3" data-name="path3582" class="cls-7" d="M242.34,111.68c-4.3,2.67-9.39,1.26-11.43-3.16A10.75,10.75,0,0,1,235,95.42c4.32-2.77,9.49-1.38,11.55,3.09a10.75,10.75,0,0,1-4.09,13.1"/><path id="path3592-3" data-name="path3592" class="cls-6" d="M137.89,241.36c1.22,1.71,4.73,6.35.65,9.27-2.11,1.5-6,1.4-6.48,3.82s-2.05,9.4-6.32,6.13c-2.7-2.06-3.86-4.37-3.15-7.89a28,28,0,0,1,4-10.13c4.13-6.53-.18-1-2.42,2.54-1.57,2.49-4.85,9.59-7.18,8.77-5.22-1.84-2.34-4-3.62-7.15-.87-2.19-3.36-5-1.11-8.53,2.05-3.25,5.08-8.15,7.81-7.19l5.32,1.88c-2.72-1-4.75-1.44-8.07-4s-1.95-6.41,1.39-9.91,2-4.42,5.06-9.29c2.78-4.39,5.58-3.23,7.36,1.24,1.16,2.91,6.34,10.16,5.18,7.25-.86-2.17-3.31-4.77-3.15-7.89.14-2.6-.61-10.46,4.35-12,4-1.25,3.61-.53,6.89,2,2.06,1.58,7.72-1,7.91,1.65.07,1,.64,9.27-3.42,10.55-3.09,1-4.3,2-7.42,5.3s-3.66,7.06-1.32,3.38c1.79-2.83,6.12-5.3,8.52-4.46,3.06,1.08,7.33,2.56,4.63,6.83-3.58,5.66-.67,4.89-2,8.33-1.69,4.31-3.19,7.69-7.89,6-3.39-1.19-7.89-4.66-8.78-6.71C138.31,235.79,135,237.37,137.89,241.36Z"/><path id="path3594-3" data-name="path3594" class="cls-7" d="M132.63,221.46c3.38-1.7,6.63-.06,7.29,3.68a10,10,0,0,1-4.94,10c-3.4,1.77-6.71.14-7.38-3.63a10,10,0,0,1,4.94-10"/><path id="path3604-3" data-name="path3604" class="cls-13" d="M44.43,242.14c2.85-.85,10.78-3,9.11-8-.86-2.57-5.06-4.71-3.38-7.18s6.38-9.7-1.11-9.18c-4.73.32-8.06,1.75-10.5,5.35a29,29,0,0,0-5,11.45c-1.57,8.29-1.1.81-.25-3.69.6-3.16,3.6-11.47.39-12.07-7.19-1.33-6.07,2.24-10.33,4.41-2.91,1.48-8.08,2.58-8.94,7.09-.78,4.12-2,10.3,1.71,11l7.34,1.35c-3.74-.69-6.34-1.42-12.14-1s-7.89,4.7-7.55,9.78c.36,5.29-1.93,5.15-3.1,11.32-1.06,5.57,3,6.12,8.9,3.1,3.87-2,15.94-5.57,12.07-3.6-2.88,1.47-7.85,2.43-10.5,5.35C8.92,270,1,276.7,4.8,281c3.06,3.41,3.33,2.55,9.08,2.16,3.62-.25,7.29,5.3,9.86,3,.94-.83,9.11-8,6-11.52-2.38-2.65-2.71-4.3-3-9.05-.31-4.54,2.56-8.5,1.67-3.82-.68,3.59,1.64,8.31,5,8.92,4.22.78,10.08,1.88,11.11-3.54,1.36-7.18,3.74-4.82,5.45-8.71,2.14-4.87,3.62-8.8-2.85-10-4.67-.86-12.59-.3-15.38,1C39.8,247.42,37.78,244.12,44.43,242.14Z"/><path id="path3606-3" data-name="path3606" class="cls-7" d="M19.51,257.26c2,3.47,7,3.85,11.06.85s5.9-8.38,3.91-11.93-7-4-11.11-.94-5.9,8.38-3.91,11.93"/><path id="path3610-3" data-name="path3610" class="cls-8" d="M247.89,150.71c1.65-2.93,6.33-11,2-10.9-2.25.07-6.77,3.41-7,1.12s-1.14-8.8-6.53-1.6c-3.4,4.54-5.06,8.1-4.7,11.43.32,2.9.93,5.73,3.26,8,3.93,3.87-.34,1.27-2.47-.83-1.5-1.47-4.36-6.69-7.17-3.84-6.3,6.39-3.24,6.36-5.14,11-1.3,3.17-4.56,8.35-2.42,10.46,2,1.92,4.82,4.89,8.11,1.55l6.43-6.52a88.8,88.8,0,0,0-9.89,11.14c-4.26,5.69-3.11,8.78.3,9.92s1.72,3.29,4.65,6.17c2.64,2.6,6-1,8.7-7.49,1.73-4.22,8.71-16.62,7-12.4-1.29,3.14-4.48,8.09-4.7,11.43-.18,2.79-2.09,12.2,3.46,9.82,4.44-1.9,4.12-2.41,8.26-7.93,2.61-3.48,8.84-5.34,9.4-8.42.2-1.13,2-10.89-2.57-8.95-3.46,1.48-4.72,1.31-7.91.25s-3.31-4.86-1.09-2.67c1.7,1.67,6.4.85,9.3-2.09,3.7-3.75,8.85-9,6.28-11.48-3.41-3.35-.13-4.91-1.24-7.64-1.39-3.41-2.69-5.94-8.36-.19-4.09,4.15-9.78,11.77-11.08,14.79C247.64,156.59,244.05,157.54,247.89,150.71Z"/><path id="path3612-3" data-name="path3612" class="cls-7" d="M238.25,178.53c3.7-.91,7.68-5.44,9-10.17s-.69-8-4.41-7.11-7.77,5.41-9.05,10.19.69,8,4.41,7.11"/><path id="path3616-3" data-name="path3616" class="cls-6" d="M254.5,197.31c-1.5-1.37-5.77-5.05-2.05-8.68,1.92-1.87,5.89-2.59,6-5s.68-9.36,5.52-7.15c3.06,1.39,4.59,3.35,4.39,6.84a27.1,27.1,0,0,1-2.52,10.46c-3.23,7.07.33.92,2.08-2.92,1.23-2.7,3.5-10.13,6-9.84,5.59.66,3,3.27,4.76,6,1.22,1.9,4.17,4,2.42,7.87-1.6,3.52-4,8.81-6.87,8.47l-5.71-.67c2.91.34,5.06.37,8.81,2.09s2.95,5.69.08,9.71c-3,4.18-1.36,4.62-3.76,9.89-2.17,4.76-5.2,4.23-7.68.36-1.62-2.52-8-8.33-6.37-5.81,1.21,1.88,4.09,3.85,4.39,6.84.25,2.5,2.19,9.82-2.63,12.34-3.85,2-3.6,1.26-7.31-.44-2.34-1.07-7.72,2.53-8.3.08-.21-.9-2-8.68,1.9-10.74,3-1.57,4.08-2.82,6.76-6.59,2.56-3.59,2.66-7.48.84-3.49-1.4,3.06-5.43,6.32-8,6-3.28-.39-7.86-.9-5.74-5.52,2.8-6.13-.05-4.79.8-8.34,1.07-4.45,2.09-8,7.13-7.39,3.63.43,8.74,2.78,9.95,4.54C254.91,202.69,258,200.51,254.5,197.31Z"/><path id="path3618-3" data-name="path3618" class="cls-7" d="M262.85,215.14c-3.19,2.32-6.74,1.44-8-2s.32-8.18,3.52-10.58,6.81-1.54,8.07,1.91-.32,8.18-3.52,10.58"/><path id="path3622-3" data-name="path3622" class="cls-14" d="M237.7,254.33c3.12-1.8,7.22-2.77,10.53-.09,1.78,1.44-.52,6.45,1.51,5.89,3.58-1,6.18-.65,7.16,3.64.62,2.72,2.19,5.71-1.8,6.8l-9.93,2.73c-2.18.6-10.21,3.5-4.32,1.89,3.53-1,7.35-3.13,9.56-.52,1.5,1.78,5.15,7,2.77,8.35-2.87,1.65-7.4,2.26-8.33,4.39-.85,2-4.05,5.58-5.68,3.66a47.83,47.83,0,0,1-4.45-7.19c-1.12-2.18-4.81-9-3.22-3.32.82,2.93,3.47,6.73,3.4,9.58s-.89,3.75-5,4.89c-2.42.66-9.12,1.66-9.84-1.51-1.28-5.64-3.81-1.53-5.49-4.8-1.05-2-1.28-6.43-.47-8.28,1.5-3.43,2.54-3.5,7.35-4.82,7.59-2.08.17,1.16-2.65.73-1.67-.26-7.2,1.56-9.56.52-.66-.29-7.83-3-5.14-5.6,2.19-2.12,3.67-2.45,2.78-6.37-.93-4.12,2.29-3,6.31-2.43,3.11.48,10.78,6.24,8.8,3.9-1.43-1.7-2.73-3.47-4.16-5.17-.8-1-6.12-7-2.14-7.12,1.55-.06,8.43,1.52,9.52.89.74-.42,5.1-5.93,6.69-4.64,3,2.45,2.57,2.79,2.49,6.33-.05,2.42-2.26,5.62-1.17,8C235.31,261.2,234.44,256.2,237.7,254.33Z"/><path id="path3624-3" data-name="path3624" class="cls-31" d="M234.77,278.67a7.15,7.15,0,0,1-8.57-2.74,5,5,0,0,1,2-7.58,7.14,7.14,0,0,1,8.65,2.71,5,5,0,0,1-2,7.58"/><path id="path3647-3" data-name="path3647" class="cls-16" d="M80.37,247.93c1.56-3.58,2-9.37,6.59-7.63,6.68,2.55,2.26,1.39,8.24-.82,3.33-1.23,6.64-2.75,6.7,2.34,0,3,1,6.77-.87,10.7-1.05,2.17-4.26,12.15-1.5,6.48.73-1.49,2.18-9.33,4.8-10.3,3.72-1.38,7.52-2.22,8.46,1.69.54,2.25-.63,8.17.3,9.15,1.49,1.59,5.41,4.61,1.87,9.31-3.19,4.24-4.9,3.65-10.37,3.09-7.86-.8-3.08-1.62,1.57.16,3.67,1.4,7.65,1.49,8.5,5,.32,1.32.22,11.12-1.84,11.43-2.63.39-9-.95-8.83-.07s1.33,10.35-4.64,6.16c-3.81-2.67-2.7-4-4.79-7.12s-3-9.07-3-1.13c0,4.27-.11,8.3-2,12.24-1,2-8.94,5.83-10,1.47-1.61-6.64-1.67-2.18-6.32-4-4.32-1.65-2.09-6.32.08-10.78,1.77-3.63,13-8.76,9.14-8.2-.12,0-7.44,2.45-10,1.47-1.41-.54-8.11-5.3-3.63-8.66,4.9-3.68,1.42-2.66,1.91-4.78.85-3.68.83-10.7,4.8-10.3,4.51.46,7.62,6.47,10.48,6.87C83.25,259.83,78.85,251.42,80.37,247.93Z"/><path id="path3649-3" data-name="path3649" class="cls-32" d="M94.1,274.61c-3,2.93-7.24,3.14-9.62.46s-2-7.34,1-10.35,7.29-3.25,9.69-.54,2,7.34-1,10.35"/><path id="path3661-3" data-name="path3661" class="cls-6" d="M139.31,283.15c-1.5-1.37-5.77-5.05-2.05-8.68,1.92-1.87,5.89-2.59,6-5s.68-9.36,5.52-7.15c3.06,1.39,4.59,3.35,4.39,6.84a27.1,27.1,0,0,1-2.52,10.46c-3.23,7.07.33.92,2.08-2.92,1.23-2.7,3.5-10.13,6-9.84,5.59.66,3,3.27,4.76,6,1.22,1.9,4.17,4,2.42,7.87-1.6,3.52-4,8.81-6.87,8.47l-5.71-.67c2.91.34,5.06.37,8.81,2.09s2.95,5.69.08,9.71c-3,4.18-1.36,4.62-3.76,9.89-2.17,4.76-5.2,4.23-7.68.36-1.62-2.52-8-8.33-6.37-5.81,1.21,1.88,4.09,3.85,4.39,6.84.25,2.5,2.19,9.82-2.63,12.34-3.85,2-3.6,1.26-7.31-.44-2.34-1.07-7.72,2.53-8.3.08-.21-.9-2-8.68,1.9-10.74,3-1.57,4.08-2.82,6.76-6.59,2.56-3.59,2.66-7.48.84-3.49-1.4,3.06-5.43,6.32-8,6-3.28-.39-7.86-.9-5.74-5.52,2.8-6.13-.05-4.79.8-8.34,1.07-4.45,2.09-8,7.13-7.39,3.63.43,8.74,2.78,9.95,4.54C139.72,288.53,142.81,286.35,139.31,283.15Z"/><path id="path3663-3" data-name="path3663" class="cls-7" d="M147.66,301c-3.19,2.32-6.74,1.44-8-2s.32-8.18,3.52-10.58,6.81-1.54,8.07,1.91-.32,8.18-3.52,10.58"/><path id="path3667-3" data-name="path3667" class="cls-6" d="M179.07,294.79c-1.5-1.37-5.77-5.05-2.05-8.68,1.92-1.87,5.89-2.59,6-5s.68-9.36,5.52-7.15c3.06,1.39,4.59,3.35,4.39,6.84a27.1,27.1,0,0,1-2.52,10.46c-3.23,7.07.33.92,2.08-2.92,1.23-2.7,3.5-10.13,6-9.84,5.59.66,3,3.27,4.76,6,1.22,1.9,4.17,4,2.42,7.87-1.6,3.52-4,8.81-6.87,8.47l-5.71-.67c2.91.34,5.06.37,8.81,2.09s2.95,5.69.08,9.71c-3,4.18-1.36,4.62-3.76,9.89-2.17,4.76-5.2,4.23-7.68.36-1.62-2.52-8-8.33-6.37-5.81,1.21,1.88,4.09,3.85,4.39,6.84.25,2.5,2.19,9.82-2.63,12.34-3.85,2-3.6,1.26-7.31-.44-2.34-1.07-7.72,2.53-8.3.08-.21-.9-2-8.68,1.9-10.74,3-1.57,4.08-2.82,6.76-6.59,2.56-3.59,2.66-7.48.84-3.49-1.4,3.06-5.43,6.32-8,6-3.28-.39-7.86-.9-5.74-5.52,2.8-6.13-.05-4.79.8-8.34,1.07-4.45,2.09-8,7.13-7.39,3.63.43,8.74,2.78,9.95,4.54C179.48,300.17,182.57,298,179.07,294.79Z"/><path id="path3669-3" data-name="path3669" class="cls-7" d="M188.58,311.67c-3.19,2.32-6.74,1.44-8-2s.32-8.18,3.52-10.58,6.81-1.54,8.07,1.91-.32,8.18-3.52,10.58"/><path id="path3673-3" data-name="path3673" class="cls-6" d="M178.25,240.53c-1.5-1.37-5.77-5.05-2.05-8.68,1.92-1.87,5.89-2.59,6-5s.68-9.36,5.52-7.15c3.06,1.39,4.59,3.35,4.39,6.84A27.1,27.1,0,0,1,189.62,237c-3.23,7.07.33.92,2.08-2.92,1.23-2.7,3.5-10.13,6-9.84,5.59.66,3,3.27,4.76,6,1.22,1.9,4.17,4,2.42,7.87-1.6,3.52-4,8.81-6.87,8.47L192.3,246c2.91.34,5.06.37,8.81,2.09s2.95,5.69.08,9.71c-3,4.18-1.36,4.62-3.76,9.89-2.17,4.76-5.2,4.23-7.68.36-1.62-2.52-8-8.33-6.37-5.81,1.21,1.88,4.09,3.85,4.39,6.84.25,2.5,2.19,9.82-2.63,12.34-3.85,2-3.6,1.26-7.31-.44-2.34-1.07-7.72,2.53-8.3.08-.21-.9-2-8.68,1.9-10.74,3-1.57,4.08-2.82,6.76-6.59,2.56-3.59,2.66-7.48.84-3.49-1.4,3.06-5.43,6.32-8,6-3.28-.39-7.86-.9-5.74-5.52,2.8-6.13-.05-4.79.8-8.34,1.07-4.45,2.09-8,7.13-7.39,3.63.43,8.74,2.78,9.95,4.54C178.66,245.91,181.76,243.73,178.25,240.53Z"/><path id="path3675-3" data-name="path3675" class="cls-7" d="M186.6,258.35c-3.19,2.32-6.74,1.44-8-2s.32-8.18,3.52-10.58,6.81-1.54,8.07,1.91-.32,8.18-3.52,10.58"/><path id="path3760-3" data-name="path3760" class="cls-18" d="M286.71,394.89l77.65-56.14"/><path id="path3839-3" data-name="path3839" class="cls-19" d="M324.15,351.62l16.68,4.49"/><path id="path3841-3" data-name="path3841" class="cls-20" d="M315.06,387.87l10.14-22.22"/><path id="path3843-3" data-name="path3843" class="cls-21" d="M284.22,379.6,310.4,377"/><path id="path3987-3" data-name="path3987" class="cls-22" d="M328.89,372.25c.88-2.84,3.48-10.65-1.58-12-2.61-.72-6.73,1.57-7.84-1.2s-4.49-10.7-8.24-4.21c-2.37,4.1-3,7.67-1.42,11.7a29,29,0,0,0,6.71,10.56c6,5.93.06,1.37-3.2-1.85-2.29-2.26-7.51-9.39-9.8-7.05-5.11,5.23-1.53,6.29-2.1,11-.39,3.24-2.36,8.15.9,11.37,3,2.95,7.41,7.44,10.08,4.71l5.21-5.33c-2.66,2.72-4.71,4.47-7.62,9.51s-.5,9.17,3.9,11.72c4.59,2.65,3.2,4.47,7.67,8.89,4,4,6.73,1,7.54-5.66.52-4.31,4.27-16.34,3.74-12-.39,3.21-2.36,7.87-1.42,11.7.78,3.2,1.91,13.53,7.58,12.73,4.53-.64,4-1.34,6.86-6.33,1.81-3.14,8.46-3.1,8-6.5-.16-1.25-1.59-12-6.23-11.39-3.53.5-5.08-.15-9.2-2.54-3.94-2.28-5.62-6.87-2.24-3.52,2.6,2.57,7.82,3.27,10.17.87,3-3.07,7.19-7.32,3.26-11.19-5.2-5.14-1.91-5.79-4.19-9.38-2.85-4.49-5.28-7.91-9.88-3.21-3.32,3.39-7.27,10.28-7.71,13.35C330.69,379,326.83,378.87,328.89,372.25Z"/><path id="path3989-3" data-name="path3989" class="cls-7" d="M327.53,401.36c4,.25,7.07-3.62,6.87-8.7s-3.66-9.57-7.72-9.9-7.18,3.56-7,8.69,3.66,9.57,7.72,9.9"/><path id="path3999-3" data-name="path3999" class="cls-23" d="M291.8,350.18c2.47-1.15,11.66-1.94,8.41,6.15s-.15,2.38,2.46,8.92c1.33,3.32,2.89,9.84-1.8,12-4.38,2-6.41,1-10.24,1.41-3.24.36-7.82-1.27-3.72,1.73,2.76,2,8.53-1.93,9.32,2.37.24,1.3,1,9.58-1.25,10.64-6.18,2.87-3.48,2.42-7.05,5.51-2.46,2.13-6.71,5.82-8.75.71-1.72-4.31-4.19-18.82-4.16-13.72a48.52,48.52,0,0,0,.79,8.58c.78,4.21-.59,10.57-4.42,11-1.82.2-9.67,3.2-9.69,0,0-7.42-1.55-5.31-4.14-9.25-2.39-3.64-5.16-9.9-.62-12,3.48-1.62,14.11-3.1,10.6-3.81l-3.36-.68c-3.27-.66-9.87,3.38-10.62-.65-1.12-6.05-2.63-10,1.8-12,5.23-2.43,1.07-8.7,6.67-7.57,2.19.44,7.21,2.59,8.22,5.12,1.94,4.85,3.94,7.64.74-.35-1.2-3-3.12-9.17-2.49-13.38,1.29-8.57,4.22-2.47,5.76-3.79s3-3.64,4.82-4.48c4.58-2.13,6.69-2.37,6.73,5.81,0,4.14,1.73,14.43-.11,16.82C286.45,357.41,286.33,352.73,291.8,350.18Z"/><path id="path4001-3" data-name="path4001" class="cls-7" d="M280.91,384.21c-4.3,2.67-9.39,1.26-11.43-3.16a10.75,10.75,0,0,1,4.09-13.1c4.32-2.77,9.49-1.38,11.55,3.09a10.75,10.75,0,0,1-4.09,13.1"/><path id="path4005-3" data-name="path4005" class="cls-24" d="M317.94,336.47c-1.57-1.22-6-4.52-2.82-7,1.65-1.27,5.37-1.44,5.26-3.3s-.28-7.25,4.56-5c3.06,1.39,4.72,3.08,4.87,5.79a15.54,15.54,0,0,1-1.36,7.93c-2.38,5.21.41.75,1.7-2.07.91-2,2.33-7.58,4.74-7.1,5.41,1.07,3.17,2.85,5.14,5.2,1.35,1.6,4.38,3.56,3.09,6.4-1.18,2.59-2.9,6.5-5.72,5.94l-5.51-1.09a31.55,31.55,0,0,1,8.62,2.51c3.83,1.75,3.38,4.74,1,7.6s-.84,3.48-2.61,7.36c-1.6,3.5-4.54,2.79-7.29-.48-1.8-2.13-8.45-7.31-6.66-5.17,1.34,1.59,4.29,3.41,4.87,5.79.49,2,3.07,7.9-1.28,9.39-3.48,1.19-3.31.63-7-1.07-2.34-1.07-7.12,1.21-7.92-.76-.29-.72-2.81-7,.74-8.21,2.71-.93,3.61-1.8,5.8-4.48s1.8-5.58.45-2.64c-1,2.25-4.56,4.4-7,3.91-3.17-.63-7.59-1.48-6-4.89,2.06-4.51-.53-3.75-.07-6.44.58-3.37,1.21-6,6.07-5.07,3.51.69,8.62,3,9.95,4.54C318.87,340.72,321.6,339.32,317.94,336.47Z"/><path id="path4007-3" data-name="path4007" class="cls-7" d="M327.69,351.24a5.85,5.85,0,1,1,.08,0"/><path id="path4412-3" data-name="path4412" class="cls-12" d="M318,174.75c2.47-1.15,11.66-1.94,8.41,6.15s-.15,2.38,2.46,8.92c1.33,3.32,2.89,9.84-1.8,12-4.38,2-6.41,1-10.24,1.41-3.24.36-7.82-1.27-3.72,1.73,2.76,2,8.53-1.93,9.32,2.37.24,1.3,1,9.58-1.25,10.64-6.18,2.87-3.48,2.42-7.05,5.51-2.46,2.13-6.71,5.82-8.75.71-1.72-4.31-4.19-18.82-4.16-13.72a48.52,48.52,0,0,0,.79,8.58c.78,4.21-.59,10.57-4.42,11-1.82.2-9.67,3.2-9.69,0,0-7.42-1.55-5.31-4.14-9.25-2.39-3.64-5.16-9.9-.62-12,3.48-1.62,14.11-3.1,10.6-3.81l-3.36-.68c-3.27-.66-9.87,3.38-10.62-.65-1.12-6.05-2.63-10,1.8-12,5.23-2.43,1.07-8.7,6.67-7.57,2.19.44,7.21,2.59,8.22,5.12,1.94,4.85,3.94,7.64.74-.35-1.2-3-3.12-9.17-2.49-13.38,1.29-8.57,4.22-2.47,5.76-3.79s3-3.64,4.82-4.48c4.58-2.13,6.69-2.37,6.73,5.81,0,4.14,1.73,14.43-.11,16.82C312.6,182,312.48,177.29,318,174.75Z"/><path id="path4414-3" data-name="path4414" class="cls-7" d="M307.06,208.78c-4.3,2.67-9.39,1.26-11.43-3.16a10.75,10.75,0,0,1,4.09-13.1c4.32-2.77,9.49-1.38,11.55,3.09a10.75,10.75,0,0,1-4.09,13.1"/></g></g></g></svg>