<svg xmlns="http://www.w3.org/2000/svg" viewBox="0 0 883 260.9"><defs><style>.cls-1{fill:#7ca224;}.cls-2{fill:#cb711b;}.cls-3{fill:#bc5f08;}.cls-4{fill:#6a3c1b;}</style></defs><title>rock</title><g id="Layer_2" data-name="Layer 2"><g id="Mountain"><path class="cls-1" d="M883,231.34s-90-13-108-9a50.06,50.06,0,0,1-6.64.39c-64.47-1.53-202.55-4.76-337-7.9-148.81-4.45-299.8-9.41-347.2-11a48.18,48.18,0,0,0-15.65-.48l-2.21.13C52.21,203.89,0,207.34,0,207.34v53H708.56c19.71.65,43.42.85,64.83,0H883Z"/><path class="cls-2" d="M95.18,207S148.63,84.7,162.68,78.62s26.47-25.23,45.79-31.32,33.37-7.6,56.21-18.24,31.59-16.73,61.46-12.17,41.27,6.05,59.7-1.53,58-16.72,86.07-15.19,60.59,7.6,78.15,12.16S579.92,23,602.75,21.44s64.1,21.3,76.4,33.47,23.69,12.17,38.62,15.2,29,6.08,43.93,59.31a430.31,430.31,0,0,0,39.51,94.29s8.79,13.68,0,12.16-15.8,4.79-27.21.11-22,1.41-43.92-.11-25.46-4.55-50.05-4.55-91.32,6.08-122-1.52-86.93-6.09-97.48-6.09-112.4-4.57-131.72-4.57-79-9.29-92.17-6.25-51-5.91-69.39-2.87S105.73,216.1,95.18,207Z"/><path class="cls-3" d="M141.73,123.44c1.76-16.83,15.68-34.18,30.61-44.82A32.49,32.49,0,0,0,176,75.49a44.13,44.13,0,0,0-13.34,3.14C148.63,84.7,95.18,207,95.18,207c4.29,3.73,13.93,5.42,25.11,5.92,2-10.07,2.09-28.82,6.51-45.45C132.08,147.67,140,140.26,141.73,123.44Z"/><path class="cls-3" d="M277,47.31c-8.77-1.53-31.61,54.73-35.13,71.31s4.62,46.12,7,58c3.64,18,7.9-41.14,6.16-58s13.17-45.45,17.56-53.06S285.75,48.82,277,47.31Z"/><path class="cls-3" d="M366.75,188.73c1.32-12.54,4-17.11,7.91-22.81s-2,20.52,5.27,14.1,15.14-51.73,20.42-56.58,8.56-35.09,11.77-57.88,21.15-41.06,31-52.92c4.35-5.22,4.62-9.08,3.16-11.48-4,.43-8.09,1-12.13,1.63-8.11,11.47-27,45.49-33.83,51.37-7.91,6.84-13.83,42.19-16.47,59.5s-11.2,22.63-17.78,39.73-11.86,42.21-15.8,50.19-5.94-6.83,0-33.07,4.6-25.09,0-27.37,5.26-13.68,7.9-35.35,11.2-30.8,21.07-45.63,31.62-39.92,41.51-49.5a41.15,41.15,0,0,0,6.76-8.7C411,7,395.52,11.37,385.84,15.36A75.65,75.65,0,0,1,375,18.94c-6.27,13.76-21.79,30.77-28,38.63-7.24,9.12-16.47,45.62-18.44,65.87s-5.93,35.64-11.2,23.09S322,98.64,332.5,72.39C340,53.62,356,31.92,364.74,20.51c-8.72.58-18.38-.59-32.4-2.68a39.35,39.35,0,0,1-5.75,4.38c-13.18,8-34.92,89-36.23,101.23s-5.94,21.95-13.83,36.77c-5.43,10.19-7.44,36.71-8.18,52.35,23.43,2.82,49.67,6.58,60.42,6.58,6.15,0,20.65.46,37.88,1.1C366.7,210.26,365.9,196.87,366.75,188.73Z"/><path class="cls-3" d="M464.89,163.64c4.61-10.27,8.39-4.76,12.76-28.62s2.37-26.14,7-45.52A160.5,160.5,0,0,1,501.1,47.27c4.62-7.95.66-6.81,6.59-19.36,2.71-5.74,8.57-14.29,13.46-21.74-2.41-.45-4.9-.86-7.42-1.26-.88,1.48-1.42,2.47-1.42,2.47-9.88,9.12-15.8,20.47-24.38,39.89S463.56,69,462.9,96.34s-7.25,60.46-15.8,63.87-1.32,42.21,0,52.47c.37,3,.77,6.83,1.18,10.67l7.13.25c.6-6.85.91-15.32.91-24.61C456.32,179.61,460.27,173.9,464.89,163.64Z"/><path class="cls-3" d="M569.6,180c-.65-14.41,0-26.65,5.28-36.91s7.24-22.81,8.55-37.63,3.3-22.81,11.86-31.94,4.59-13.69,3.29-26.27-6.58-6.81-17.78,0-18.45,9.17-29,17.14S535.36,82.66,529,88.36s-9.4,44.48-25.21,73c-15.55,28-19,41.77-21.6,62.22,22.07.07,54.86,1,75.83,6.21a116.72,116.72,0,0,0,15.74,2.52C575.29,219.43,570.1,191.14,569.6,180Z"/><path class="cls-3" d="M693.78,192.16c-.82-13.69-5-14.83-5.81-25.1S679.7,150,676.38,119s1.67-26.11,0-44.36S663.94,77,649,97.49s-4.14,19.38,0,25.95,1.65,11.68,15.76,39.06c8.33,16.14,10.85,24.36,12.57,31.18,1.19,4.76,3.73,8.17,4,14.45.61,13.42,1.08,20.08,1.92,23.19h.28c3.79,0,7.16,0,10.23.13C704,231.57,694.63,205.85,693.78,192.16Z"/><path class="cls-3" d="M646.51,90.65c-1-26.51,1.48-40.26,3.43-55.09-2.07-1.08-4.19-2.11-6.33-3.11-4.58,20.2-9.47,50.21-9.47,50.21C638.1,94.07,647.66,120.3,646.51,90.65Z"/><path class="cls-3" d="M624.92,58.11c2.23-16.34,1.68-26.31.44-32.93A86,86,0,0,0,612.17,22a33.4,33.4,0,0,0-1.73,10.51C610.44,47.31,623.33,69.8,624.92,58.11Z"/><path class="cls-4" d="M593.14,41.67s2.33,8.83,17.3,33.1,40.47,157.56,40.47,157.56l29.11-1s4-51.2-7.18-64.47S650.27,109,638.94,90.21,593,32.45,593.14,41.67Z"/><path class="cls-4" d="M774,236c11.41,4.68,18.43-1.63,27.21-.11s0-12.16,0-12.16a430.31,430.31,0,0,1-39.51-94.29c-14.93-53.23-29-56.27-43.93-59.31-7-1.43-13.29-2.22-19.22-3.89l0,0s9.6,3,18.7,19.55,22.33,33.23,29,58.39,3.31,62.61,4.13,68.71c.39,2.83,3.27,12.38,6.25,21.81C763.1,234,768.45,233.72,774,236Z"/><path class="cls-4" d="M447.11,160.21c4.78-1.91,9-13.1,11.81-27.38L462.78,100c0-1.24.1-2.48.13-3.7a51.47,51.47,0,0,1,1.84-13.07h0A54.83,54.83,0,0,0,450.15,99c-5.91,9.93-13.36,39.78-21.63,50.5S407,221.79,407,221.79s21.52,1.82,41.29,1.57c-.41-3.85-.81-7.69-1.18-10.67C445.78,202.43,438.54,163.64,447.11,160.21Z"/><path class="cls-4" d="M606.65,233.61c-2.76-8.81-18.19-84.08-18.19-84.08l-7.72,9.61V133.23c0-8.27,2.7-27.76,2.7-27.76s-5.45,17.27-16.48,44.05-11,31.12-16.55,46.57a118.33,118.33,0,0,0-6.07,31.43s19.29,2.23,25.37,6.08S606.65,233.61,606.65,233.61Z"/><path class="cls-4" d="M309.57,54.82s-33.26,119.77-28.85,160.1a138.66,138.66,0,0,0-25.92-2S267,157,268.35,149.53,278,126.1,287.06,104.3,297.09,67.25,309.57,54.82Z"/><path class="cls-4" d="M142.29,212.62s11.36.78,19.47-1.81c0,0,25.76-85,36.78-107.93,0,0-15.27,19.3-22.53,29.78s-8,21-14.25,33.65S145.05,196.06,142.29,212.62Z"/><path class="cls-3" d="M209.34,137c7-7.6,7.91-15.22,8.79-32.46s28.1-51.18,40.39-67.91a56.12,56.12,0,0,1,8.94-8.92l-2.79,1.32a189.13,189.13,0,0,1-32.31,11.62c-20.36,29.82-36,67.55-43.22,82.76C176.85,149.38,161.92,210,161.92,210c-.06.27-.11.53-.16.8,2-.25,3.8-.53,5.44-.8,9.64-1.59,21.94-.69,33.35.11a82.85,82.85,0,0,1-5.26-22.93C193.55,159.84,202.32,144.62,209.34,137Z"/><path class="cls-4" d="M366.65,220.24s.09-15.14.1-31.51,7.1-49.08,10.91-57.29,9-16.06,9.54-37.47c0,0-20.44,37.05-24.87,54.15S348.55,179,343.59,190.58s-6.32,28.7-6.32,28.7Z"/><path class="cls-4" d="M286.64,153.32l13.93-26.16s-.55,9.93,0,19.86,6.07,20.4,6.61,29.23,2.38,41.65,2.38,41.65-24.42-.7-28.85-3-4.41-66.8-4.41-66.8Z"/></g></g></svg>