<svg xmlns="http://www.w3.org/2000/svg" viewBox="0 0 1839.5 372.05"><defs><style>.cls-1{fill:#cfd7db;}.cls-2{fill:#89b0c4;}.cls-3{fill:#7a8189;}.cls-4{fill:#4885ae;}.cls-5{fill:#797978;}.cls-6{fill:#71809a;}.cls-7{fill:#bfc3bb;}</style></defs><title>bgbuilding</title><g id="Layer_2" data-name="Layer 2"><g id="Background_Building" data-name="Background Building"><rect id="_Path_" data-name="&lt;Path&gt;" class="cls-1" x="451.06" y="88.47" width="66.72" height="279.92"/><polygon class="cls-2" points="551.08 372.01 490.22 372.01 508.69 156.84 551.08 104.42 551.08 372.01"/><polygon class="cls-1" points="298.77 372.01 235.68 372.01 235.68 0 298.77 90.62 298.77 372.01"/><polygon class="cls-3" points="330.68 153.74 330.68 166.06 298.77 166.06 298.77 372.01 355.33 372.01 355.33 178.39 355.33 166.06 355.33 153.74 330.68 153.74"/><rect class="cls-4" x="353.16" y="244.38" width="73.97" height="127.63"/><polygon class="cls-5" points="490.22 193.62 490.22 177.67 427.13 177.67 427.13 193.62 427.13 372.01 498.19 372.01 498.19 193.62 490.22 193.62"/><polygon class="cls-6" points="235.68 372.01 189.76 372.01 189.76 107.03 235.68 55.84 235.68 372.01"/><polygon id="_Path_2" data-name="&lt;Path&gt;" class="cls-3" points="190.03 372.05 190.03 281.98 190.03 221.9 128.11 221.9 128.11 372.05 190.03 372.05"/><polygon id="_Path_3" data-name="&lt;Path&gt;" class="cls-7" points="127.77 372.05 127.77 199.16 127.77 164.61 73.97 164.61 73.97 372.05 127.77 372.05"/><polygon class="cls-1" points="613.5 372.01 550.41 372.01 550.41 71.79 613.5 144.92 613.5 372.01"/><rect class="cls-4" y="244.38" width="73.97" height="127.63"/><rect id="_Path_4" data-name="&lt;Path&gt;" class="cls-1" x="1063.06" y="88.47" width="66.72" height="279.92"/><polygon class="cls-2" points="1163.08 372.01 1102.22 372.01 1120.69 156.84 1163.08 104.42 1163.08 372.01"/><polygon class="cls-1" points="910.77 372.01 847.68 372.01 847.68 0 910.77 90.62 910.77 372.01"/><polygon class="cls-3" points="942.68 153.74 942.68 166.06 910.77 166.06 910.77 372.01 967.34 372.01 967.34 178.39 967.34 166.06 967.34 153.74 942.68 153.74"/><rect class="cls-4" x="965.16" y="244.38" width="73.97" height="127.63"/><polygon class="cls-5" points="1102.22 193.62 1102.22 177.67 1039.13 177.67 1039.13 193.62 1039.13 372.01 1110.19 372.01 1110.19 193.62 1102.22 193.62"/><polygon class="cls-6" points="847.68 372.01 801.76 372.01 801.76 107.03 847.68 55.84 847.68 372.01"/><polygon id="_Path_5" data-name="&lt;Path&gt;" class="cls-3" points="802.03 372.05 802.03 281.98 802.03 221.9 740.11 221.9 740.11 372.05 802.03 372.05"/><polygon id="_Path_6" data-name="&lt;Path&gt;" class="cls-7" points="739.77 372.05 739.77 199.16 739.77 164.61 685.97 164.61 685.97 372.05 739.77 372.05"/><polygon class="cls-1" points="1225.5 372.01 1162.41 372.01 1162.41 71.79 1225.5 144.92 1225.5 372.01"/><rect class="cls-4" x="612" y="244.38" width="73.97" height="127.63"/><rect id="_Path_7" data-name="&lt;Path&gt;" class="cls-1" x="1677.06" y="88.47" width="66.72" height="279.92"/><polygon class="cls-2" points="1777.08 372.01 1716.22 372.01 1734.69 156.84 1777.08 104.42 1777.08 372.01"/><polygon class="cls-1" points="1524.77 372.01 1461.68 372.01 1461.68 0 1524.77 90.62 1524.77 372.01"/><polygon class="cls-3" points="1556.68 153.74 1556.68 166.06 1524.77 166.06 1524.77 372.01 1581.34 372.01 1581.34 178.39 1581.34 166.06 1581.34 153.74 1556.68 153.74"/><rect class="cls-4" x="1579.16" y="244.38" width="73.97" height="127.63"/><polygon class="cls-5" points="1716.22 193.62 1716.22 177.67 1653.13 177.67 1653.13 193.62 1653.13 372.01 1724.19 372.01 1724.19 193.62 1716.22 193.62"/><polygon class="cls-6" points="1461.68 372.01 1415.76 372.01 1415.76 107.03 1461.68 55.84 1461.68 372.01"/><polygon id="_Path_8" data-name="&lt;Path&gt;" class="cls-3" points="1416.03 372.05 1416.03 281.98 1416.03 221.9 1354.11 221.9 1354.11 372.05 1416.03 372.05"/><polygon id="_Path_9" data-name="&lt;Path&gt;" class="cls-7" points="1353.77 372.05 1353.77 199.16 1353.77 164.61 1299.97 164.61 1299.97 372.05 1353.77 372.05"/><polygon class="cls-1" points="1839.5 372.01 1776.41 372.01 1776.41 71.79 1839.5 144.92 1839.5 372.01"/><rect class="cls-4" x="1226" y="244.38" width="73.97" height="127.63"/></g></g></svg>