<svg xmlns="http://www.w3.org/2000/svg" viewBox="0 0 504.11 259.64"><defs><style>.cls-1{fill:#f6536e;}</style></defs><title>building1</title><g id="Layer_2" data-name="Layer 2"><g id="Buildings"><path class="cls-1" d="M417.57,197.35c.84-.15,1.36-1.22,1.2-2.42l2.12-.32c.21,1.18,1,2,1.83,1.9s1.3-1.18,1.17-2.35c.57-.09,1.17-.17,1.73-.26.24,1.14,1,2,1.82,1.83s1.26-1.15,1.14-2.29l2.16-.4c.25,1.14,1,2,1.86,1.83s1.3-1.2,1.12-2.38l1.68-.3c.25,1.18,1.1,2,1.92,1.89s1.33-1.24,1.1-2.44l2.07-.43c.25,1.2,1.12,2,2,1.84s1.26-1.3,1-2.48l1.68-.36c.29,1.16,1.14,1.95,1.95,1.76s1.21-1.24,1-2.39l2.13-.5c.32,1.13,1.16,1.91,2,1.72s1.23-1.28,1-2.45l1.66-.41c.33,1.16,1.22,2,2,1.78s1.26-1.32.94-2.52l2-.56c.33,1.18,1.25,2,2.06,1.71s1.18-1.36.88-2.53l1.65-.45c.37,1.13,1.27,1.87,2.07,1.64s1.16-1.34.84-2.49l2.05-.64c.39,1.15,1.32,1.9,2.13,1.66s1.17-1.39.8-2.56l1.59-.52c.39,1.16,1.37,1.88,2.17,1.6s1.12-1.44.74-2.59l2-.69c.43,1.11,1.39,1.81,2.19,1.53s1.09-1.43.68-2.59l1.58-.58c.45,1.16,1.46,1.85,2.26,1.51s1.05-1.51.6-2.64c.71-.29,1.39-.56,2-.81.49,1.12,1.5,1.77,2.3,1.45s1-1.56.51-2.68c.92-.41,1.52-.7,1.52-.7l-2.31-.24a1.53,1.53,0,0,0-1.52-.49c-.12,0-.13.22-.22.31-3-.34-6.24-.76-9.6-1.24v-8c-31.59-4.84-73.14-13.87-86.81-16.92v-9.13c92-22.87,112.09-64.18,112.09-64.18l-1.36-.15c-.29-.51-.7-.87-1.12-.76a.87.87,0,0,0-.57.58l-6.82-.74-.15-7.08-95-15.28L383.06,0,257.8,3.21H246.28L121.05,0,105,51.94,10,67.22,9.86,74.3,3,75a.88.88,0,0,0-.57-.58c-.42-.11-.83.25-1.12.76L0,75.36s20.1,41.32,112.1,64.18v3.73h-.32v4.94c-11.1,2.5-55.56,12.29-88.87,17.38v8c-3.36.48-6.58.91-9.59,1.24-.09-.09-.1-.26-.22-.31a1.54,1.54,0,0,0-1.52.49l-2.31.24,1.52.71c-.52,1.11-.29,2.35.51,2.67s1.81-.33,2.3-1.44l2,.8c-.45,1.13-.19,2.32.61,2.64s1.81-.35,2.25-1.51l1.58.58c-.41,1.16-.11,2.31.69,2.59s1.74-.42,2.18-1.53l2,.69c-.39,1.15-.07,2.31.74,2.59s1.78-.44,2.17-1.6l1.59.52c-.37,1.17,0,2.32.81,2.56s1.74-.51,2.13-1.66l2.05.64c-.32,1.15,0,2.26.84,2.49s1.7-.51,2.07-1.64l1.66.46c-.3,1.17.07,2.29.88,2.52s1.72-.53,2.06-1.7l2,.57c-.32,1.19.1,2.33.94,2.51s1.71-.61,2-1.78l1.66.41c-.25,1.17.16,2.26,1,2.45s1.64-.59,2-1.72l2.12.5c-.2,1.15.21,2.21,1,2.39s1.66-.6,2-1.76l1.68.36c-.22,1.18.22,2.28,1,2.48s1.7-.63,2-1.84l2.07.43c-.23,1.21.26,2.31,1.1,2.45s1.68-.71,1.93-1.89l1.68.3c-.18,1.18.29,2.24,1.12,2.38s1.6-.7,1.85-1.83l2.16.4c-.12,1.14.34,2.16,1.13,2.29s1.59-.69,1.82-1.83c.56.1,1.16.18,1.73.26-.14,1.18.35,2.22,1.16,2.35s1.62-.72,1.84-1.9l2.11.32c-.15,1.21.37,2.29,1.21,2.43s1.67-.75,1.83-2l.54.06v64.2h331Z"/></g></g></svg>