<svg xmlns="http://www.w3.org/2000/svg" viewBox="0 0 418.26 358"><defs><style>.cls-1{fill:#f8688e;}</style></defs><title>building2</title><g id="Layer_2" data-name="Layer 2"><g id="Buildings"><path class="cls-1" d="M398.78,250.78h-46v-41.2l-.61-6.52c.63-1.32,1.41-2.85,2.32-4.56h1.17v-2.16a269.78,269.78,0,0,1,16.8-26.42l45.8-50.1h0l-.86.06c0-.62-.43-1.11-.85-1.08s-.74.56-.7,1.19l-1.06.07c0-.62-.43-1.1-.86-1.07s-.74.56-.69,1.18l-.86.06c0-.63-.43-1.11-.85-1.08s-.75.56-.7,1.18l-1.06.08c0-.63-.43-1.11-.86-1.08s-.74.57-.7,1.19l-.86.06c0-.62-.42-1.1-.86-1.07s-.75.56-.7,1.19l-1.06.07c0-.62-.43-1.1-.86-1.07s-.74.56-.7,1.18l-.86.06c0-.62-.42-1.11-.85-1.08s-.74.56-.7,1.19l-1.06.08c0-.62-.43-1.11-.85-1.08s-.74.56-.7,1.19l-.85.06c0-.62-.43-1.1-.85-1.08s-.75.56-.7,1.19l-1.06.08c0-.63-.43-1.11-.85-1.08s-.75.56-.7,1.18l-.85.06c0-.62-.43-1.1-.86-1.07s-.74.56-.7,1.19l-1.06.07c0-.62-.43-1.1-.86-1.07s-.74.56-.7,1.19l-.85.06c0-.63-.43-1.11-.86-1.08s-.74.56-.7,1.19l-1.06.08c0-.63-.43-1.11-.86-1.08s-.75.56-.7,1.19l-.85.06c0-.62-.43-1.1-.85-1.07s-.75.56-.7,1.18l-1.06.07c0-.62-.42-1.1-.85-1.07s-.74.56-.7,1.19l-.86.06c0-.62-.43-1.11-.86-1.08s-.75.56-.7,1.19l-1.06.08c-.05-.62-.43-1.11-.86-1.08s-.74.56-.7,1.18l-.85.06c0-.62-.43-1.1-.86-1.08s-.74.56-.7,1.19l-1.06.08c0-.63-.43-1.11-.85-1.08s-.75.56-.7,1.19l-.85.06c0-.62-.43-1.1-.85-1.07s-.75.56-.7,1.19l-1.06.07c0-.62-.43-1.1-.86-1.08s-.74.56-.7,1.19l-.85.06c0-.63-.43-1.11-.86-1.08s-.75.56-.7,1.19l-1.06.08c0-.63-.43-1.11-.86-1.08s-.74.56-.7,1.19l-.85.06c0-.62-.43-1.11-.85-1.08s-.75.56-.71,1.19l-1.06.07c0-.62-.44-1.1-.86-1.08s-.75.56-.71,1.19l-.85.06c0-.62-.43-1.11-.86-1.08s-.74.56-.7,1.18l-1.06.08c0-.62-.43-1.11-.86-1.08s-.75.56-.7,1.18l-.85.06c0-.62-.43-1.1-.86-1.08s-.74.56-.7,1.19l-1.06.07c0-.63-.43-1.11-.86-1.08a.69.69,0,0,0-.47.33L394.8,58.45a.68.68,0,0,0,.37-.47l.83-1.06-.86.28h0c-.2-.59-.69-1-1.09-.84s-.58.72-.4,1.32h0l-1,.31c-.18-.6-.67-1-1.08-.88s-.61.7-.43,1.3l0,0-.89.26s0,0,0,0c-.18-.6-.65-1-1.06-.88s-.61.7-.44,1.3l0,0-1,.29s0,0,0,0c-.17-.61-.64-1-1.06-.89s-.61.7-.44,1.3v0l-.89.23v0c-.16-.6-.63-1-1-.89s-.62.7-.46,1.3l-1,.27v0c-.16-.61-.62-1-1-.92s-.64.67-.48,1.28c0,0,0,0,0,0l-.91.22s0,0,0,0c-.16-.61-.62-1-1-.92s-.64.67-.49,1.28c0,0,0,0,0,.06l-1.07.27s0-.05,0-.08c-.15-.61-.61-1-1-.92s-.64.67-.5,1.28c0,0,0,0,0,.07l-.92.21a.66.66,0,0,1,0-.07c-.14-.61-.6-1-1-.93s-.65.67-.51,1.29c0,0,0,0,0,.06l-1.07.24s0,0,0-.05c-.14-.61-.59-1-1-.93s-.65.68-.51,1.29c0,0,0,0,0,0l-.89.2v0c-.14-.61-.58-1-1-.93s-.65.68-.52,1.29l-1,.22s0,0,0,0c-.13-.61-.59-1-1-1s-.66.64-.53,1.26l0,0-.92.19s0,0,0-.06c-.13-.62-.57-1-1-1s-.66.65-.54,1.25c0,0,0,0,0,.08l-1.09.22s0-.06,0-.09c-.12-.61-.57-1-1-1s-.66.65-.54,1.27c0,0,0,.05,0,.09l-.94.19s0-.07,0-.1c-.12-.62-.57-1-1-1s-.66.65-.55,1.26c0,0,0,.06,0,.1l-1.1.21s0-.07,0-.11c-.12-.61-.56-1-1-1s-.67.65-.56,1.27c0,0,0,0,0,.08l-.94.18a.65.65,0,0,0,0-.09c-.12-.62-.56-1.05-1-1s-.67.65-.55,1.26c0,0,0,0,0,.08l-1.09.19s0,0,0-.07c-.12-.62-.55-1-1-1s-.68.65-.56,1.27c0,0,0,0,0,0l-.91.16s0,0,0,0c-.11-.62-.54-1.05-1-1s-.68.66-.57,1.27h0L348,68c-.11-.62-.54-1.07-1-1s-.69.62-.58,1.24c0,0,0,0,0,0l-.91.15s0,0,0-.05c-.11-.62-.54-1.06-1-1s-.68.62-.58,1.24c0,0,0,0,0,.07l-1.09.18s0-.06,0-.09c-.1-.62-.53-1.08-1-1s-.69.62-.59,1.23c0,0,0,.06,0,.1l-1,.15s0-.08,0-.12c-.09-.62-.53-1.07-1-1s-.69.62-.59,1.24c0,.05,0,.07.06.12l-1.12.18c0-.05,0-.08,0-.13-.1-.62-.52-1.07-.95-1s-.69.62-.6,1.24c0,.05,0,.08.06.13l-1,.15c0-.06,0-.09,0-.15-.1-.62-.52-1.07-.94-1s-.69.62-.61,1.24c0,.05,0,.08.06.13l-1.12.16c0-.05,0-.08,0-.13-.09-.62-.51-1.07-.93-1s-.7.62-.61,1.24c0,0,0,.07.05.11l-1,.14s0-.07,0-.12c-.09-.62-.51-1.07-.93-1s-.7.62-.61,1.23c0,0,0,.07,0,.1l-1.11.15s0-.05,0-.09c-.08-.62-.5-1.07-.92-1s-.7.63-.62,1.25c0,0,0,0,0,.06l-.93.13s0,0,0-.06c-.09-.62-.5-1.07-.92-1s-.7.62-.62,1.24c0,0,0,0,0,0l-1.06.14h0c-.08-.62-.5-1.07-.92-1s-.71.59-.63,1.22h0l-.9.11v0c-.08-.62-.49-1.09-.92-1s-.71.59-.63,1.21c0,0,0,0,0,0l-1.08.13s0,0,0-.07c-.08-.62-.49-1.09-.92-1s-.71.59-.64,1.21c0,0,0,.05,0,.09l-1,.12s0-.07,0-.11c-.08-.62-.48-1.09-.91-1s-.71.59-.64,1.21c0,.05,0,.08.05.13l-1.14.13c0-.06,0-.09,0-.14-.07-.62-.48-1.09-.91-1.05s-.72.59-.64,1.22c0,.06,0,.09.06.14l-1,.11c0-.06,0-.1,0-.16-.07-.62-.47-1.09-.9-1s-.72.59-.65,1.21c0,.07,0,.1.07.16l-1.16.13c0-.07,0-.11,0-.17-.07-.63-.47-1.09-.9-1s-.72.59-.65,1.21c0,.07,0,.1.06.17l-1,.11c0-.07,0-.11,0-.18-.06-.62-.47-1.09-.9-1s-.72.59-.66,1.22c0,.06,0,.1.06.15l-1.14.12c0-.06,0-.1,0-.16-.06-.62-.46-1.09-.89-1s-.73.59-.66,1.21c0,.06,0,.09.05.15l-1,.1c0-.05,0-.1,0-.15-.06-.63-.46-1.09-.88-1.05s-.73.59-.66,1.21c0,.05,0,.08,0,.13l-1.13.11s0-.07,0-.13c-.06-.62-.46-1.09-.89-1s-.72.59-.67,1.21c0,0,0,.06,0,.1l-.95.09s0-.06,0-.09c-.06-.62-.45-1.09-.87-1s-.73.59-.68,1.22c0,0,0,0,0,.06l-1.09.1s0,0,0,0c-.06-.62-.45-1.09-.88-1s-.73.59-.67,1.22h0l-.91.08c0-.62-.44-1.1-.87-1.08s-.73.56-.68,1.18a0,0,0,0,0,0,0l-1.08.08s0,0,0,0c0-.63-.44-1.11-.87-1.09s-.74.56-.69,1.18c0,0,0,0,0,.07l-.94.08s0-.05,0-.09c0-.63-.44-1.11-.87-1.08s-.74.56-.69,1.18c0,0,0,.07,0,.11l-1.13.09c0-.05,0-.08,0-.13,0-.63-.44-1.11-.87-1.09s-.74.56-.69,1.18c0,.06,0,.1.05.15l-1,.07c0-.06,0-.1,0-.16,0-.63-.43-1.11-.86-1.09-.25,0-.43.21-.55.49-13-10-39.61-33-65.07-69.35L209.13,0l-4.25,6.07c-25.45,36.37-52.1,59.32-65.06,69.35-.13-.27-.31-.48-.55-.49-.43,0-.82.46-.86,1.09,0,.06,0,.1,0,.16l-1-.07c0-.05,0-.09.05-.15,0-.62-.26-1.15-.7-1.18s-.81.46-.86,1.09c0,0,0,.08,0,.13l-1.12-.09s0-.06,0-.11c0-.62-.27-1.15-.7-1.18s-.81.46-.86,1.08c0,0,0,.05,0,.09l-.94-.08s0,0,0-.07c0-.62-.26-1.15-.69-1.18s-.82.46-.87,1.09c0,0,0,0,0,0l-1.08-.08a0,0,0,0,0,0,0c.05-.62-.25-1.15-.68-1.18s-.82.46-.88,1.08l-.9-.08h0c.05-.63-.25-1.17-.68-1.22s-.82.43-.87,1c0,0,0,0,0,0l-1.1-.1s0,0,0-.06c.06-.62-.24-1.17-.67-1.22s-.82.43-.88,1c0,0,0,0,0,.09l-.94-.09s0-.06,0-.09c.05-.63-.24-1.18-.67-1.22s-.83.43-.89,1c0,.05,0,.08,0,.13l-1.13-.11c0-.05,0-.08,0-.13.06-.62-.24-1.16-.67-1.21s-.82.42-.88,1c0,.05,0,.09,0,.15l-1-.1c0-.06.05-.09.06-.15.06-.62-.23-1.17-.66-1.21s-.83.43-.89,1c0,.06,0,.1,0,.16l-1.16-.12c0-.06.06-.09.07-.15.07-.63-.23-1.17-.65-1.22s-.83.42-.9,1c0,.07,0,.11,0,.17l-1-.1c0-.07.06-.1.07-.17.06-.62-.23-1.17-.66-1.21s-.83.42-.9,1c0,.06,0,.11,0,.17l-1.15-.13c0-.06.06-.09.07-.16.07-.62-.22-1.16-.65-1.21s-.83.43-.9,1c0,.06,0,.1,0,.16l-1-.11c0-.06.06-.09.06-.14.07-.63-.22-1.17-.64-1.22s-.84.43-.91,1.05c0,.06,0,.09,0,.14L104.45,73c0-.05,0-.08.05-.13.07-.62-.21-1.16-.64-1.21s-.83.42-.91,1c0,0,0,.07,0,.11l-1-.12s0-.06,0-.09c.07-.62-.22-1.17-.64-1.21s-.84.43-.91,1c0,0,0,0,0,.07l-1.09-.13a.38.38,0,0,1,0,0c.08-.62-.21-1.17-.63-1.21s-.84.42-.92,1c0,0,0,0,0,0l-.9-.11h0c.08-.62-.2-1.16-.63-1.22s-.84.39-.92,1h0l-1.06-.14s0,0,0,0c.08-.62-.19-1.17-.62-1.24s-.84.39-.92,1c0,0,0,0,0,.06l-.93-.13s0,0,0-.06c.08-.62-.19-1.18-.62-1.24s-.84.39-.93,1c0,0,0,.06,0,.09L89.32,71s0-.06,0-.1c.09-.62-.19-1.17-.61-1.23s-.84.38-.93,1c0,0,0,.08,0,.12l-1-.14s0-.07.05-.11c.09-.62-.18-1.17-.61-1.24s-.84.39-.93,1c0,.05,0,.08,0,.13l-1.12-.17s0-.08.06-.13c.09-.62-.18-1.18-.6-1.24s-.85.39-.94,1c0,.06,0,.09,0,.15l-1-.15s.05-.08.06-.13c.1-.62-.17-1.17-.59-1.24s-.85.39-1,1c0,0,0,.08,0,.13l-1.12-.18s.05-.06.06-.12c.1-.62-.17-1.17-.59-1.24s-.85.38-1,1a.92.92,0,0,0,0,.12l-1-.15s0-.06,0-.1c.1-.62-.16-1.17-.59-1.23s-.85.38-1,1c0,0,0,.06,0,.09l-1.09-.18s0,0,0-.07c.1-.62-.16-1.17-.58-1.24s-.86.39-1,1c0,0,0,0,0,.05l-.92-.15s0,0,0,0c.11-.62-.16-1.18-.58-1.24s-.86.39-1,1l-1-.18h0c.11-.61-.15-1.19-.57-1.27s-.86.36-1,1c0,0,0,0,0,0l-.92-.16,0,0c.11-.62-.14-1.19-.56-1.27s-.86.35-1,1c0,0,0,0,0,.07L64.21,67s0,0,0-.08c.11-.61-.14-1.18-.56-1.26s-.86.35-1,1c0,0,0,.06,0,.09l-.95-.18s0-.05,0-.08c.12-.62-.13-1.18-.55-1.27s-.86.36-1,1c0,0,0,.07,0,.11L59.2,66s0-.06,0-.1c.12-.61-.12-1.18-.55-1.26s-.86.35-1,1c0,0,0,.07,0,.1l-.95-.19s0-.06,0-.09c.13-.62-.12-1.19-.54-1.27s-.86.36-1,1c0,0,0,.06,0,.09L54.22,65s0,0,0-.08c.13-.61-.11-1.18-.53-1.25s-.87.34-1,1c0,0,0,0,0,.06l-.91-.19s0,0,0,0c.13-.62-.11-1.18-.53-1.26s-.87.35-1,1v0l-1-.22c.13-.61-.1-1.19-.52-1.29s-.86.32-1,.93v0l-.89-.2s0,0,0,0c.14-.61-.09-1.19-.51-1.29s-.87.32-1,.93c0,0,0,0,0,.05l-1.07-.24s0,0,0-.06c.14-.61-.09-1.19-.5-1.29s-.87.32-1,.93c0,0,0,0,0,.07l-.92-.22s0,0,0-.07c.14-.61-.08-1.19-.5-1.28s-.87.31-1,.92c0,0,0,0,0,.08l-1.07-.27s0,0,0-.06c.15-.61-.07-1.18-.49-1.28s-.88.31-1,.92c0,0,0,0,0,0l-.9-.22s0,0,0,0c.16-.61-.06-1.18-.48-1.28s-.88.31-1,.92h0l-1-.26c.16-.6-.05-1.19-.46-1.3s-.88.28-1,.89v0L32,59.8v0c.16-.6,0-1.19-.45-1.3s-.89.28-1,.89c0,0,0,0,0,0l-1-.29,0,0c.17-.6,0-1.19-.44-1.3s-.89.28-1.06.88c0,0,0,0,0,0l-.88-.25,0,0c.18-.6,0-1.19-.43-1.3s-.89.28-1.07.88l-1-.31h0c.19-.6,0-1.19-.39-1.32s-.9.25-1.09.84h0l-.86-.28L23.1,58a.69.69,0,0,0,.37.47l51.77,65.77a.69.69,0,0,0-.51-.36c-.43,0-.82.45-.86,1.08l-1.06-.07c0-.62-.27-1.16-.7-1.19s-.81.46-.86,1.08l-.86-.06c0-.62-.27-1.15-.7-1.18s-.81.46-.85,1.08l-1.06-.08c0-.62-.27-1.15-.7-1.18s-.81.46-.86,1.08l-.85-.06c0-.63-.27-1.16-.7-1.19s-.82.45-.86,1.08l-1.06-.07c0-.63-.27-1.15-.7-1.19s-.82.45-.86,1.08l-.86-.06c0-.62-.27-1.16-.7-1.19s-.82.46-.86,1.08l-1.06-.08c0-.62-.27-1.15-.7-1.18s-.81.45-.86,1.08l-.86-.06c0-.63-.26-1.16-.7-1.19s-.81.46-.85,1.08l-1.06-.07c0-.62-.27-1.15-.7-1.19s-.82.45-.86,1.07l-.85-.06c0-.62-.27-1.16-.7-1.19s-.82.45-.86,1.08l-1.06-.08c0-.62-.27-1.16-.7-1.19s-.82.46-.86,1.08l-.85-.06c0-.62-.27-1.16-.7-1.18s-.82.46-.86,1.08l-1.06-.08c0-.62-.27-1.15-.7-1.19s-.81.46-.85,1.08l-.86-.06c0-.63-.26-1.15-.7-1.19s-.81.45-.85,1.07l-1.06-.07c0-.63-.27-1.16-.7-1.18s-.82.45-.86,1.07l-.85-.06c0-.62-.27-1.16-.7-1.19s-.81.46-.86,1.08l-1.06-.08c0-.62-.27-1.15-.7-1.18s-.82.45-.86,1.08l-.85-.06c0-.63-.27-1.16-.7-1.19s-.82.45-.86,1.07l-1.06-.07c0-.62-.27-1.16-.7-1.19S26,121,26,121.62l-.86-.06c0-.62-.27-1.16-.7-1.18s-.81.45-.85,1.08l-1.06-.08c0-.62-.27-1.16-.7-1.19s-.82.46-.86,1.08l-.85-.06c0-.62-.27-1.16-.7-1.19s-.81.46-.86,1.08L17.5,121c0-.62-.27-1.16-.7-1.19s-.82.46-.86,1.08l-.85-.06c0-.63-.27-1.15-.7-1.18s-.82.45-.86,1.07l-1.06-.07c0-.63-.26-1.15-.7-1.19s-.81.45-.85,1.07l-.86-.06c0-.62-.27-1.16-.7-1.19s-.81.46-.85,1.08l-1.06-.08c0-.62-.27-1.16-.7-1.18s-.81.45-.86,1.08L5,120.17c0-.63-.27-1.15-.7-1.18s-.81.45-.86,1.07L2.41,120c0-.63-.27-1.15-.7-1.19s-.82.45-.86,1.07L0,119.82l45.74,50A273,273,0,0,1,62.6,196.37v2.13h1.15c.92,1.72,1.7,3.26,2.34,4.6l-.6,6.48v41.2H12.26v68.32H65.48V358H88.78V313.94h53.84V358h23.28V313.94h86.45V358h23.29V313.94h53.84V358h23.29V319.11H406V250.78h-7.23ZM34.91,283.92H19.48v-4.84H34.91Zm0-9.08H19.48V257.58H34.91Zm22.63,9.08H42.13v-4.84H57.54Zm0-9.08H42.13V257.58H57.54Zm7.94,9.08h-.71v-4.84h.71Zm0-9.08h-.71V257.58h.71ZM75.43,125a1.42,1.42,0,0,0-.17-.8l.66.84ZM93.1,278.74H88.78V273.9H93.1Zm0-9.08H88.78V252.4H93.1Zm22.64,9.08H100.33V273.9h15.41Zm0-9.08H100.33V252.4h15.41Zm21,9.08H123V273.9h13.81Zm0-9.09H123V252.4h13.81Zm5.85-60.07v36H88.78v-36l-.06-.73h54Zm39.44,69.16H168.27V273.9h13.79Zm0-9.09H168.27V252.4h13.79Zm22.66,9.09H190.91V273.9h13.81Zm0-9.09H190.91V252.4h13.81Zm22.64,9.09h-13.8V273.9h13.8Zm0-9.09h-13.8V252.4h13.8ZM250,278.74h-13.8V273.9H250Zm0-9.09h-13.8V252.4H250Zm2.36-60.07v36H165.91v-36l-.07-.73h86.59Zm42.94,69.16H281.5V273.9h13.8Zm0-9.09H281.5V252.39h13.8Zm22.64,9.09H302.53V273.9h15.41Zm0-9.09H302.53V252.39h15.41Zm11.55,9.09h-4.31V273.9h4.31Zm0-9.09h-4.31V252.39h4.31Zm0-60.07v36H275.65v-36l-.07-.73h54ZM342.81,125l-.46,0,.63-.8A1.42,1.42,0,0,0,342.81,125Zm10.68,158.87h-.71v-4.84h.71Zm0-9.08h-.71V257.58h.71Zm22.65,9.08H360.73v-4.84h15.41Zm0-9.08H360.73V257.58h15.41Zm22.64,9.08H383.36v-4.84h15.42Zm0-9.08H383.36V257.58h15.42Z"/></g></g></svg>