<svg xmlns="http://www.w3.org/2000/svg" viewBox="0 0 153.17 96.8"><defs><style>.cls-1{fill:#fff;}</style></defs><title>cloud1</title><g id="Layer_2" data-name="Layer 2"><g id="Text"><path class="cls-1" d="M1.58,59.09c2.16-4.59,7-9.48,13.67-8.13a1.39,1.39,0,0,0,1.06-.24,1.16,1.16,0,0,0,.48-.8c1.07-9.1,5.88-12,7.9-12.83a11.79,11.79,0,0,1,11.57,1.38c2.61,5.35,6.09,8.76,10.93,10.73A36.49,36.49,0,0,0,52.88,51a28,28,0,0,0,10.94.42c9.51-1.64,15.84-9.4,15.41-18.87C78.86,24.52,73,17,65.84,15.37a14.09,14.09,0,0,0-5.17-.19,12.41,12.41,0,0,0-4.06,1.36,13.89,13.89,0,0,0-5.28,5.1,15,15,0,0,0-1.79,4.47,14.52,14.52,0,0,0-.28,4.7,13.16,13.16,0,0,0,.68,3,12.37,12.37,0,0,0,8.72,8.05,10.75,10.75,0,0,0,2.17.26,7.49,7.49,0,0,0,6.23-3,6.45,6.45,0,0,0,.81-6.07,1.26,1.26,0,0,0-.92-.83,1.38,1.38,0,0,0-1.32.42,1.2,1.2,0,0,0-.22,1.23,3.73,3.73,0,0,1-.58,3.95,6,6,0,0,1-6.16,1.33,9.56,9.56,0,0,1-6.13-5.7A12.82,12.82,0,0,1,54.88,21,10.62,10.62,0,0,1,65.2,18a12.73,12.73,0,0,1,3.43,1.32,15.54,15.54,0,0,1,8,12.68c.22,4.69-1.28,10.87-6.14,14.15a19.49,19.49,0,0,1-11.9,3,32.72,32.72,0,0,1-5.69-.75,24.28,24.28,0,0,1-7.6-3c-4.58-2.88-6.72-7.45-8.2-11.55A24.3,24.3,0,0,1,39.45,13,28.22,28.22,0,0,1,59,.35,30.9,30.9,0,0,1,70.53.77C82.11,3.38,90.68,12,92.38,22.65A1.35,1.35,0,0,0,94,23.77a15.89,15.89,0,0,1,7.77-.06c4.52,1,7.76,3.49,8.66,6.61a1.36,1.36,0,0,0,1.65.85,16.3,16.3,0,0,1,9.21-.68,14.21,14.21,0,0,1,7.08,3.95c3.26,3.35,5.72,8.83,2.88,14.2-2.35,2.1-4.44,5.6-3.33,9.21.8,2.59,3.71,5.83,6.77,6.52a5.1,5.1,0,0,0,2.77-.11,5.91,5.91,0,0,0,3.79-6,4.06,4.06,0,0,0-3-4.07,5.17,5.17,0,0,0-2.94.3,1.28,1.28,0,0,0-.85,1.31,1.3,1.3,0,0,0,1,1.19,1.22,1.22,0,0,0,.69-.05,2.71,2.71,0,0,1,1.5-.19c.89.2,1.15,1.21,1.08,2.08-.1,1.37-.95,2.89-2.33,3a3.87,3.87,0,0,1-1.14-.09c-2.52-.57-5-3.2-5-5.42a8.13,8.13,0,0,1,5.54-7.5,11.79,11.79,0,0,1,6.19-.13,14.53,14.53,0,0,1,8.84,5.71c3.82,5.9,2.69,15.08-2.41,19.63-3.35,3-8.86,4.5-14,4a18.34,18.34,0,0,1-2.18-.35c-3-.67-8.18-2.7-9.48-8.73a28.52,28.52,0,0,0-.74-3.59,26.21,26.21,0,0,0-16.63-17.88c-.79-.26-1.6-.49-2.4-.67C95.74,45.17,88.5,47,83.7,51.7c-3.94,3.87-6,8.52-5.72,13.1A19.75,19.75,0,0,0,85,79a21.18,21.18,0,0,0,8.11,3.8c6.8,1.53,11.8-1,13.39-6.66a1.2,1.2,0,0,0-.11-1,1.34,1.34,0,0,0-2.4.34c-1.63,5.87-6.78,5.64-9.7,5-4.34-1-8.92-4-10.89-7.17-2.47-4-4.15-10-1.47-14.95a18,18,0,0,1,7.3-7.54,19.32,19.32,0,0,1,13.23-1.56,21.4,21.4,0,0,1,5.69,2.17,24.31,24.31,0,0,1,12.17,17.91,24.74,24.74,0,0,1-8.66,21.23,28,28,0,0,1-24,5.49l-.43-.1c-9.52-2.3-18.74-9.38-22.42-17.21a18.26,18.26,0,0,1,.08-16.28,1.26,1.26,0,0,0,0-1.12,1.41,1.41,0,0,0-.94-.74,1.2,1.2,0,0,0-1.38.67c-4,8.25-13.71,12.69-23.13,10.57a20.49,20.49,0,0,1-4.19-1.43,11.89,11.89,0,0,0-4.56-10.51,9.84,9.84,0,0,0-4-1.8,14.29,14.29,0,0,0-8.47.75c-4.44,1.9-6.66,5.45-6.08,9.73a7.65,7.65,0,0,0,4.34,6,5.8,5.8,0,0,0,3.31.37A1.35,1.35,0,0,0,21,73.7a1.2,1.2,0,0,0-1.39-1.24,3.66,3.66,0,0,1-1.45,0c-2.47-.56-3.85-3.63-3.43-6,.67-3.75,4.26-5.49,7.14-5.84a12.89,12.89,0,0,1,4.37.15,7.62,7.62,0,0,1,4.23,2.46,9.54,9.54,0,0,1,2.16,7.88A14,14,0,0,1,20.22,82.69a21.05,21.05,0,0,1-7-.36,17.08,17.08,0,0,1-9.08-5.12A16.74,16.74,0,0,1,1.58,59.09Z"/></g></g></svg>