<svg xmlns="http://www.w3.org/2000/svg" viewBox="0 0 209.62 129.83"><defs><style>.cls-1{fill:#fff;}</style></defs><title>cloud4</title><g id="Layer_2" data-name="Layer 2"><g id="Background"><path class="cls-1" d="M192.24,85.06a1,1,0,0,1-1-1c.78-7.4-.57-16-7.12-20.56a17.07,17.07,0,0,0-17-1.7l-.08,0c-4.5,5.66-10,9.81-17.77,11.1-7.53,1.24-15.7.91-22.82-2-11.79-4.89-18.16-16.78-14.7-29.41,3.31-12.09,16.66-22.31,29.48-17.36,10.52,4.07,14.45,18,8.5,27.47-3.43,5.46-10,9-16.52,7.6-6.2-1.3-9.75-7.77-6.28-13.3.7-1.11,2.47-.09,1.76,1-3.77,6,2.46,11,8.27,10.42a14,14,0,0,0,10.65-6.23c3.35-5.34,3.84-12.88.66-18.44-3.83-6.68-11.83-9-19.05-6.86A22.44,22.44,0,0,0,114,41.1c-2,7.3-1.21,16.09,4.19,21.83a28,28,0,0,0,15.67,7.92c6.38,1.14,13.43,1.08,19.6-1.1,6.91-2.44,11.25-7.52,15.07-13.49,5.25-8.94,6.86-19.59,3.24-29.65A40.27,40.27,0,0,0,148.53,3c-19.89-7.79-44.86-.16-53.1,20.52a1,1,0,0,1-1.5.61c-7.08-4-21-3.8-25.37,4.17a1,1,0,0,1-1.4.37c-7.27-4.69-16.54-5.38-24-.54-6.51,4.24-10.73,11.52-8.56,19.35v0c2.73,3.75,4,8.83,1.75,12.81s-9.24,8.3-13.84,5.51c-6.4-3.87-2.72-16.3,5-11.25,1.1.71.08,2.48-1,1.76-5.89-3.83-7.21,6.48-2.5,8,4,1.24,10-2.16,11-6.15,1.21-4.8-1.42-10.21-5.58-12.74-6.73-4-17.64-2.21-23.06,3.09-7.15,7-8.73,20.14-2.82,28.4,8,11.16,30.9,15.51,37.74.79a39.22,39.22,0,0,1,2.08-4.6C49,62.87,59.18,55.49,70.89,54.3c10.52-1.07,21.61,2.86,27.52,12,3.59,5.56,5.52,12.36,3.66,18.9-2,6.91-6.8,13.55-13.41,16.69-9.73,4.61-26.51,4.09-27.21-9.8-.07-1.32,2-1.31,2,0,.77,15.34,22.61,11.31,30,3.83,5.16-5.26,8.86-13.13,6.77-20.6a25.82,25.82,0,0,0-7.85-12.85c-7.26-6.18-17.54-7.78-26.59-5.12A34.57,34.57,0,0,0,43.26,78.41a35,35,0,0,0,5.37,32.23,39.54,39.54,0,0,0,32.1,15.09c20.53-.31,47-15.67,41.32-39.6-.3-1.28,1.66-1.82,2-.54,3.66,15.73,20.51,24.87,35.76,21.22a15.84,15.84,0,0,1,9-12.81c5-2.38,12.05-.85,16.4,2.3,4.74,3.43,7.12,8.46,5,14.17-1.69,4.55-6.55,7.9-11.32,5.92-1.2-.5-.67-2.47.54-2,4.75,2,9.33-2.69,9.55-7.39.24-5.24-3.71-9.2-8.43-10.88-4.37-1.55-9.3-1.89-13.21,1a14.05,14.05,0,0,0-5.65,10.61,20.4,20.4,0,0,0,13.79,20.35c7.85,2.77,17.32,2.33,24.26-2.61a24,24,0,0,0,9.28-24.62C207.2,92.53,201.33,85.25,192.24,85.06Z"/></g></g></svg>