<svg xmlns="http://www.w3.org/2000/svg" viewBox="0 0 146.45 80.21"><defs><style>.cls-1{fill:#fff;}</style></defs><title>cloud3</title><g id="Layer_2" data-name="Layer 2"><g id="Text"><path class="cls-1" d="M105,62.25c-1.14-6.4,6-10.21,10.5-5.33.86.93-.53,2.32-1.39,1.39-4-4.34-10.24,1.41-6.2,5.42,2.9,2.88,7.73,2.21,11.16.74a1,1,0,0,1,.42-.09,15.91,15.91,0,0,0,6.2-4.5c2-2.56,3.65-6.81,1.91-9.92-3.5-6.26-11.73-9.09-18-5.51a21.92,21.92,0,0,1-9,7.06C96.46,53.28,89.81,53.63,86.46,50c-5.29-5.78-1.36-14.89,6.67-13.79,1.25.17.72,2.06-.52,1.9-7.74-1.06-9,10.27-2,12.18,7.52,2,13.58-2.13,17.89-7.69,4.87-7,6.41-17.8-2-23-6.79-4.16-15.91-2.72-20.41,4.05a.8.8,0,0,1-1.06.52.94.94,0,0,1-.79-1.25C86.21,9.83,74.85.27,62.39,0,55.92-.13,49,1.73,44.4,6.57a18.21,18.21,0,0,0-4.93,9.55c-.21,6.35,2,13.69,9,15.33,3.3.77,7.19.05,9-3.15S58.18,21.9,55,20c-1.08-.66-.09-2.37,1-1.7,3.07,1.89,5.39,5.34,4,9.07a9.49,9.49,0,0,1-7.86,6.37,11.74,11.74,0,0,1-9.73-3.36h-.1C27.84,29,13.36,32.78,5.06,45.69-1.66,56.15-3.5,73.53,11,78.27a1,1,0,0,1,.32.17,34.64,34.64,0,0,0,6.74,1.42c6.75.77,14,.37,20.37-2.12,7.2-2.8,10.76-8.38,11.21-16.13.32-5.55-1.39-10-6.72-12.55-4.25-2-9.14-1.92-12.75,1.33-.94.85-2.33-.54-1.39-1.39,6.87-6.19,20.39-2.84,22.42,6.7,1.51,7.06-.38,16.14-6.29,20.77H146.45c-9.9-3.33-20.2-5.44-30-9a1.07,1.07,0,0,1-.3-.16C111.51,68.1,105.94,67.36,105,62.25Z"/></g></g></svg>