<svg xmlns="http://www.w3.org/2000/svg" viewBox="0 0 204.21 113.94"><defs><style>.cls-1{fill:#fff;}</style></defs><title>cloud2</title><g id="Layer_2" data-name="Layer 2"><g id="Text"><path class="cls-1" d="M188.34,111.48a2.35,2.35,0,0,1,.62-.3c6.86-2.24,11.49-6.58,13.74-12.91,3.78-10.61-.12-24.05-5.66-32.67C185.3,47.33,166,43.5,152,43.5c-2.52,0-5.13.12-7.74.37a18,18,0,0,1-14.58,4.86,14.73,14.73,0,0,1-12.21-9.87c-2.29-6.32,1.94-11.66,6.26-14.32A2.41,2.41,0,0,1,127.24,26a2.36,2.36,0,0,1-1.06,2.71c-4.28,2.63-5.47,6.63-3.18,10.69,1.6,2.83,4.74,4.45,8.62,4.45a14.48,14.48,0,0,0,3.29-.38c9.46-2.21,12.52-12.37,12.23-21.15a25.35,25.35,0,0,0-6.85-13.14C134.76,3.35,125.9,0,116,0H115c-9.71.21-19,4.44-24.8,11.33a25.4,25.4,0,0,0-5.87,20.56,2.2,2.2,0,0,1-.15,1.78,2.59,2.59,0,0,1-1.8,1.28,2.18,2.18,0,0,1-.62.08,2.08,2.08,0,0,1-2-1.37A19.71,19.71,0,0,0,63.12,25a21.83,21.83,0,0,0-11.4,3.22A16.27,16.27,0,0,0,44,39.1c-1.34,6.4.64,14.38,5.16,20.84,4,5.2,10.71,11.45,19.47,11.45a20.3,20.3,0,0,0,5.3-.73c4.69-1.28,6.31-5.71,5.83-9.28-.43-3.24-3-7.09-8.27-6.34a2.59,2.59,0,0,1-2.93-2.44,2.12,2.12,0,0,1,1.9-2.31c5.87-.79,11,2,13.2,7A13.4,13.4,0,0,1,81,71.92c-2.61,2.85-6.81,4.42-11.83,4.42a26,26,0,0,1-9.78-1.93A32.41,32.41,0,0,1,46.14,64a16.45,16.45,0,0,0-8-2,19.19,19.19,0,0,0-16.5,9.72c-2.2,3.93-.16,9.61,2.67,13.23a21.64,21.64,0,0,0,8.41,6.12,2.63,2.63,0,0,1,.77.2A20.47,20.47,0,0,0,41.33,93a9.72,9.72,0,0,0,7.13-2.6,4.47,4.47,0,0,0,1.26-5.11,5.32,5.32,0,0,0-4.79-3.24,5.44,5.44,0,0,0-4,1.91A2.44,2.44,0,0,1,37,83.21a2.35,2.35,0,0,1,.46-2.61A10.36,10.36,0,0,1,45,77.07a9.42,9.42,0,0,1,7.23,3.4,10.44,10.44,0,0,1,2.12,8.7c-1,5.5-5.46,8.53-12.61,8.53h0a27.25,27.25,0,0,1-4.23-.34l-.31.13c-7.76,2.81-15.84,5-23.65,7.18C9.11,105.9,4.53,107.16,0,108.53H137.59c-7.72-7.71-9.34-20.22-7.42-29.23,2.11-9.86,12-15,20.76-15a19.75,19.75,0,0,1,13.32,4.8,2.22,2.22,0,0,1,.64,2.5,2.57,2.57,0,0,1-4,1A14,14,0,0,0,151.37,69a18.43,18.43,0,0,0-7.8,1.84c-6.73,3.19-9.63,8.64-9.14,17.17.64,11.12,5.87,18.67,15.56,22.44a55.89,55.89,0,0,0,20.33,3.5,76.27,76.27,0,0,0,8.64-.5A49.17,49.17,0,0,0,188.34,111.48Z"/></g></g></svg>