<svg xmlns="http://www.w3.org/2000/svg" viewBox="0 0 246 151"><defs><style>.cls-1{fill:#fff;}.cls-2{fill:#c60c30;}.cls-3{fill:#003478;}</style></defs><title>skflag</title><g id="Layer_2" data-name="Layer 2"><g id="Flag"><rect id="_19" data-name="19" class="cls-1" width="246" height="151"/><rect id="_18" data-name="18" x="39.96" y="19.64" width="41" height="27.33" transform="translate(-0.79 65.13) rotate(-56.31)"/><rect id="_17" data-name="17" class="cls-1" x="32.28" y="28.75" width="47.83" height="3.42" transform="translate(-0.32 60.32) rotate(-56.31)"/><rect id="_16" data-name="16" class="cls-1" x="40.8" y="34.44" width="47.83" height="3.42" transform="translate(-1.26 69.95) rotate(-56.31)"/><rect id="_15" data-name="15" x="165.04" y="103.03" width="41" height="27.33" transform="translate(-14.47 206.34) rotate(-56.31)"/><rect id="_14" data-name="14" class="cls-1" x="157.36" y="112.14" width="47.83" height="3.42" transform="translate(-14.01 201.53) rotate(-56.31)"/><rect id="_13" data-name="13" class="cls-1" x="165.89" y="117.83" width="47.83" height="3.42" transform="translate(-14.94 211.16) rotate(-56.31)"/><rect id="_12" data-name="12" class="cls-1" x="183.83" y="99.61" width="3.42" height="34.17" transform="translate(-14.47 206.35) rotate(-56.31)"/><circle id="_11" data-name="11" class="cls-2" cx="123" cy="75" r="41" transform="translate(-7.63 135.74) rotate(-56.31)"/><path id="_10" data-name="10" class="cls-3" d="M88.89,52.26A20.5,20.5,0,1,0,123,75a20.5,20.5,0,1,1,34.11,22.74A41,41,0,1,1,88.89,52.26"/><rect id="_9" data-name="9" x="46.79" y="96.2" width="27.33" height="41" transform="translate(-54.58 53.13) rotate(-33.69)"/><rect id="_8" data-name="8" class="cls-1" x="54.48" y="95.62" width="3.42" height="47.83" transform="translate(-56.87 51.25) rotate(-33.69)"/><rect id="_7" data-name="7" class="cls-1" x="63.01" y="89.94" width="3.42" height="47.83" transform="matrix(0.83, -0.55, 0.55, 0.83, -52.28, 55.02)"/><rect id="_6" data-name="6" x="171.88" y="12.81" width="27.33" height="41" transform="translate(12.69 108.51) rotate(-33.69)"/><rect id="_5" data-name="5" class="cls-1" x="179.57" y="12.23" width="3.42" height="47.83" transform="translate(10.39 106.63) rotate(-33.69)"/><rect id="_4" data-name="4" class="cls-1" x="188.1" y="6.55" width="3.42" height="47.83" transform="translate(14.98 110.4) rotate(-33.69)"/><rect id="_3" data-name="3" class="cls-1" x="168.46" y="31.6" width="34.17" height="3.42" transform="translate(12.68 108.51) rotate(-33.69)"/><rect id="_2" data-name="2" x="182.13" y="29.89" width="6.83" height="6.83" transform="translate(12.69 108.52) rotate(-33.69)"/><rect id="_1" data-name="1" class="cls-1" x="53.62" y="114.99" width="13.67" height="3.42" transform="translate(-54.57 53.13) rotate(-33.69)"/></g></g></svg>