<svg xmlns="http://www.w3.org/2000/svg" viewBox="0 0 137.23 626.71"><defs><style>.cls-1{fill:#f8688e;}</style></defs><title>tower</title><g id="Layer_2" data-name="Layer 2"><g id="Buildings"><polygon class="cls-1" points="128.53 621.45 137.23 621.45 137.23 618.04 132.91 618.04 132.91 606.33 132.91 603.55 132.91 578.9 137.23 578.9 137.23 575.53 106.31 575.53 103.19 485.58 114.74 485.58 114.74 482.19 103.07 482.19 102.75 472.87 114.74 472.87 114.74 469.5 102.63 469.5 96.76 300.04 113.04 300.04 113.04 258.16 105.86 258.16 105.86 232.43 109.68 232.43 109.68 226.92 93.39 226.92 93.39 213.59 96.54 213.59 96.54 209.79 83.53 209.79 82.87 188.2 86.71 188.2 86.71 184.39 82.78 184.39 81.86 153.94 86.08 153.94 86.08 150.12 81.74 150.12 80.97 123.27 84.17 123.27 84.17 119.46 80.84 119.46 80.11 95.32 84.7 95.32 84.7 87.7 73.63 87.7 72.7 68.86 71.95 53.64 71.3 40.31 71.22 38.33 70.39 21.9 69.8 21.9 69.8 0 68.61 0 67.44 0 67.44 21.9 66.84 21.9 66.02 38.33 65.94 40.31 65.26 53.64 64.52 68.86 63.6 87.7 52.55 87.7 52.55 95.32 57.12 95.32 56.41 119.46 53.07 119.46 53.07 123.27 56.28 123.27 55.49 150.12 51.16 150.12 51.16 153.94 55.39 153.94 54.47 184.39 50.54 184.39 50.54 188.2 54.36 188.2 53.7 209.79 40.69 209.79 40.69 213.59 43.85 213.59 43.85 226.92 27.57 226.92 27.57 232.43 31.38 232.43 31.38 258.16 24.2 258.16 24.2 300.04 40.48 300.04 34.6 469.5 22.49 469.5 22.49 472.87 34.48 472.87 34.16 482.19 22.49 482.19 22.49 485.58 34.04 485.58 30.92 575.53 0 575.53 0 578.9 4.32 578.9 4.32 603.55 4.32 606.33 4.32 618.04 0 618.04 0 621.45 8.7 621.45 8.7 626.71 128.53 626.71 128.53 621.45"/></g></g></svg>