<svg xmlns="http://www.w3.org/2000/svg" viewBox="0 0 226.15 403.83"><defs><style>.cls-1{fill:#fcd014;}</style></defs><title>southkorea</title><g id="Layer_2" data-name="Layer 2"><g id="Background"><path class="cls-1" d="M94.41,57c-4.37,3.1-4.54,1.85-6.61,3.65-1.82,1.58-2.78,3.78-3.7,6a93.88,93.88,0,0,1-6.81,13.47A108.18,108.18,0,0,1,67,93.2a17.21,17.21,0,0,1-6.71,5.19c-2.67,1-5.56,1.33-8.26,2.27a13.07,13.07,0,0,0-5.4,3.43c-1.43,1.54-2.58,3.33-4.28,4.61-2.08,1.55-4.56,1.89-7,2.52a21.93,21.93,0,0,0-8,4.23c-2.33,1.78-4.84,3.26-7.19,5s-3.88,4.41-5.82,6.73-4,2.84-6.94,2.55c-2.65-.26-4.13.24-5.06,2.9a82.36,82.36,0,0,0-2.16,8.46,5,5,0,0,0,1.68,5.49c2,1.79,4.38,3,5.83,5.4.93,1.55,1.6,5.56,3.6,6.08,2.25.59,4.65-3.14,6.63-3.84,3.56-1.25,6,3.28,7.78,5.6s3.46,4.31,6.66,3.52c2.92-.72,4.69.56,6.17,3.12,1.3,2.25,2.63,5.73,1,8.15-1.14,1.7-3,2.56-3.94,4.48-1.13,2.35-1.59,5-2.63,7.39s-3.36,5.55-3.15,8.27,4.08,2.63,6,3c2.78.58,6.74,1.37,8.8,3.54,1.68,1.77-1.68,2-2.86,2.13a25.55,25.55,0,0,1-9.51-.16c-2.23-.57-5.12-2.75-7.47-2.34s-2.61,3.91-2.76,5.81a56.76,56.76,0,0,0,0,8.6c.14,2,1.17,4.93.6,6.91-.52,1.81-3.25,1.24-4.69,1.29-2.15.08-5.16.33-6.65,2.14s.52,2.68,2.13,2.94c3.85.62,7.9,0,11.77,0,3.14,0,8.23.38,9,1.55S33.57,233,31,232.66s-3,.74-3.91,1.07-3.4.62-4,1.47,1,2.85,3.29,2.9c2,0,3.84.68,5.82.85a16.57,16.57,0,0,1,4.49.81c1.51.53,3,.54,4.13,1.77.77.84,2.15,3.41,3.57,2.45.59-.4.77-1.53,1.19-2.09.67-.9,1.56-1.07,2.4-1.7,1.58-1.19,0-3.57,1.28-4.68,1.57-1.37,2.91,3,3.51,3.84,1.72,2.49,5.24,3.58,7.3,5.8.74.8,2.32,2.94,3.63,1.84s-.41-3.6,1.25-4.84c1.32-1,3.36-.3,4.84-.18a52.38,52.38,0,0,0,5.67.06,14.76,14.76,0,0,1,5.59.41c.93.34,4.45,1.6,3.81,3-.77,1.69-3.69.25-4.82,1.18-2,1.65,1.55,4.92,2.56,6,1.36,1.42,1.64,3.46,2,5.36.45,2.28-2.23,4.09-1.86,5.49s5.54,1.22,5.94,3.91c.29,2-1.39,3.14-2.3,4.64-.72,1.18-1.28,3,.74,2.33,1.63-.58,3.53-2.3,3.44.61-.06,1.81-.85,3.16,1,4.06,2.12,1,1.79,2,1.69,4.15-.08,1.89,1.22,2,1.77,3.57.63,1.74-1.69,3.63-3.32,3.23-2.15-.53-2.59-3.67-3.21-5.4-.72-2-2.12-2.47-3.89-3.46-1.07-.6-2.43-2.24-3.64-2.44-1.91-.32-1.66,2.36-1.71,3.58-.09,2.16-.68,1.57-1.94.3s-2.75-2.5-4-.51c-.59,1-.25,3.87-1.16,4.43-1.2.75-2.42-1.76-3.7-1s-.61,3.51-1.39,4.69c-.89,1.37-2.63,1.19-2.76,3.3-.15,2.43,2,3.13,3.41,4.54,1.08,1.07,1,3.07,2.9,2.83s3.31-2.3,5.14-2.92c1.13-.38,4.48-1.12,5.52-.37,1.33,1-.41,3.58-1,4.55a4.44,4.44,0,0,0-.66,4.44c.47,1.42,1.57,2.39,2.11,3.73.67,1.66,1.07,5.24.34,6.89s-2.65.92-3.41,2.25c-.88,1.53,1.17,3.25,2.12,4.17A10.55,10.55,0,0,1,83.35,327c.79,1.89-.28,3.21-.12,5s2.1,2.23,3.58,2.8c1.93.74,2.18,2.3,2.17,4.25,0,2.25-.75,3-2.91,3.44a51.43,51.43,0,0,1-5.93.29c-1.83.13-4.39,1.61-3.06,3.8,1.07,1.77,3.34.39,4.87,1.16,3,1.51-3.79,3.91-4.7,4.24s-2.55.66-3.15,1.66a7.85,7.85,0,0,0-.43,2.52c-.37,2.07-.56,3.94-.74,6s.06,5.55-1.09,6-1.58-1.41-2-1.34c-.62.11-.57,1.58-.46,2s.52.76.75,1.22.17.89.36,1.22c.53.92,1.55,1.43,2,2.43.79,1.64.15,3.57.78,5.29.13.36.19,1,.49,1.32s.51.07.93.24a5.4,5.4,0,0,0,2.57.51,22.78,22.78,0,0,0,3.34-.34c.78-.12,1.66-.16,2,.77a3.12,3.12,0,0,1-1.22,3.74c-.7.44-1.27.93-2,1.29-.89.46-1.41.46-1.28,1.65.18,1.75,1.64,3.91,1,4.59s-6.65,0-6.46-3.42c.07-1.25,1.62-4.58-1.28-3.93-2,.45-1.11,4.45-.52,5.74,1.35,2.92,5.73,2.86,6.71,6,.53,1.71-.82,4.83.87,6.06,1.15.84,4.75.7,5.92,0,3-1.93,5.12-10.22,9-6.46s5-.62,6.15-2.25c.79-1.11,1-2.55,2-3.56a28.26,28.26,0,0,0,2.26-2.06c.79-1,3.15-4.14,4.54-2.34s-.8,4-1.81,5.31-2.53,2.74-1.22,4.25a13,13,0,0,0,5.56,3.28c2.26.66,1.79-2.79,1.58-4.25-.08-.54-.84-2.68-.27-3.06.77-.51,2.33,1.86,3.31,1.67s1.22-2.37.84-3.19-1.75-1.22-2.49-1.92c-1.79-1.69-3.76-4.37-2.75-6.47s4.94-.49,6,.87c.64.85.88,3.18.89,4.18s-.14,2.08.84,2.8,4.29.88,4.59-1c.09-.58-.32-.86.08-1.46,1.06-1.57,3.26-.27,4.18-1.16s-.63-4.95-2.85-6.05c-1.79-.89-3.64.44-4.66-1.85-2.24-5,8.4-2.48,10.54-2.75,2.43-.3,3.82-2.09,6-2.89,3-1.13,2.68,3.49,2.8,5.18.16,2.19,2.51,1.67,4,1,1.86-.85,3.86-1.33,5.8-.35,1.38.7,3.85,3.6,4.62,1,.66-2.23-2.94-5.88-2.61-8.07s3.78.58,4.62,1.4c.55.53.52.88,1.47.71s1-.5,1.17-1.41a7.8,7.8,0,0,0-.3-3.62c-.51-1.7,0-1.92,1.81-2.82s7.77,1.37,9.89,2.41c1.89.92,4,2.13,6.12,2.14,4.58,0,6.79-5.52,7.68-9.23a38,38,0,0,1,1.06-4.72,11.05,11.05,0,0,1,2.94-3.86c2.08-2,5.16-4,5.26-7.14.06-1.83,0-3.61.19-5.44.4-3.29,1.22-6.51,1.71-9.79.22-1.48.91-4.43-.54-5.55-1.18-.91-3.07-.11-4.42-.34-4.78-.83-2.92-10.18-2.64-13.33.35-4.06.56-8.07.61-12.14.05-4.33.14-8.66.13-13,0-4-.15-7.84-1.8-11.51a86.09,86.09,0,0,1-4.35-10.48c-1.28-4.21-3.11-7.28-6.77-9.76-3.13-2.12-4.44-4.91-6.5-8-1.81-2.68-4.57-4.47-5.72-7.57-2.23-6-3.81-12-7.17-17.55-2.2-3.65-4.84-7.08-7.37-10.52s-5.08-6.69-7.67-10c-3.07-3.86-8-5-11.89-7.75a8.38,8.38,0,0,1-3.58-4.9c-.51-1.86-.79-3.62-2.09-5.13-2.38-2.77-8-3.2-8.6-6.43s1.17-5.47.23-6.56-3.92.23-4.1-1.93c-.2-2.35,2.54-1.51,3.75-1.32a3.36,3.36,0,0,0,3.52-2.49c.39-1.31,0-3.22.08-4.61,0-.78-.11-1.54-.12-2.32s.37-1.85.1-2.62c-.37-1.06-3.5-2.83-1.29-3.62,1.65-.59,3.36.56,5,.59,4,.08,3.52-3,5.52-5.34a7.49,7.49,0,0,1,5-2.79,23.8,23.8,0,0,0,5.45-1.58c2.93-1.2,6.69-.74,9.83-.74,1.85,0,3.3.26,5.11-.42a9.67,9.67,0,0,0,5-4.44c1.12-2.07.44-4.8-.29-6.93-.48-1.39-1.83-4.48-.09-5.57,1.42-.89,3.7.61,5.25.36,2.08-.33,4.37-4.67,6-4.38s1.87-.77,2.61-1.07a11.17,11.17,0,0,0,3.07-1.62,6.17,6.17,0,0,0,2-2.29c.18-.51.38-3.61,1.16-4.34s3.25-2,4.09-3a23.43,23.43,0,0,0,1.86-3.49c.58-1,1.13-2.07,1.77-3.08,1-1.52,1.65-3.09,2.55-4.65a105.14,105.14,0,0,0,5.72-11c.57-1.32,1.54-2.58,2-3.9.55-1.57,1-3.18,1.53-4.74s1.17-3.25,1.75-4.88c.36-1,.51-2.11.91-3.08.59-1.42,1.31-2.82,1.89-4.27,1.31-3.25,2.62-6.52,3.9-9.77.59-1.51,1.41-2.78,1.86-4.33a38.91,38.91,0,0,0,1.4-4.7,14.1,14.1,0,0,1,1.5-3.9,36.33,36.33,0,0,1,2.41-4.9c1-1.5,1.71-3.51,3.53-4,1.5-.41,3.08.07,4.57-.68a8.3,8.3,0,0,0,3-2c.85-1.16,2.73-3,2.57-4.7s-2.79-2-3.86-3.53c-.92-1.34-1.58-3.09-2.57-4.34-.31-.4-.86-.69-1.21-1.08s-.58-1-1-1.46a5.15,5.15,0,0,0-2.62-1.2,7.76,7.76,0,0,1-2.86-1.19c-1.06-.91-1-2.42-1.53-3.57s-1.16-2.73-1.82-3.93c-.45-.82-4.93-3.81-6-4.45s-5-.4-6.91-.33c-2.43.09-2.45,1.9-2.44,4a36.91,36.91,0,0,1-.1,5.54c-.39,2.66-1.07,5.25-1.3,7.94-.27,3.15-.83,8.27-4.05,9.95-2.13,1.11-2.62-1.3-3.48-2.71-1.36-2.25-2.28-.15-3.54,1s-3,.54-4.36,1.31c-2,1.09-1.14,3.11-1.12,4.95,0,4-3,6.44-5.77,8.94a41.8,41.8,0,0,1-4.29,3.29c-1.87,1.3-2.53-.1-4.5-.3s-3.2,1.26-4.93,2.06c-2.43,1.13-6.29,3.09-8,1.53s-4-4.44-6.69-3A11,11,0,0,1,138.5,46c-1.41.36-2.85.48-3.1,2.19-.23,1.52.57,3.18.66,4.7a16.63,16.63,0,0,0,.5,4.72,26.84,26.84,0,0,0,2.4,4.94c.74,1.25,1.83,2.35,2.45,3.66.83,1.75,1.45,6.78-.34,8-2.31,1.63-6.46-.76-9-.75a13,13,0,0,1-4.26-.29,9.61,9.61,0,0,0-5.29-.44c-2.49.45-4.91,1.09-7.43.4-2.19-.6-4-1.58-6.3-1.62-2,0-4.28.15-5.41-1.93-.85-1.56-.31-3.44-.75-5.11C102,62,98.78,53.93,94.41,57Z"/><path class="cls-1" d="M83.21,243.72a.58.58,0,0,1-.15-1.15,3,3,0,0,0,1.55-1.13L85,241a.58.58,0,1,1,.9.75l-.42.49a4.15,4.15,0,0,1-2.12,1.49Zm3.13-7.53c-.31,0-.57-.15-.58-.46,0-.14,0-.24,0-.38s0-.2,0-.31a1.88,1.88,0,0,1,1.7-1.93h.23a.59.59,0,0,1,.09,1.17l-.19,0c-.42,0-.64.33-.66.84,0,.09,0,.19,0,.28s0,.15,0,.27a.5.5,0,0,1-.56.52Zm6.33-5.52-.56-.18-.52-.28a4.53,4.53,0,0,1,.68-1.22,9,9,0,0,0,.66-.92l.24-.37a.58.58,0,1,1,1,.65l-.23.35a10.05,10.05,0,0,1-.75,1A3.51,3.51,0,0,0,92.66,230.67Zm4.6-6.63a.58.58,0,0,1-.42-1c.35-.36.71-.72,1.06-1.06a10.75,10.75,0,0,1,1.17-1,.58.58,0,0,1,.69.94,9.61,9.61,0,0,0-1,.87c-.34.33-.69.68-1,1A.58.58,0,0,1,97.26,224Zm35.08-4.87h-.12a3.8,3.8,0,0,1-1-.38l-.14-.08-.08-.14a3.14,3.14,0,0,0-1.28-1,.58.58,0,1,1,.55-1,4.62,4.62,0,0,1,1.63,1.31,2.65,2.65,0,0,0,.6.2.58.58,0,0,1-.12,1.16Zm5.82-.09a.58.58,0,0,1-.15-1.15,2.15,2.15,0,0,0,.34-.12,9.34,9.34,0,0,0,1.89-1.31.58.58,0,0,1,.76.89,10,10,0,0,1-2.15,1.48,3.3,3.3,0,0,1-.53.19Zm-34-.36a.58.58,0,0,1-.31-1.08l.31-.2a2.55,2.55,0,0,1,.89-.41,9.86,9.86,0,0,1,1.1-.15l.69-.08a.58.58,0,0,1,.17,1.16l-.75.09a8.89,8.89,0,0,0-1,.13,1.55,1.55,0,0,0-.49.25l-.33.21A.58.58,0,0,1,104.2,218.72Zm20-.73h-.07a9,9,0,0,1-1.87-.51c-.35-.12-.68-.24-1-.33a.58.58,0,1,1,.3-1.13c.38.1.74.23,1.1.35a8,8,0,0,0,1.62.45.58.58,0,0,1-.07,1.16Zm-11.54-1a.58.58,0,0,1,0-1.17c.25,0,.5,0,.75,0,.68-.07,1.39-.07,2.09-.07h.13a.58.58,0,0,1,.58.59.59.59,0,0,1-.59.58h-.11c-.65,0-1.3,0-2,.06-.26,0-.51,0-.77,0C112.73,217,112.71,217,112.69,217Zm31.42-4.05a.58.58,0,0,1-.47-.93l.15-.21a2.73,2.73,0,0,0,.55-1,4.59,4.59,0,0,0,.06-.74c0-.16,0-.32,0-.47a.58.58,0,0,1,1.17.09c0,.14,0,.28,0,.42a5.5,5.5,0,0,1-.09.94,3.66,3.66,0,0,1-.75,1.44l-.14.2A.58.58,0,0,1,144.11,212.92Z"/></g></g></svg>