<svg xmlns="http://www.w3.org/2000/svg" viewBox="0 0 859.52 880.69"><defs><style>.cls-1{fill:#208253;}.cls-2{fill:gray;}.cls-3{fill:#999;}.cls-4{fill:#666;}</style></defs><title>Asset 1</title><g id="Layer_2" data-name="Layer 2"><g id="pisa"><path class="cls-1" d="M0,822.74s256.74-75.61,478.07-65.31S821.4,781.74,858.4,822.74,0,822.74,0,822.74Z"/><polygon class="cls-2" points="603.92 701.43 470.17 681.08 468.45 680.82 334.69 660.46 343.39 682.1 464.39 701.08 464.39 701.08 465.38 701.23 466.37 701.38 466.37 701.38 588.36 719.37 603.92 701.43"/><rect class="cls-3" x="327.76" y="698.56" width="252.69" height="163.96" transform="translate(122.57 -59.43) rotate(8.65)"/><path class="cls-2" d="M357.91,849.1l16.35-107.46c4.56-30,.46-55.87-11.09-57.62h0c-11.55-1.76-24.91,21.49-29.47,51.45L317.38,842.94Z"/><path class="cls-2" d="M410.31,857.08l16.35-107.46c4.56-30,.58-55.85-11-57.61h0c-11.55-1.76-25,21.47-29.59,51.43L369.78,850.91Z"/><path class="cls-2" d="M461.72,864.9l16.35-107.46c4.56-30,.81-55.81-10.74-57.57h0c-11.55-1.76-24.27,21.59-28.83,51.55L422.17,858.88Z"/><path class="cls-2" d="M515.1,873l16.35-107.46c4.56-30-.06-55.95-11.62-57.7h0c-11.55-1.76-25.38,21.42-29.94,51.38L473.58,866.7Z"/><path class="cls-2" d="M565.52,880.69l16.35-107.46c4.56-30,.28-55.89-11.27-57.65h0c-11.55-1.76-24.73,21.52-29.29,51.48L525,874.52Z"/><polygon class="cls-4" points="361.81 691.08 373.18 705.17 358.13 715.24 346.76 701.15 361.81 691.08"/><polygon class="cls-4" points="414.32 699.07 425.7 713.16 410.65 723.23 399.28 709.14 414.32 699.07"/><polygon class="cls-4" points="465.96 706.92 477.34 721.01 462.29 731.09 450.92 716.99 465.96 706.92"/><polygon class="cls-4" points="518.48 714.91 529.85 729 514.8 739.08 503.43 724.98 518.48 714.91"/><polygon class="cls-4" points="569.24 722.63 580.61 736.73 565.56 746.8 554.19 732.71 569.24 722.63"/><polygon class="cls-2" points="617.99 589.27 488.07 569.5 486.41 569.25 356.49 549.48 365.32 571.37 483.3 590.11 483.3 590.12 483.79 590.19 484.29 590.26 484.29 590.26 602.77 607.49 617.99 589.27"/><rect class="cls-3" x="356.1" y="587.5" width="241.68" height="94.56" transform="translate(100.91 -64.52) rotate(8.65)"/><polygon class="cls-2" points="382.94 579.08 382.92 579.08 382.93 579.08 382.94 579.08"/><path class="cls-2" d="M384.82,612.46l1.2-7.91,4.45.68c1.32-14-1.43-25.52-7.5-26.45S370,588,367,601.65l4.19.64L370,610.2l-4-.6L357.76,664l23.73,3.61,8.27-54.37Z"/><polygon class="cls-2" points="416.56 584.2 416.54 584.2 416.55 584.2 416.56 584.2"/><path class="cls-2" d="M418.43,617.57l1.2-7.91,4.46.68c1.32-14-1.43-25.52-7.5-26.45s-12.92,9.18-16,22.88l4.18.64-1.2,7.91-4-.6-8.27,54.37,23.73,3.61,8.27-54.37Z"/><polygon class="cls-2" points="449.38 589.19 449.36 589.19 449.37 589.19 449.38 589.19"/><path class="cls-2" d="M451.05,622.54l1.2-7.91,4.65.71c1.32-14-1.43-25.52-7.5-26.45s-12.92,9.18-16,22.88l5,.76-1.2,7.91-4.94-.75L424,674.05l23.73,3.61L456,623.29Z"/><polygon class="cls-2" points="483 594.31 482.98 594.3 482.99 594.3 483 594.31"/><path class="cls-2" d="M484.67,627.65l1.2-7.91,4.66.71c1.32-14-1.43-25.52-7.5-26.45s-12.92,9.18-16,22.88l5,.76-1.2,7.91-4.94-.75-8.27,54.37,23.73,3.61,8.27-54.37Z"/><polygon class="cls-2" points="515.82 599.3 515.8 599.3 515.81 599.3 515.82 599.3"/><path class="cls-2" d="M517.29,632.61l1.2-7.91,4.86.74c1.32-14-1.43-25.52-7.5-26.45s-12.92,9.18-16,22.88l4.77.73-1.2,7.91-4.94-.75-8.27,54.37L514,687.74l8.27-54.37Z"/><polygon class="cls-2" points="551.04 604.66 551.02 604.66 551.03 604.66 551.04 604.66"/><path class="cls-2" d="M552.88,638l1.2-7.91,4.49.68c1.32-14-1.43-25.52-7.5-26.45s-12.92,9.18-16,22.88l5.14.78-1.2,7.91-4.94-.75-8.27,54.37,23.73,3.61,8.27-54.37Z"/><polygon class="cls-2" points="583.86 609.65 583.84 609.65 583.85 609.65 583.86 609.65"/><path class="cls-2" d="M585.51,643l1.2-7.91,4.68.71c1.32-14-1.43-25.52-7.5-26.45s-12.92,9.18-16,22.88l4.94.75-1.2,7.91-4.94-.75-8.27,54.37,23.73,3.61,8.27-54.37Z"/><polygon class="cls-2" points="634.99 477.55 505.07 457.79 503.4 457.53 373.49 437.77 382.34 459.47 500.35 478.04 500.35 478.05 500.84 478.12 501.34 478.19 501.34 478.19 619.8 495.6 634.99 477.55"/><rect class="cls-3" x="373.15" y="475.43" width="241.68" height="94.56" transform="translate(84.25 -68.36) rotate(8.65)"/><polygon class="cls-2" points="399.99 467.01 399.97 467.01 399.98 467.01 399.99 467.01"/><path class="cls-2" d="M402,499.75l1.05-6.92,4.45.68c1.47-14.95-1.43-25.52-7.5-26.45s-12.77,8.19-16,22.88l4.19.64-1.05,6.92-4-.6-8.42,55.36,23.73,3.61,8.42-55.36Z"/><polygon class="cls-2" points="433.61 472.13 433.59 472.13 433.6 472.13 433.61 472.13"/><path class="cls-2" d="M435.58,504.87l1.05-6.92,4.46.68c1.47-14.95-1.43-25.52-7.5-26.45s-12.77,8.19-16,22.88l4.18.64-1.05,6.92-4-.6-8.42,55.36L432.1,561l8.42-55.36Z"/><polygon class="cls-2" points="466.43 477.12 466.41 477.12 466.42 477.12 466.43 477.12"/><path class="cls-2" d="M468.2,509.83l1.05-6.92,4.65.71c1.47-14.95-1.43-25.52-7.5-26.45s-12.77,8.19-16,22.88l5,.76-1.05,6.92-4.94-.75L441,562.34l23.73,3.61,8.42-55.36Z"/><polygon class="cls-2" points="500.05 482.24 500.03 482.23 500.04 482.24 500.05 482.24"/><path class="cls-2" d="M501.81,514.95l1.05-6.92,4.66.71c1.47-14.95-1.43-25.52-7.5-26.45s-12.77,8.19-16,22.88l5,.76L488,512.84l-4.94-.75-8.42,55.36,23.73,3.61,8.42-55.36Z"/><polygon class="cls-2" points="532.87 487.23 532.85 487.23 532.86 487.23 532.87 487.23"/><path class="cls-2" d="M534.44,519.91l1.05-6.92,4.86.74c1.47-14.95-1.43-25.52-7.5-26.45s-12.77,8.19-16,22.88l4.77.73-1.05,6.92-4.94-.75-8.42,55.36L531,576l8.42-55.36Z"/><polygon class="cls-2" points="568.09 492.59 568.07 492.59 568.08 492.59 568.09 492.59"/><path class="cls-2" d="M570,525.33l1.05-6.92,4.49.68c1.47-14.95-1.43-25.52-7.5-26.45s-12.77,8.19-16,22.88l5.14.78-1.05,6.92-4.94-.75-8.42,55.36,23.73,3.61L575,526.08Z"/><polygon class="cls-2" points="600.91 497.58 600.89 497.58 600.9 497.58 600.91 497.58"/><path class="cls-2" d="M602.65,530.29l1.05-6.92,4.68.71c1.47-14.95-1.43-25.52-7.5-26.45s-12.77,8.19-16,22.88l4.94.75-1.05,6.92-4.94-.75-8.42,55.36,23.73,3.61L607.6,531Z"/><polygon class="cls-2" points="652.13 364.85 522.22 345.08 520.55 344.83 390.64 325.06 399.44 347.09 517.4 365.97 517.4 365.98 517.89 366.05 518.39 366.13 518.39 366.12 636.9 383.22 652.13 364.85"/><rect class="cls-3" x="390.2" y="363.36" width="241.68" height="94.56" transform="translate(67.58 -72.2) rotate(8.65)"/><polygon class="cls-2" points="417.04 354.94 417.02 354.94 417.03 354.94 417.04 354.94"/><path class="cls-2" d="M419,388l1.05-6.92,4.45.68c1.47-14.95-1.43-25.52-7.5-26.45s-12.77,8.19-16,22.88l4.19.64-1.05,6.92-4-.6-8.42,55.36,23.73,3.61,8.42-55.36Z"/><polygon class="cls-2" points="450.66 360.06 450.64 360.06 450.65 360.06 450.66 360.06"/><path class="cls-2" d="M452.57,393.15l1.05-6.92,4.46.68c1.47-14.95-1.43-25.52-7.5-26.45s-12.77,8.19-16,22.88l4.18.64-1.05,6.92-4-.6-8.42,55.36,23.73,3.61,8.42-55.36Z"/><polygon class="cls-2" points="483.48 365.05 483.46 365.05 483.47 365.05 483.48 365.05"/><path class="cls-2" d="M485.2,398.12l1.05-6.92,4.65.71c1.47-14.95-1.43-25.52-7.5-26.45s-12.77,8.19-16,22.88l5,.76L471.36,396l-4.94-.75L458,450.62l23.73,3.61,8.42-55.36Z"/><polygon class="cls-2" points="517.1 370.17 517.08 370.16 517.09 370.17 517.1 370.17"/><path class="cls-2" d="M518.81,403.23l1.05-6.92,4.66.71c1.47-14.95-1.43-25.52-7.5-26.45s-12.77,8.19-16,22.88l5,.76L505,401.13l-4.94-.75-8.42,55.36,23.73,3.61L523.75,404Z"/><polygon class="cls-2" points="549.92 375.16 549.9 375.16 549.91 375.16 549.92 375.16"/><path class="cls-2" d="M551.44,408.2l1.05-6.92,4.86.74c1.47-14.95-1.43-25.52-7.5-26.45s-12.77,8.19-16,22.88l4.77.73-1.05,6.92-4.94-.75-8.42,55.36L548,464.31l8.42-55.36Z"/><polygon class="cls-2" points="585.14 380.52 585.13 380.52 585.13 380.52 585.14 380.52"/><path class="cls-2" d="M587,413.61l1.05-6.92,4.49.68c1.47-14.95-1.43-25.52-7.5-26.45s-12.77,8.19-16,22.88l5.14.78-1.05,6.92-4.94-.75-8.42,55.36,23.73,3.61L592,414.36Z"/><polygon class="cls-2" points="617.96 385.51 617.95 385.51 617.96 385.51 617.96 385.51"/><path class="cls-2" d="M619.65,418.57l1.05-6.92,4.68.71c1.47-14.95-1.43-25.52-7.5-26.45s-12.77,8.19-16,22.88l4.94.75-1.05,6.92-4.94-.75-8.42,55.36,23.73,3.61,8.42-55.36Z"/><polygon class="cls-2" points="669.13 253.13 539.21 233.37 537.55 233.12 407.63 213.35 416.47 235.19 534.45 253.9 534.45 253.91 534.95 253.98 535.44 254.06 535.44 254.05 653.92 271.32 669.13 253.13"/><rect class="cls-3" x="407.26" y="251.29" width="241.68" height="94.56" transform="translate(50.92 -76.04) rotate(8.65)"/><polygon class="cls-2" points="434.09 242.87 434.07 242.87 434.08 242.87 434.09 242.87"/><path class="cls-2" d="M436,276.33l1.2-7.91,4.45.68c1.32-14-1.43-25.52-7.5-26.45s-12.92,9.18-16,22.88l4.19.64-1.2,7.91-4-.6-8.27,54.37,23.73,3.61,8.27-54.37Z"/><polygon class="cls-2" points="467.71 247.99 467.69 247.99 467.7 247.99 467.71 247.99"/><path class="cls-2" d="M469.57,281.44l1.2-7.91,4.46.68c1.32-14-1.43-25.52-7.5-26.45s-12.92,9.18-16,22.88l4.18.64-1.2,7.91-4-.6L442.51,333l23.73,3.61,8.27-54.37Z"/><polygon class="cls-2" points="500.53 252.98 500.51 252.98 500.52 252.98 500.53 252.98"/><path class="cls-2" d="M502.2,286.4l1.2-7.91,4.65.71c1.32-14-1.43-25.52-7.5-26.45s-12.92,9.18-16,22.88l5,.76-1.2,7.91-4.94-.75-8.27,54.37,23.73,3.61,8.27-54.37Z"/><polygon class="cls-2" points="534.15 258.1 534.13 258.09 534.14 258.1 534.15 258.1"/><path class="cls-2" d="M535.81,291.52l1.2-7.91,4.66.71c1.32-14-1.43-25.52-7.5-26.45s-12.92,9.18-16,22.88l5,.76-1.2,7.91-4.94-.75L508.75,343l23.73,3.61,8.27-54.37Z"/><polygon class="cls-2" points="566.97 263.09 566.96 263.09 566.96 263.09 566.97 263.09"/><path class="cls-2" d="M568.43,296.48l1.2-7.91,4.86.74c1.32-14-1.43-25.52-7.5-26.45s-12.92,9.18-16,22.88l4.77.73-1.2,7.91-4.94-.75L541.38,348l23.73,3.61,8.27-54.37Z"/><polygon class="cls-2" points="602.19 268.45 602.18 268.45 602.18 268.45 602.19 268.45"/><path class="cls-2" d="M604,301.9l1.2-7.91,4.49.68c1.32-14-1.43-25.52-7.5-26.45s-12.92,9.18-16,22.88l5.14.78-1.2,7.91-4.94-.75L577,353.41,600.69,357,609,302.65Z"/><polygon class="cls-2" points="635.01 273.44 635 273.44 635.01 273.44 635.01 273.44"/><path class="cls-2" d="M636.65,306.86l1.2-7.91,4.68.71c1.32-14-1.43-25.52-7.5-26.45s-12.92,9.18-16,22.88l4.94.75-1.2,7.91-4.94-.75-8.27,54.37L633.32,362l8.27-54.37Z"/><polygon class="cls-2" points="686.13 141.42 556.21 121.65 554.55 121.4 424.63 101.63 433.49 123.3 551.5 141.83 551.5 141.84 552 141.91 552.49 141.99 552.49 141.98 670.95 159.43 686.13 141.42"/><rect class="cls-3" x="424.31" y="139.22" width="241.68" height="94.56" transform="translate(34.26 -79.88) rotate(8.65)"/><polygon class="cls-2" points="451.14 130.8 451.12 130.8 451.13 130.8 451.14 130.8"/><path class="cls-2" d="M453.11,163.62l1.05-6.92,4.45.68c1.47-14.95-1.43-25.52-7.5-26.45s-12.77,8.19-16,22.88l4.19.64-1.05,6.92-4-.6-8.42,55.36,23.73,3.61L458,164.37Z"/><polygon class="cls-2" points="484.76 135.92 484.74 135.91 484.75 135.92 484.76 135.92"/><path class="cls-2" d="M486.72,168.74l1.05-6.92,4.46.68c1.47-14.95-1.43-25.52-7.5-26.45s-12.77,8.19-16,22.88l4.18.64-1.05,6.92-4-.6-8.42,55.36,23.73,3.61,8.42-55.36Z"/><polygon class="cls-2" points="517.58 140.91 517.57 140.91 517.57 140.91 517.58 140.91"/><path class="cls-2" d="M519.34,173.7l1.05-6.92,4.65.71c1.47-14.95-1.43-25.52-7.5-26.45s-12.77,8.19-16,22.88l5,.76-1.05,6.92-4.94-.75-8.42,55.36,23.73,3.61,8.42-55.36Z"/><polygon class="cls-2" points="551.2 146.03 551.19 146.02 551.19 146.03 551.2 146.03"/><path class="cls-2" d="M553,178.81l1.05-6.92,4.66.71c1.47-14.95-1.43-25.52-7.5-26.45s-12.77,8.19-16,22.88l5,.76-1.05,6.92-4.94-.75-8.42,55.36,23.73,3.61,8.42-55.36Z"/><polygon class="cls-2" points="584.02 151.02 584.01 151.02 584.01 151.02 584.02 151.02"/><path class="cls-2" d="M585.58,183.78l1.05-6.92,4.86.74c1.47-14.95-1.43-25.52-7.5-26.45s-12.77,8.19-16,22.88l4.77.73-1.05,6.92-4.94-.75-8.42,55.36,23.73,3.61,8.42-55.36Z"/><polygon class="cls-2" points="619.25 156.38 619.23 156.38 619.24 156.38 619.25 156.38"/><path class="cls-2" d="M621.17,189.19l1.05-6.92,4.49.68c1.47-14.95-1.43-25.52-7.5-26.45s-12.77,8.19-16,22.88l5.14.78-1.05,6.92-4.94-.75L594,241.7l23.73,3.61,8.42-55.36Z"/><polygon class="cls-2" points="652.07 161.37 652.05 161.37 652.06 161.37 652.07 161.37"/><path class="cls-2" d="M653.8,194.16l1.05-6.92,4.68.71C661,173,658.11,162.43,652,161.5s-12.77,8.19-16,22.88l4.94.75L640,192.05,635,191.3l-8.42,55.36,23.73,3.61,8.42-55.36Z"/><rect class="cls-3" x="458.24" y="30.78" width="207.13" height="92.1" transform="translate(17.95 -83.63) rotate(8.65)"/><polygon class="cls-2" points="501.69 24.65 501.67 24.64 501.68 24.65 501.69 24.65"/><path class="cls-2" d="M508.72,97.23l5.59-36.73c1.57-10.33-2-19.36-8.33-20.33h0c-6.37-1-12.85,6.54-14.42,16.87L486,93.77Z"/><path class="cls-2" d="M563.94,106.65l5.62-36.92c1.57-10.33-1.31-19.07-7.69-20h0c-6.37-1-12.51,6.4-14.08,16.73l-5.62,36.92Z"/><path class="cls-2" d="M625.23,116l5.62-36.92c1.57-10.33-1.77-19.14-8.14-20.11h0c-6.37-1-13,6.32-14.61,16.65l-5.62,36.92Z"/><polygon class="cls-2" points="681.2 50.65 568.73 33.53 567.29 33.32 454.83 16.2 467.41 0 569.4 14.49 569.4 14.49 569.9 14.57 570.4 14.64 570.4 14.64 673.04 31.29 681.2 50.65"/></g></g></svg>